<?xml version="1.0" encoding="utf-8" standalone="no"?>
<!DOCTYPE svg PUBLIC "-//W3C//DTD SVG 1.1//EN"
  "http://www.w3.org/Graphics/SVG/1.1/DTD/svg11.dtd">
<svg xmlns:xlink="http://www.w3.org/1999/xlink" width="864pt" height="288pt" viewBox="0 0 864 288" xmlns="http://www.w3.org/2000/svg" version="1.1">
 <metadata>
  <rdf:RDF xmlns:dc="http://purl.org/dc/elements/1.1/" xmlns:cc="http://creativecommons.org/ns#" xmlns:rdf="http://www.w3.org/1999/02/22-rdf-syntax-ns#">
   <cc:Work>
    <dc:type rdf:resource="http://purl.org/dc/dcmitype/StillImage"/>
    <dc:date>2025-02-03T16:30:08.915172</dc:date>
    <dc:format>image/svg+xml</dc:format>
    <dc:creator>
     <cc:Agent>
      <dc:title>Matplotlib v3.9.2, https://matplotlib.org/</dc:title>
     </cc:Agent>
    </dc:creator>
   </cc:Work>
  </rdf:RDF>
 </metadata>
 <defs>
  <style type="text/css">*{stroke-linejoin: round; stroke-linecap: butt}</style>
 </defs>
 <g id="figure_1">
  <g id="patch_1">
   <path d="M 0 288 
L 864 288 
L 864 0 
L 0 0 
z
" style="fill: #ffffff"/>
  </g>
  <g id="axes_1">
   <g id="patch_2">
    <path d="M 10.8 260.12 
L 284.4 260.12 
L 284.4 62.9385 
L 10.8 62.9385 
z
" style="fill: #ffffff"/>
   </g>
   <g id="matplotlib.axis_1">
    <g id="xtick_1">
     <g id="line2d_1">
      <defs>
       <path id="mf4c2d07f0c" d="M 0 0 
L 0 3.5 
" style="stroke: #000000; stroke-width: 0.8"/>
      </defs>
      <g>
       <use xlink:href="#mf4c2d07f0c" x="23.236364" y="260.12" style="stroke: #000000; stroke-width: 0.8"/>
      </g>
     </g>
     <g id="text_1">
      <!-- −3 -->
      <g transform="translate(15.86527 274.718437) scale(0.1 -0.1)">
       <defs>
        <path id="DejaVuSans-2212" d="M 678 2272 
L 4684 2272 
L 4684 1741 
L 678 1741 
L 678 2272 
z
" transform="scale(0.015625)"/>
        <path id="DejaVuSans-33" d="M 2597 2516 
Q 3050 2419 3304 2112 
Q 3559 1806 3559 1356 
Q 3559 666 3084 287 
Q 2609 -91 1734 -91 
Q 1441 -91 1130 -33 
Q 819 25 488 141 
L 488 750 
Q 750 597 1062 519 
Q 1375 441 1716 441 
Q 2309 441 2620 675 
Q 2931 909 2931 1356 
Q 2931 1769 2642 2001 
Q 2353 2234 1838 2234 
L 1294 2234 
L 1294 2753 
L 1863 2753 
Q 2328 2753 2575 2939 
Q 2822 3125 2822 3475 
Q 2822 3834 2567 4026 
Q 2313 4219 1838 4219 
Q 1578 4219 1281 4162 
Q 984 4106 628 3988 
L 628 4550 
Q 988 4650 1302 4700 
Q 1616 4750 1894 4750 
Q 2613 4750 3031 4423 
Q 3450 4097 3450 3541 
Q 3450 3153 3228 2886 
Q 3006 2619 2597 2516 
z
" transform="scale(0.015625)"/>
       </defs>
       <use xlink:href="#DejaVuSans-2212"/>
       <use xlink:href="#DejaVuSans-33" x="83.789062"/>
      </g>
     </g>
    </g>
    <g id="xtick_2">
     <g id="line2d_2">
      <g>
       <use xlink:href="#mf4c2d07f0c" x="64.690909" y="260.12" style="stroke: #000000; stroke-width: 0.8"/>
      </g>
     </g>
     <g id="text_2">
      <!-- −2 -->
      <g transform="translate(57.319815 274.718437) scale(0.1 -0.1)">
       <defs>
        <path id="DejaVuSans-32" d="M 1228 531 
L 3431 531 
L 3431 0 
L 469 0 
L 469 531 
Q 828 903 1448 1529 
Q 2069 2156 2228 2338 
Q 2531 2678 2651 2914 
Q 2772 3150 2772 3378 
Q 2772 3750 2511 3984 
Q 2250 4219 1831 4219 
Q 1534 4219 1204 4116 
Q 875 4013 500 3803 
L 500 4441 
Q 881 4594 1212 4672 
Q 1544 4750 1819 4750 
Q 2544 4750 2975 4387 
Q 3406 4025 3406 3419 
Q 3406 3131 3298 2873 
Q 3191 2616 2906 2266 
Q 2828 2175 2409 1742 
Q 1991 1309 1228 531 
z
" transform="scale(0.015625)"/>
       </defs>
       <use xlink:href="#DejaVuSans-2212"/>
       <use xlink:href="#DejaVuSans-32" x="83.789062"/>
      </g>
     </g>
    </g>
    <g id="xtick_3">
     <g id="line2d_3">
      <g>
       <use xlink:href="#mf4c2d07f0c" x="106.145455" y="260.12" style="stroke: #000000; stroke-width: 0.8"/>
      </g>
     </g>
     <g id="text_3">
      <!-- −1 -->
      <g transform="translate(98.774361 274.718437) scale(0.1 -0.1)">
       <defs>
        <path id="DejaVuSans-31" d="M 794 531 
L 1825 531 
L 1825 4091 
L 703 3866 
L 703 4441 
L 1819 4666 
L 2450 4666 
L 2450 531 
L 3481 531 
L 3481 0 
L 794 0 
L 794 531 
z
" transform="scale(0.015625)"/>
       </defs>
       <use xlink:href="#DejaVuSans-2212"/>
       <use xlink:href="#DejaVuSans-31" x="83.789062"/>
      </g>
     </g>
    </g>
    <g id="xtick_4">
     <g id="line2d_4">
      <g>
       <use xlink:href="#mf4c2d07f0c" x="147.6" y="260.12" style="stroke: #000000; stroke-width: 0.8"/>
      </g>
     </g>
     <g id="text_4">
      <!-- 0 -->
      <g transform="translate(144.41875 274.718437) scale(0.1 -0.1)">
       <defs>
        <path id="DejaVuSans-30" d="M 2034 4250 
Q 1547 4250 1301 3770 
Q 1056 3291 1056 2328 
Q 1056 1369 1301 889 
Q 1547 409 2034 409 
Q 2525 409 2770 889 
Q 3016 1369 3016 2328 
Q 3016 3291 2770 3770 
Q 2525 4250 2034 4250 
z
M 2034 4750 
Q 2819 4750 3233 4129 
Q 3647 3509 3647 2328 
Q 3647 1150 3233 529 
Q 2819 -91 2034 -91 
Q 1250 -91 836 529 
Q 422 1150 422 2328 
Q 422 3509 836 4129 
Q 1250 4750 2034 4750 
z
" transform="scale(0.015625)"/>
       </defs>
       <use xlink:href="#DejaVuSans-30"/>
      </g>
     </g>
    </g>
    <g id="xtick_5">
     <g id="line2d_5">
      <g>
       <use xlink:href="#mf4c2d07f0c" x="189.054545" y="260.12" style="stroke: #000000; stroke-width: 0.8"/>
      </g>
     </g>
     <g id="text_5">
      <!-- 1 -->
      <g transform="translate(185.873295 274.718437) scale(0.1 -0.1)">
       <use xlink:href="#DejaVuSans-31"/>
      </g>
     </g>
    </g>
    <g id="xtick_6">
     <g id="line2d_6">
      <g>
       <use xlink:href="#mf4c2d07f0c" x="230.509091" y="260.12" style="stroke: #000000; stroke-width: 0.8"/>
      </g>
     </g>
     <g id="text_6">
      <!-- 2 -->
      <g transform="translate(227.327841 274.718437) scale(0.1 -0.1)">
       <use xlink:href="#DejaVuSans-32"/>
      </g>
     </g>
    </g>
    <g id="xtick_7">
     <g id="line2d_7">
      <g>
       <use xlink:href="#mf4c2d07f0c" x="271.963636" y="260.12" style="stroke: #000000; stroke-width: 0.8"/>
      </g>
     </g>
     <g id="text_7">
      <!-- 3 -->
      <g transform="translate(268.782386 274.718437) scale(0.1 -0.1)">
       <use xlink:href="#DejaVuSans-33"/>
      </g>
     </g>
    </g>
   </g>
   <g id="matplotlib.axis_2">
    <g id="ytick_1">
     <g id="line2d_8">
      <defs>
       <path id="m5f4a422ea6" d="M 0 0 
L -3.5 0 
" style="stroke: #000000; stroke-width: 0.8"/>
      </defs>
      <g>
       <use xlink:href="#m5f4a422ea6" x="147.6" y="260.12" style="stroke: #000000; stroke-width: 0.8"/>
      </g>
     </g>
    </g>
    <g id="ytick_2">
     <g id="line2d_9">
      <g>
       <use xlink:href="#m5f4a422ea6" x="147.6" y="80.864091" style="stroke: #000000; stroke-width: 0.8"/>
      </g>
     </g>
     <g id="text_8">
      <!-- 1 -->
      <g transform="translate(134.2375 84.66331) scale(0.1 -0.1)">
       <use xlink:href="#DejaVuSans-31"/>
      </g>
     </g>
    </g>
   </g>
   <g id="line2d_10">
    <path d="M 23.236364 106.333347 
L 25.74876 103.914879 
L 28.261157 106.36877 
L 30.773554 112.257733 
L 33.28595 121.286633 
L 35.798347 133.478426 
L 38.310744 147.976476 
L 40.82314 162.594178 
L 43.335537 174.538718 
L 45.847934 181.406926 
L 48.360331 181.721119 
L 50.872727 175.148844 
L 53.385124 162.149823 
L 55.897521 143.741104 
L 58.409917 122.703142 
L 60.922314 104.312713 
L 63.434711 93.476036 
L 65.947107 90.942606 
L 68.459504 94.279258 
L 70.971901 101.092377 
L 73.484298 110.3267 
L 75.996694 121.986419 
L 78.509091 136.305168 
L 81.021488 152.61354 
L 83.533884 168.519881 
L 86.046281 180.410249 
L 88.558678 184.929559 
L 91.071074 180.113565 
L 93.583471 165.884046 
L 96.095868 144.470234 
L 98.608264 120.691376 
L 101.120661 100.499563 
L 103.633058 87.800269 
L 106.145455 83.070596 
L 108.657851 84.682409 
L 111.170248 90.564871 
L 113.682645 99.121785 
L 116.195041 109.618014 
L 118.707438 122.271406 
L 121.219835 137.826559 
L 123.732231 155.781384 
L 126.244628 172.190569 
L 128.757025 181.415125 
L 131.269421 180.225615 
L 133.781818 168.562055 
L 136.294215 148.841585 
L 138.806612 125.625389 
L 141.319008 104.233925 
L 143.831405 88.931569 
L 146.343802 81.670389 
L 148.856198 81.554999 
L 151.368595 86.074739 
L 153.880992 93.038781 
L 156.393388 101.429909 
L 158.905785 111.355758 
L 161.418182 123.759213 
L 163.930579 139.400921 
L 166.442975 156.254837 
L 168.955372 168.748251 
L 171.467769 172.310369 
L 173.980165 166.354116 
L 176.492562 152.861577 
L 179.004959 134.622234 
L 181.517355 114.786185 
L 184.029752 97.381691 
L 186.542149 86.512571 
L 189.054545 83.51818 
L 191.566942 86.429676 
L 194.079339 92.573845 
L 196.591736 100.283193 
L 199.104132 108.846429 
L 201.616529 118.048719 
L 204.128926 127.903596 
L 206.641322 138.380768 
L 209.153719 148.591328 
L 211.666116 155.955974 
L 214.178512 157.597274 
L 216.690909 152.476596 
L 219.203306 141.302743 
L 221.715702 126.060234 
L 224.228099 110.381758 
L 226.740496 98.703311 
L 229.252893 93.294957 
L 231.765289 93.233551 
L 234.277686 96.646527 
L 236.790083 102.283811 
L 239.302479 109.277186 
L 241.814876 116.599503 
L 244.327273 123.145161 
L 246.839669 128.416673 
L 249.352066 133.263543 
L 251.864463 139.023036 
L 254.37686 144.554659 
L 256.889256 146.499802 
L 259.401653 142.844026 
L 261.91405 134.001048 
L 264.426446 122.464905 
L 266.938843 112.206167 
L 269.45124 106.453312 
L 271.963636 105.452084 
" clip-path="url(#pc369f0545a)" style="fill: none; stroke: #1f77b4; stroke-width: 2; stroke-linecap: square"/>
   </g>
   <g id="line2d_11">
    <path d="M 23.236364 107.827769 
L 25.74876 110.323537 
L 28.261157 117.313707 
L 30.773554 127.272082 
L 33.28595 138.897553 
L 35.798347 150.839027 
L 38.310744 161.729532 
L 40.82314 170.262919 
L 43.335537 175.156039 
L 45.847934 175.341249 
L 48.360331 170.337142 
L 50.872727 160.416086 
L 53.385124 146.542512 
L 55.897521 130.278909 
L 58.409917 113.877245 
L 60.922314 100.396616 
L 63.434711 92.886847 
L 65.947107 92.630713 
L 68.459504 98.723177 
L 70.971901 109.56617 
L 73.484298 123.885062 
L 75.996694 140.277188 
L 78.509091 156.565508 
L 81.021488 170.139731 
L 83.533884 178.886182 
L 86.046281 181.681815 
L 88.558678 178.247936 
L 91.071074 168.776565 
L 93.583471 153.828447 
L 96.095868 134.81765 
L 98.608264 114.719021 
L 101.120661 97.694177 
L 103.633058 87.020765 
L 106.145455 83.505947 
L 108.657851 86.26573 
L 111.170248 94.370653 
L 113.682645 107.511172 
L 116.195041 125.263578 
L 118.707438 145.549247 
L 121.219835 164.349446 
L 123.732231 177.747211 
L 126.244628 183.743993 
L 128.757025 182.18471 
L 131.269421 173.904309 
L 133.781818 160.040195 
L 136.294215 141.910054 
L 138.806612 121.613906 
L 141.319008 102.569022 
L 143.831405 88.565065 
L 146.343802 81.67261 
L 148.856198 81.616776 
L 151.368595 87.23862 
L 153.880992 97.917813 
L 156.393388 113.563902 
L 158.905785 133.215556 
L 161.418182 153.712239 
L 163.930579 170.629897 
L 166.442975 180.602592 
L 168.955372 182.274293 
L 171.467769 175.964968 
L 173.980165 163.268546 
L 176.492562 146.614694 
L 179.004959 128.624052 
L 181.517355 111.615056 
L 184.029752 97.506263 
L 186.542149 87.909979 
L 189.054545 84.129548 
L 191.566942 86.908296 
L 194.079339 96.001101 
L 196.591736 110.004643 
L 199.104132 126.782416 
L 201.616529 144.066371 
L 204.128926 159.628837 
L 206.641322 171.161906 
L 209.153719 176.492648 
L 211.666116 174.294748 
L 214.178512 164.831802 
L 216.690909 150.290071 
L 219.203306 134.175739 
L 221.715702 119.582162 
L 224.228099 107.909471 
L 226.740496 99.480317 
L 229.252893 94.937466 
L 231.765289 95.611982 
L 234.277686 102.242618 
L 236.790083 113.510321 
L 239.302479 126.654598 
L 241.814876 139.356748 
L 244.327273 150.495998 
L 246.839669 159.5113 
L 249.352066 165.42121 
L 251.864463 166.668963 
L 254.37686 162.204413 
L 256.889256 152.660358 
L 259.401653 140.409745 
L 261.91405 128.351551 
L 264.426446 118.487259 
L 266.938843 111.746523 
L 269.45124 108.781319 
L 271.963636 110.194101 
" clip-path="url(#pc369f0545a)" style="fill: none; stroke: #ff7f0e; stroke-width: 2; stroke-linecap: square"/>
   </g>
   <g id="line2d_12">
    <path d="M 23.236364 104.653467 
L 25.74876 106.122492 
L 28.261157 111.112589 
L 30.773554 119.81909 
L 33.28595 132.20867 
L 35.798347 146.926465 
L 38.310744 161.212903 
L 40.82314 172.167952 
L 43.335537 177.904148 
L 45.847934 177.642896 
L 48.360331 171.324362 
L 50.872727 159.471092 
L 53.385124 143.490989 
L 55.897521 126.018327 
L 58.409917 110.446468 
L 60.922314 99.444982 
L 63.434711 93.903258 
L 65.947107 93.470098 
L 68.459504 97.755 
L 70.971901 106.844513 
L 73.484298 120.77271 
L 75.996694 138.397 
L 78.509091 156.827133 
L 81.021488 172.343694 
L 83.533884 182.029046 
L 86.046281 184.504932 
L 88.558678 179.572101 
L 91.071074 167.775754 
L 93.583471 150.551665 
L 96.095868 130.589137 
L 98.608264 111.477513 
L 101.120661 96.429744 
L 103.633058 87.196925 
L 106.145455 84.10141 
L 108.657851 86.839633 
L 111.170248 95.209006 
L 113.682645 109.186335 
L 116.195041 128.131659 
L 118.707438 149.572588 
L 121.219835 169.197894 
L 123.732231 182.885872 
L 126.244628 188.502282 
L 128.757025 185.727647 
L 131.269421 175.205589 
L 133.781818 158.377434 
L 136.294215 137.824238 
L 138.806612 117.111894 
L 141.319008 99.666318 
L 143.831405 87.604582 
L 146.343802 81.604703 
L 148.856198 81.599098 
L 151.368595 87.489104 
L 153.880992 99.423989 
L 156.393388 117.322499 
L 158.905785 139.479044 
L 161.418182 161.634271 
L 163.930579 178.744871 
L 166.442975 187.775625 
L 168.955372 188.096711 
L 171.467769 180.290276 
L 173.980165 165.5646 
L 176.492562 146.113355 
L 179.004959 125.367285 
L 181.517355 107.056328 
L 184.029752 93.660015 
L 186.542149 85.928125 
L 189.054545 83.656353 
L 191.566942 86.617476 
L 194.079339 95.023184 
L 196.591736 109.359503 
L 199.104132 129.201955 
L 201.616529 151.368573 
L 204.128926 170.403876 
L 206.641322 182.132083 
L 209.153719 185.40441 
L 211.666116 180.913052 
L 214.178512 169.976402 
L 216.690909 154.306887 
L 219.203306 136.170632 
L 221.715702 118.347923 
L 224.228099 103.66205 
L 226.740496 94.143467 
L 229.252893 90.379232 
L 231.765289 91.777326 
L 234.277686 97.60009 
L 236.790083 107.804682 
L 239.302479 122.758878 
L 241.814876 141.39166 
L 244.327273 159.704688 
L 246.839669 172.961406 
L 249.352066 178.899994 
L 251.864463 177.78624 
L 254.37686 170.956919 
L 256.889256 159.955398 
L 259.401653 146.30155 
L 261.91405 131.595759 
L 264.426446 117.797237 
L 266.938843 107.171325 
L 269.45124 101.414249 
L 271.963636 100.749316 
" clip-path="url(#pc369f0545a)" style="fill: none; stroke: #2ca02c; stroke-width: 2; stroke-linecap: square"/>
   </g>
   <g id="patch_3">
    <path d="M 147.6 260.12 
L 147.6 62.9385 
" style="fill: none; stroke: #000000; stroke-width: 0.8; stroke-linejoin: miter; stroke-linecap: square"/>
   </g>
   <g id="patch_4">
    <path d="M 284.4 260.12 
L 284.4 62.9385 
" style="fill: none"/>
   </g>
   <g id="patch_5">
    <path d="M 10.8 260.12 
L 284.4 260.12 
" style="fill: none; stroke: #000000; stroke-width: 0.8; stroke-linejoin: miter; stroke-linecap: square"/>
   </g>
   <g id="patch_6">
    <path d="M 10.8 62.9385 
L 284.4 62.9385 
" style="fill: none"/>
   </g>
   <g id="text_9">
    <!-- 1 modules: $\Delta \theta$ = 2$^{\circ}$, $\Delta \lambda$ = 0.05 -->
    <g transform="translate(55.32 56.9385) scale(0.12 -0.12)">
     <defs>
      <path id="DejaVuSans-20" transform="scale(0.015625)"/>
      <path id="DejaVuSans-6d" d="M 3328 2828 
Q 3544 3216 3844 3400 
Q 4144 3584 4550 3584 
Q 5097 3584 5394 3201 
Q 5691 2819 5691 2113 
L 5691 0 
L 5113 0 
L 5113 2094 
Q 5113 2597 4934 2840 
Q 4756 3084 4391 3084 
Q 3944 3084 3684 2787 
Q 3425 2491 3425 1978 
L 3425 0 
L 2847 0 
L 2847 2094 
Q 2847 2600 2669 2842 
Q 2491 3084 2119 3084 
Q 1678 3084 1418 2786 
Q 1159 2488 1159 1978 
L 1159 0 
L 581 0 
L 581 3500 
L 1159 3500 
L 1159 2956 
Q 1356 3278 1631 3431 
Q 1906 3584 2284 3584 
Q 2666 3584 2933 3390 
Q 3200 3197 3328 2828 
z
" transform="scale(0.015625)"/>
      <path id="DejaVuSans-6f" d="M 1959 3097 
Q 1497 3097 1228 2736 
Q 959 2375 959 1747 
Q 959 1119 1226 758 
Q 1494 397 1959 397 
Q 2419 397 2687 759 
Q 2956 1122 2956 1747 
Q 2956 2369 2687 2733 
Q 2419 3097 1959 3097 
z
M 1959 3584 
Q 2709 3584 3137 3096 
Q 3566 2609 3566 1747 
Q 3566 888 3137 398 
Q 2709 -91 1959 -91 
Q 1206 -91 779 398 
Q 353 888 353 1747 
Q 353 2609 779 3096 
Q 1206 3584 1959 3584 
z
" transform="scale(0.015625)"/>
      <path id="DejaVuSans-64" d="M 2906 2969 
L 2906 4863 
L 3481 4863 
L 3481 0 
L 2906 0 
L 2906 525 
Q 2725 213 2448 61 
Q 2172 -91 1784 -91 
Q 1150 -91 751 415 
Q 353 922 353 1747 
Q 353 2572 751 3078 
Q 1150 3584 1784 3584 
Q 2172 3584 2448 3432 
Q 2725 3281 2906 2969 
z
M 947 1747 
Q 947 1113 1208 752 
Q 1469 391 1925 391 
Q 2381 391 2643 752 
Q 2906 1113 2906 1747 
Q 2906 2381 2643 2742 
Q 2381 3103 1925 3103 
Q 1469 3103 1208 2742 
Q 947 2381 947 1747 
z
" transform="scale(0.015625)"/>
      <path id="DejaVuSans-75" d="M 544 1381 
L 544 3500 
L 1119 3500 
L 1119 1403 
Q 1119 906 1312 657 
Q 1506 409 1894 409 
Q 2359 409 2629 706 
Q 2900 1003 2900 1516 
L 2900 3500 
L 3475 3500 
L 3475 0 
L 2900 0 
L 2900 538 
Q 2691 219 2414 64 
Q 2138 -91 1772 -91 
Q 1169 -91 856 284 
Q 544 659 544 1381 
z
M 1991 3584 
L 1991 3584 
z
" transform="scale(0.015625)"/>
      <path id="DejaVuSans-6c" d="M 603 4863 
L 1178 4863 
L 1178 0 
L 603 0 
L 603 4863 
z
" transform="scale(0.015625)"/>
      <path id="DejaVuSans-65" d="M 3597 1894 
L 3597 1613 
L 953 1613 
Q 991 1019 1311 708 
Q 1631 397 2203 397 
Q 2534 397 2845 478 
Q 3156 559 3463 722 
L 3463 178 
Q 3153 47 2828 -22 
Q 2503 -91 2169 -91 
Q 1331 -91 842 396 
Q 353 884 353 1716 
Q 353 2575 817 3079 
Q 1281 3584 2069 3584 
Q 2775 3584 3186 3129 
Q 3597 2675 3597 1894 
z
M 3022 2063 
Q 3016 2534 2758 2815 
Q 2500 3097 2075 3097 
Q 1594 3097 1305 2825 
Q 1016 2553 972 2059 
L 3022 2063 
z
" transform="scale(0.015625)"/>
      <path id="DejaVuSans-73" d="M 2834 3397 
L 2834 2853 
Q 2591 2978 2328 3040 
Q 2066 3103 1784 3103 
Q 1356 3103 1142 2972 
Q 928 2841 928 2578 
Q 928 2378 1081 2264 
Q 1234 2150 1697 2047 
L 1894 2003 
Q 2506 1872 2764 1633 
Q 3022 1394 3022 966 
Q 3022 478 2636 193 
Q 2250 -91 1575 -91 
Q 1294 -91 989 -36 
Q 684 19 347 128 
L 347 722 
Q 666 556 975 473 
Q 1284 391 1588 391 
Q 1994 391 2212 530 
Q 2431 669 2431 922 
Q 2431 1156 2273 1281 
Q 2116 1406 1581 1522 
L 1381 1569 
Q 847 1681 609 1914 
Q 372 2147 372 2553 
Q 372 3047 722 3315 
Q 1072 3584 1716 3584 
Q 2034 3584 2315 3537 
Q 2597 3491 2834 3397 
z
" transform="scale(0.015625)"/>
      <path id="DejaVuSans-3a" d="M 750 794 
L 1409 794 
L 1409 0 
L 750 0 
L 750 794 
z
M 750 3309 
L 1409 3309 
L 1409 2516 
L 750 2516 
L 750 3309 
z
" transform="scale(0.015625)"/>
      <path id="DejaVuSans-394" d="M 2188 4044 
L 906 525 
L 3472 525 
L 2188 4044 
z
M 50 0 
L 1831 4666 
L 2547 4666 
L 4325 0 
L 50 0 
z
" transform="scale(0.015625)"/>
      <path id="DejaVuSans-Oblique-3b8" d="M 2913 2219 
L 925 2219 
Q 791 1284 928 888 
Q 1100 400 1566 400 
Q 2034 400 2391 891 
Q 2703 1322 2913 2219 
z
M 3009 2750 
Q 3094 3638 2984 3950 
Q 2813 4444 2353 4444 
Q 1875 4444 1525 3956 
Q 1250 3563 1034 2750 
L 3009 2750 
z
M 2444 4913 
Q 3194 4913 3494 4250 
Q 3794 3591 3566 2422 
Q 3341 1256 2781 594 
Q 2225 -72 1475 -72 
Q 722 -72 425 594 
Q 128 1256 353 2422 
Q 581 3591 1134 4250 
Q 1691 4913 2444 4913 
z
" transform="scale(0.015625)"/>
      <path id="DejaVuSans-3d" d="M 678 2906 
L 4684 2906 
L 4684 2381 
L 678 2381 
L 678 2906 
z
M 678 1631 
L 4684 1631 
L 4684 1100 
L 678 1100 
L 678 1631 
z
" transform="scale(0.015625)"/>
      <path id="DejaVuSans-2218" d="M 2003 2603 
Q 1753 2603 1581 2429 
Q 1409 2256 1409 2006 
Q 1409 1759 1581 1589 
Q 1753 1419 2003 1419 
Q 2253 1419 2425 1589 
Q 2597 1759 2597 2006 
Q 2597 2253 2423 2428 
Q 2250 2603 2003 2603 
z
M 2003 3006 
Q 2203 3006 2387 2929 
Q 2572 2853 2706 2709 
Q 2850 2569 2922 2390 
Q 2994 2212 2994 2006 
Q 2994 1594 2705 1308 
Q 2416 1022 1997 1022 
Q 1575 1022 1294 1303 
Q 1013 1584 1013 2006 
Q 1013 2425 1300 2715 
Q 1588 3006 2003 3006 
z
" transform="scale(0.015625)"/>
      <path id="DejaVuSans-2c" d="M 750 794 
L 1409 794 
L 1409 256 
L 897 -744 
L 494 -744 
L 750 256 
L 750 794 
z
" transform="scale(0.015625)"/>
      <path id="DejaVuSans-Oblique-3bb" d="M 2350 4316 
L 3125 0 
L 2516 0 
L 2038 2588 
L 328 0 
L -281 0 
L 1903 3356 
L 1794 3975 
Q 1725 4369 1391 4369 
L 1091 4369 
L 1184 4863 
L 1550 4856 
Q 2253 4847 2350 4316 
z
" transform="scale(0.015625)"/>
      <path id="DejaVuSans-2e" d="M 684 794 
L 1344 794 
L 1344 0 
L 684 0 
L 684 794 
z
" transform="scale(0.015625)"/>
      <path id="DejaVuSans-35" d="M 691 4666 
L 3169 4666 
L 3169 4134 
L 1269 4134 
L 1269 2991 
Q 1406 3038 1543 3061 
Q 1681 3084 1819 3084 
Q 2600 3084 3056 2656 
Q 3513 2228 3513 1497 
Q 3513 744 3044 326 
Q 2575 -91 1722 -91 
Q 1428 -91 1123 -41 
Q 819 9 494 109 
L 494 744 
Q 775 591 1075 516 
Q 1375 441 1709 441 
Q 2250 441 2565 725 
Q 2881 1009 2881 1497 
Q 2881 1984 2565 2268 
Q 2250 2553 1709 2553 
Q 1456 2553 1204 2497 
Q 953 2441 691 2322 
L 691 4666 
z
" transform="scale(0.015625)"/>
     </defs>
     <use xlink:href="#DejaVuSans-31" transform="translate(0 0.234375)"/>
     <use xlink:href="#DejaVuSans-20" transform="translate(63.623047 0.234375)"/>
     <use xlink:href="#DejaVuSans-6d" transform="translate(95.410156 0.234375)"/>
     <use xlink:href="#DejaVuSans-6f" transform="translate(192.822266 0.234375)"/>
     <use xlink:href="#DejaVuSans-64" transform="translate(254.003906 0.234375)"/>
     <use xlink:href="#DejaVuSans-75" transform="translate(317.480469 0.234375)"/>
     <use xlink:href="#DejaVuSans-6c" transform="translate(380.859375 0.234375)"/>
     <use xlink:href="#DejaVuSans-65" transform="translate(408.642578 0.234375)"/>
     <use xlink:href="#DejaVuSans-73" transform="translate(470.166016 0.234375)"/>
     <use xlink:href="#DejaVuSans-3a" transform="translate(522.265625 0.234375)"/>
     <use xlink:href="#DejaVuSans-20" transform="translate(555.957031 0.234375)"/>
     <use xlink:href="#DejaVuSans-394" transform="translate(587.744141 0.234375)"/>
     <use xlink:href="#DejaVuSans-Oblique-3b8" transform="translate(656.152344 0.234375)"/>
     <use xlink:href="#DejaVuSans-20" transform="translate(717.333984 0.234375)"/>
     <use xlink:href="#DejaVuSans-3d" transform="translate(749.121094 0.234375)"/>
     <use xlink:href="#DejaVuSans-20" transform="translate(832.910156 0.234375)"/>
     <use xlink:href="#DejaVuSans-32" transform="translate(864.697266 0.234375)"/>
     <use xlink:href="#DejaVuSans-2218" transform="translate(929.277344 38.515625) scale(0.7)"/>
     <use xlink:href="#DejaVuSans-2c" transform="translate(975.830078 0.234375)"/>
     <use xlink:href="#DejaVuSans-20" transform="translate(1007.617188 0.234375)"/>
     <use xlink:href="#DejaVuSans-394" transform="translate(1039.404297 0.234375)"/>
     <use xlink:href="#DejaVuSans-Oblique-3bb" transform="translate(1107.8125 0.234375)"/>
     <use xlink:href="#DejaVuSans-20" transform="translate(1166.992188 0.234375)"/>
     <use xlink:href="#DejaVuSans-3d" transform="translate(1198.779297 0.234375)"/>
     <use xlink:href="#DejaVuSans-20" transform="translate(1282.568359 0.234375)"/>
     <use xlink:href="#DejaVuSans-30" transform="translate(1314.355469 0.234375)"/>
     <use xlink:href="#DejaVuSans-2e" transform="translate(1377.978516 0.234375)"/>
     <use xlink:href="#DejaVuSans-30" transform="translate(1409.765625 0.234375)"/>
     <use xlink:href="#DejaVuSans-35" transform="translate(1473.388672 0.234375)"/>
    </g>
   </g>
   <g id="legend_1">
    <g id="patch_7">
     <path d="M 17.8 255.12 
L 89.960938 255.12 
Q 91.960938 255.12 91.960938 253.12 
L 91.960938 210.085625 
Q 91.960938 208.085625 89.960938 208.085625 
L 17.8 208.085625 
Q 15.8 208.085625 15.8 210.085625 
L 15.8 253.12 
Q 15.8 255.12 17.8 255.12 
z
" style="fill: #ffffff; opacity: 0.8; stroke: #cccccc; stroke-linejoin: miter"/>
    </g>
    <g id="line2d_13">
     <path d="M 19.8 216.184062 
L 29.8 216.184062 
L 39.8 216.184062 
" style="fill: none; stroke: #1f77b4; stroke-width: 2; stroke-linecap: square"/>
    </g>
    <g id="text_10">
     <!-- n = 32 -->
     <g transform="translate(47.8 219.684062) scale(0.1 -0.1)">
      <defs>
       <path id="DejaVuSans-6e" d="M 3513 2113 
L 3513 0 
L 2938 0 
L 2938 2094 
Q 2938 2591 2744 2837 
Q 2550 3084 2163 3084 
Q 1697 3084 1428 2787 
Q 1159 2491 1159 1978 
L 1159 0 
L 581 0 
L 581 3500 
L 1159 3500 
L 1159 2956 
Q 1366 3272 1645 3428 
Q 1925 3584 2291 3584 
Q 2894 3584 3203 3211 
Q 3513 2838 3513 2113 
z
" transform="scale(0.015625)"/>
      </defs>
      <use xlink:href="#DejaVuSans-6e"/>
      <use xlink:href="#DejaVuSans-20" x="63.378906"/>
      <use xlink:href="#DejaVuSans-3d" x="95.166016"/>
      <use xlink:href="#DejaVuSans-20" x="178.955078"/>
      <use xlink:href="#DejaVuSans-33" x="210.742188"/>
      <use xlink:href="#DejaVuSans-32" x="274.365234"/>
     </g>
    </g>
    <g id="line2d_14">
     <path d="M 19.8 230.862187 
L 29.8 230.862187 
L 39.8 230.862187 
" style="fill: none; stroke: #ff7f0e; stroke-width: 2; stroke-linecap: square"/>
    </g>
    <g id="text_11">
     <!-- n = 64 -->
     <g transform="translate(47.8 234.362187) scale(0.1 -0.1)">
      <defs>
       <path id="DejaVuSans-36" d="M 2113 2584 
Q 1688 2584 1439 2293 
Q 1191 2003 1191 1497 
Q 1191 994 1439 701 
Q 1688 409 2113 409 
Q 2538 409 2786 701 
Q 3034 994 3034 1497 
Q 3034 2003 2786 2293 
Q 2538 2584 2113 2584 
z
M 3366 4563 
L 3366 3988 
Q 3128 4100 2886 4159 
Q 2644 4219 2406 4219 
Q 1781 4219 1451 3797 
Q 1122 3375 1075 2522 
Q 1259 2794 1537 2939 
Q 1816 3084 2150 3084 
Q 2853 3084 3261 2657 
Q 3669 2231 3669 1497 
Q 3669 778 3244 343 
Q 2819 -91 2113 -91 
Q 1303 -91 875 529 
Q 447 1150 447 2328 
Q 447 3434 972 4092 
Q 1497 4750 2381 4750 
Q 2619 4750 2861 4703 
Q 3103 4656 3366 4563 
z
" transform="scale(0.015625)"/>
       <path id="DejaVuSans-34" d="M 2419 4116 
L 825 1625 
L 2419 1625 
L 2419 4116 
z
M 2253 4666 
L 3047 4666 
L 3047 1625 
L 3713 1625 
L 3713 1100 
L 3047 1100 
L 3047 0 
L 2419 0 
L 2419 1100 
L 313 1100 
L 313 1709 
L 2253 4666 
z
" transform="scale(0.015625)"/>
      </defs>
      <use xlink:href="#DejaVuSans-6e"/>
      <use xlink:href="#DejaVuSans-20" x="63.378906"/>
      <use xlink:href="#DejaVuSans-3d" x="95.166016"/>
      <use xlink:href="#DejaVuSans-20" x="178.955078"/>
      <use xlink:href="#DejaVuSans-36" x="210.742188"/>
      <use xlink:href="#DejaVuSans-34" x="274.365234"/>
     </g>
    </g>
    <g id="line2d_15">
     <path d="M 19.8 245.540312 
L 29.8 245.540312 
L 39.8 245.540312 
" style="fill: none; stroke: #2ca02c; stroke-width: 2; stroke-linecap: square"/>
    </g>
    <g id="text_12">
     <!-- n = 256 -->
     <g transform="translate(47.8 249.040312) scale(0.1 -0.1)">
      <use xlink:href="#DejaVuSans-6e"/>
      <use xlink:href="#DejaVuSans-20" x="63.378906"/>
      <use xlink:href="#DejaVuSans-3d" x="95.166016"/>
      <use xlink:href="#DejaVuSans-20" x="178.955078"/>
      <use xlink:href="#DejaVuSans-32" x="210.742188"/>
      <use xlink:href="#DejaVuSans-35" x="274.365234"/>
      <use xlink:href="#DejaVuSans-36" x="337.988281"/>
     </g>
    </g>
   </g>
  </g>
  <g id="axes_2">
   <g id="patch_8">
    <path d="M 295.2 260.12 
L 568.8 260.12 
L 568.8 62.9385 
L 295.2 62.9385 
z
" style="fill: #ffffff"/>
   </g>
   <g id="matplotlib.axis_3">
    <g id="xtick_8">
     <g id="line2d_16">
      <g>
       <use xlink:href="#mf4c2d07f0c" x="307.636364" y="260.12" style="stroke: #000000; stroke-width: 0.8"/>
      </g>
     </g>
     <g id="text_13">
      <!-- −3 -->
      <g transform="translate(300.26527 274.718437) scale(0.1 -0.1)">
       <use xlink:href="#DejaVuSans-2212"/>
       <use xlink:href="#DejaVuSans-33" x="83.789062"/>
      </g>
     </g>
    </g>
    <g id="xtick_9">
     <g id="line2d_17">
      <g>
       <use xlink:href="#mf4c2d07f0c" x="349.090909" y="260.12" style="stroke: #000000; stroke-width: 0.8"/>
      </g>
     </g>
     <g id="text_14">
      <!-- −2 -->
      <g transform="translate(341.719815 274.718437) scale(0.1 -0.1)">
       <use xlink:href="#DejaVuSans-2212"/>
       <use xlink:href="#DejaVuSans-32" x="83.789062"/>
      </g>
     </g>
    </g>
    <g id="xtick_10">
     <g id="line2d_18">
      <g>
       <use xlink:href="#mf4c2d07f0c" x="390.545455" y="260.12" style="stroke: #000000; stroke-width: 0.8"/>
      </g>
     </g>
     <g id="text_15">
      <!-- −1 -->
      <g transform="translate(383.174361 274.718437) scale(0.1 -0.1)">
       <use xlink:href="#DejaVuSans-2212"/>
       <use xlink:href="#DejaVuSans-31" x="83.789062"/>
      </g>
     </g>
    </g>
    <g id="xtick_11">
     <g id="line2d_19">
      <g>
       <use xlink:href="#mf4c2d07f0c" x="432" y="260.12" style="stroke: #000000; stroke-width: 0.8"/>
      </g>
     </g>
     <g id="text_16">
      <!-- 0 -->
      <g transform="translate(428.81875 274.718437) scale(0.1 -0.1)">
       <use xlink:href="#DejaVuSans-30"/>
      </g>
     </g>
    </g>
    <g id="xtick_12">
     <g id="line2d_20">
      <g>
       <use xlink:href="#mf4c2d07f0c" x="473.454545" y="260.12" style="stroke: #000000; stroke-width: 0.8"/>
      </g>
     </g>
     <g id="text_17">
      <!-- 1 -->
      <g transform="translate(470.273295 274.718437) scale(0.1 -0.1)">
       <use xlink:href="#DejaVuSans-31"/>
      </g>
     </g>
    </g>
    <g id="xtick_13">
     <g id="line2d_21">
      <g>
       <use xlink:href="#mf4c2d07f0c" x="514.909091" y="260.12" style="stroke: #000000; stroke-width: 0.8"/>
      </g>
     </g>
     <g id="text_18">
      <!-- 2 -->
      <g transform="translate(511.727841 274.718437) scale(0.1 -0.1)">
       <use xlink:href="#DejaVuSans-32"/>
      </g>
     </g>
    </g>
    <g id="xtick_14">
     <g id="line2d_22">
      <g>
       <use xlink:href="#mf4c2d07f0c" x="556.363636" y="260.12" style="stroke: #000000; stroke-width: 0.8"/>
      </g>
     </g>
     <g id="text_19">
      <!-- 3 -->
      <g transform="translate(553.182386 274.718437) scale(0.1 -0.1)">
       <use xlink:href="#DejaVuSans-33"/>
      </g>
     </g>
    </g>
   </g>
   <g id="matplotlib.axis_4">
    <g id="ytick_3">
     <g id="line2d_23">
      <g>
       <use xlink:href="#m5f4a422ea6" x="432" y="260.12" style="stroke: #000000; stroke-width: 0.8"/>
      </g>
     </g>
    </g>
    <g id="ytick_4">
     <g id="line2d_24">
      <g>
       <use xlink:href="#m5f4a422ea6" x="432" y="80.864091" style="stroke: #000000; stroke-width: 0.8"/>
      </g>
     </g>
     <g id="text_20">
      <!-- 1 -->
      <g transform="translate(418.6375 84.66331) scale(0.1 -0.1)">
       <use xlink:href="#DejaVuSans-31"/>
      </g>
     </g>
    </g>
   </g>
   <g id="line2d_25">
    <path d="M 307.636364 80.864091 
L 310.14876 85.248218 
L 312.661157 102.278519 
L 315.173554 130.233012 
L 317.68595 157.263878 
L 320.198347 175.884287 
L 322.710744 185.906139 
L 325.22314 188.946662 
L 327.735537 185.896655 
L 330.247934 176.892124 
L 332.760331 162.279363 
L 335.272727 143.742008 
L 337.785124 124.424964 
L 340.297521 107.551068 
L 342.809917 94.859066 
L 345.322314 86.368516 
L 347.834711 81.598872 
L 350.347107 81.820407 
L 352.859504 91.959032 
L 355.371901 115.553848 
L 357.884298 144.56194 
L 360.396694 167.737021 
L 362.909091 181.863609 
L 365.421488 188.219049 
L 367.933884 188.165138 
L 370.446281 182.136834 
L 372.958678 170.222357 
L 375.471074 153.328605 
L 377.983471 133.958903 
L 380.495868 115.528224 
L 383.008264 100.649203 
L 385.520661 90.129018 
L 388.033058 83.512148 
L 390.545455 80.864091 
L 393.057851 85.248218 
L 395.570248 102.278519 
L 398.082645 130.233012 
L 400.595041 157.263878 
L 403.107438 175.884287 
L 405.619835 185.906139 
L 408.132231 188.946662 
L 410.644628 185.896655 
L 413.157025 176.892124 
L 415.669421 162.279363 
L 418.181818 143.742008 
L 420.694215 124.424964 
L 423.206612 107.551068 
L 425.719008 94.859066 
L 428.231405 86.368516 
L 430.743802 81.598872 
L 433.256198 81.820407 
L 435.768595 91.959032 
L 438.280992 115.553848 
L 440.793388 144.56194 
L 443.305785 167.737021 
L 445.818182 181.863609 
L 448.330579 188.219049 
L 450.842975 188.165138 
L 453.355372 182.136834 
L 455.867769 170.222357 
L 458.380165 153.328605 
L 460.892562 133.958903 
L 463.404959 115.528224 
L 465.917355 100.649203 
L 468.429752 90.129018 
L 470.942149 83.512148 
L 473.454545 80.864091 
L 475.966942 85.248218 
L 478.479339 102.278519 
L 480.991736 130.233012 
L 483.504132 157.263878 
L 486.016529 175.884287 
L 488.528926 185.906139 
L 491.041322 188.946662 
L 493.553719 185.896655 
L 496.066116 176.892124 
L 498.578512 162.279363 
L 501.090909 143.742008 
L 503.603306 124.424964 
L 506.115702 107.551068 
L 508.628099 94.859066 
L 511.140496 86.368516 
L 513.652893 81.598872 
L 516.165289 81.820407 
L 518.677686 91.959032 
L 521.190083 115.553848 
L 523.702479 144.56194 
L 526.214876 167.737021 
L 528.727273 181.863609 
L 531.239669 188.219049 
L 533.752066 188.165138 
L 536.264463 182.136834 
L 538.77686 170.222357 
L 541.289256 153.328605 
L 543.801653 133.958903 
L 546.31405 115.528224 
L 548.826446 100.649203 
L 551.338843 90.129018 
L 553.85124 83.512148 
L 556.363636 80.864091 
" clip-path="url(#p5839dd0e70)" style="fill: none; stroke: #1f77b4; stroke-width: 2; stroke-linecap: square"/>
   </g>
   <g id="line2d_26">
    <path d="M 307.636364 80.864091 
L 310.14876 83.817018 
L 312.661157 92.436341 
L 315.173554 106.22497 
L 317.68595 123.737624 
L 320.198347 142.537444 
L 322.710744 160.022948 
L 325.22314 173.85791 
L 327.735537 181.922122 
L 330.247934 182.686871 
L 332.760331 175.735478 
L 335.272727 161.7546 
L 337.785124 142.496718 
L 340.297521 121.088635 
L 342.809917 101.780032 
L 345.322314 88.198478 
L 347.834711 81.642761 
L 350.347107 81.612644 
L 352.859504 87.436859 
L 355.371901 98.745311 
L 357.884298 114.653431 
L 360.396694 133.1448 
L 362.909091 151.595943 
L 365.421488 167.535422 
L 367.933884 178.728948 
L 370.446281 183.271358 
L 372.958678 180.156168 
L 375.471074 169.541955 
L 377.983471 152.625601 
L 380.495868 131.808759 
L 383.008264 110.902644 
L 385.520661 94.131641 
L 388.033058 84.052313 
L 390.545455 80.864091 
L 393.057851 83.817018 
L 395.570248 92.436341 
L 398.082645 106.22497 
L 400.595041 123.737624 
L 403.107438 142.537444 
L 405.619835 160.022948 
L 408.132231 173.85791 
L 410.644628 181.922122 
L 413.157025 182.686871 
L 415.669421 175.735478 
L 418.181818 161.7546 
L 420.694215 142.496718 
L 423.206612 121.088635 
L 425.719008 101.780032 
L 428.231405 88.198478 
L 430.743802 81.642761 
L 433.256198 81.612644 
L 435.768595 87.436859 
L 438.280992 98.745311 
L 440.793388 114.653431 
L 443.305785 133.1448 
L 445.818182 151.595943 
L 448.330579 167.535422 
L 450.842975 178.728948 
L 453.355372 183.271358 
L 455.867769 180.156168 
L 458.380165 169.541955 
L 460.892562 152.625601 
L 463.404959 131.808759 
L 465.917355 110.902644 
L 468.429752 94.131641 
L 470.942149 84.052313 
L 473.454545 80.864091 
L 475.966942 83.817018 
L 478.479339 92.436341 
L 480.991736 106.22497 
L 483.504132 123.737624 
L 486.016529 142.537444 
L 488.528926 160.022948 
L 491.041322 173.85791 
L 493.553719 181.922122 
L 496.066116 182.686871 
L 498.578512 175.735478 
L 501.090909 161.7546 
L 503.603306 142.496718 
L 506.115702 121.088635 
L 508.628099 101.780032 
L 511.140496 88.198478 
L 513.652893 81.642761 
L 516.165289 81.612644 
L 518.677686 87.436859 
L 521.190083 98.745311 
L 523.702479 114.653431 
L 526.214876 133.1448 
L 528.727273 151.595943 
L 531.239669 167.535422 
L 533.752066 178.728948 
L 536.264463 183.271358 
L 538.77686 180.156168 
L 541.289256 169.541955 
L 543.801653 152.625601 
L 546.31405 131.808759 
L 548.826446 110.902644 
L 551.338843 94.131641 
L 553.85124 84.052313 
L 556.363636 80.864091 
" clip-path="url(#p5839dd0e70)" style="fill: none; stroke: #ff7f0e; stroke-width: 2; stroke-linecap: square"/>
   </g>
   <g id="line2d_27">
    <path d="M 307.636364 80.864091 
L 310.14876 84.33061 
L 312.661157 94.344243 
L 315.173554 109.702286 
L 317.68595 128.430044 
L 320.198347 147.925476 
L 322.710744 165.260604 
L 325.22314 177.682036 
L 327.735537 183.151342 
L 330.247934 180.739528 
L 332.760331 170.889095 
L 335.272727 155.40401 
L 337.785124 136.881108 
L 340.297521 117.979416 
L 342.809917 101.136111 
L 345.322314 88.503351 
L 347.834711 81.73347 
L 350.347107 81.736121 
L 352.859504 88.575061 
L 355.371901 101.461723 
L 357.884298 118.795382 
L 360.396694 138.262197 
L 362.909091 157.04605 
L 365.421488 172.235157 
L 367.933884 181.373351 
L 370.446281 182.937245 
L 372.958678 176.659461 
L 375.471074 163.697223 
L 377.983471 146.351688 
L 380.495868 127.319735 
L 383.008264 109.157606 
L 385.520661 94.175029 
L 388.033058 84.309369 
L 390.545455 80.864091 
L 393.057851 84.33061 
L 395.570248 94.344243 
L 398.082645 109.702286 
L 400.595041 128.430044 
L 403.107438 147.925476 
L 405.619835 165.260604 
L 408.132231 177.682036 
L 410.644628 183.151342 
L 413.157025 180.739528 
L 415.669421 170.889095 
L 418.181818 155.40401 
L 420.694215 136.881108 
L 423.206612 117.979416 
L 425.719008 101.136111 
L 428.231405 88.503351 
L 430.743802 81.73347 
L 433.256198 81.736121 
L 435.768595 88.575061 
L 438.280992 101.461723 
L 440.793388 118.795382 
L 443.305785 138.262197 
L 445.818182 157.04605 
L 448.330579 172.235157 
L 450.842975 181.373351 
L 453.355372 182.937245 
L 455.867769 176.659461 
L 458.380165 163.697223 
L 460.892562 146.351688 
L 463.404959 127.319735 
L 465.917355 109.157606 
L 468.429752 94.175029 
L 470.942149 84.309369 
L 473.454545 80.864091 
L 475.966942 84.33061 
L 478.479339 94.344243 
L 480.991736 109.702286 
L 483.504132 128.430044 
L 486.016529 147.925476 
L 488.528926 165.260604 
L 491.041322 177.682036 
L 493.553719 183.151342 
L 496.066116 180.739528 
L 498.578512 170.889095 
L 501.090909 155.40401 
L 503.603306 136.881108 
L 506.115702 117.979416 
L 508.628099 101.136111 
L 511.140496 88.503351 
L 513.652893 81.73347 
L 516.165289 81.736121 
L 518.677686 88.575061 
L 521.190083 101.461723 
L 523.702479 118.795382 
L 526.214876 138.262197 
L 528.727273 157.04605 
L 531.239669 172.235157 
L 533.752066 181.373351 
L 536.264463 182.937245 
L 538.77686 176.659461 
L 541.289256 163.697223 
L 543.801653 146.351688 
L 546.31405 127.319735 
L 548.826446 109.157606 
L 551.338843 94.175029 
L 553.85124 84.309369 
L 556.363636 80.864091 
" clip-path="url(#p5839dd0e70)" style="fill: none; stroke: #2ca02c; stroke-width: 2; stroke-linecap: square"/>
   </g>
   <g id="patch_9">
    <path d="M 432 260.12 
L 432 62.9385 
" style="fill: none; stroke: #000000; stroke-width: 0.8; stroke-linejoin: miter; stroke-linecap: square"/>
   </g>
   <g id="patch_10">
    <path d="M 568.8 260.12 
L 568.8 62.9385 
" style="fill: none"/>
   </g>
   <g id="patch_11">
    <path d="M 295.2 260.12 
L 568.8 260.12 
" style="fill: none; stroke: #000000; stroke-width: 0.8; stroke-linejoin: miter; stroke-linecap: square"/>
   </g>
   <g id="patch_12">
    <path d="M 295.2 62.9385 
L 568.8 62.9385 
" style="fill: none"/>
   </g>
   <g id="text_21">
    <!-- 1 modules: $\Delta \theta$ = 0$^{\circ}$, $\Delta \lambda$ = 0 -->
    <g transform="translate(349.32 56.9385) scale(0.12 -0.12)">
     <use xlink:href="#DejaVuSans-31" transform="translate(0 0.234375)"/>
     <use xlink:href="#DejaVuSans-20" transform="translate(63.623047 0.234375)"/>
     <use xlink:href="#DejaVuSans-6d" transform="translate(95.410156 0.234375)"/>
     <use xlink:href="#DejaVuSans-6f" transform="translate(192.822266 0.234375)"/>
     <use xlink:href="#DejaVuSans-64" transform="translate(254.003906 0.234375)"/>
     <use xlink:href="#DejaVuSans-75" transform="translate(317.480469 0.234375)"/>
     <use xlink:href="#DejaVuSans-6c" transform="translate(380.859375 0.234375)"/>
     <use xlink:href="#DejaVuSans-65" transform="translate(408.642578 0.234375)"/>
     <use xlink:href="#DejaVuSans-73" transform="translate(470.166016 0.234375)"/>
     <use xlink:href="#DejaVuSans-3a" transform="translate(522.265625 0.234375)"/>
     <use xlink:href="#DejaVuSans-20" transform="translate(555.957031 0.234375)"/>
     <use xlink:href="#DejaVuSans-394" transform="translate(587.744141 0.234375)"/>
     <use xlink:href="#DejaVuSans-Oblique-3b8" transform="translate(656.152344 0.234375)"/>
     <use xlink:href="#DejaVuSans-20" transform="translate(717.333984 0.234375)"/>
     <use xlink:href="#DejaVuSans-3d" transform="translate(749.121094 0.234375)"/>
     <use xlink:href="#DejaVuSans-20" transform="translate(832.910156 0.234375)"/>
     <use xlink:href="#DejaVuSans-30" transform="translate(864.697266 0.234375)"/>
     <use xlink:href="#DejaVuSans-2218" transform="translate(929.277344 38.515625) scale(0.7)"/>
     <use xlink:href="#DejaVuSans-2c" transform="translate(975.830078 0.234375)"/>
     <use xlink:href="#DejaVuSans-20" transform="translate(1007.617188 0.234375)"/>
     <use xlink:href="#DejaVuSans-394" transform="translate(1039.404297 0.234375)"/>
     <use xlink:href="#DejaVuSans-Oblique-3bb" transform="translate(1107.8125 0.234375)"/>
     <use xlink:href="#DejaVuSans-20" transform="translate(1166.992188 0.234375)"/>
     <use xlink:href="#DejaVuSans-3d" transform="translate(1198.779297 0.234375)"/>
     <use xlink:href="#DejaVuSans-20" transform="translate(1282.568359 0.234375)"/>
     <use xlink:href="#DejaVuSans-30" transform="translate(1314.355469 0.234375)"/>
    </g>
   </g>
   <g id="legend_2">
    <g id="patch_13">
     <path d="M 302.2 255.12 
L 374.360938 255.12 
Q 376.360938 255.12 376.360938 253.12 
L 376.360938 210.085625 
Q 376.360938 208.085625 374.360938 208.085625 
L 302.2 208.085625 
Q 300.2 208.085625 300.2 210.085625 
L 300.2 253.12 
Q 300.2 255.12 302.2 255.12 
z
" style="fill: #ffffff; opacity: 0.8; stroke: #cccccc; stroke-linejoin: miter"/>
    </g>
    <g id="line2d_28">
     <path d="M 304.2 216.184062 
L 314.2 216.184062 
L 324.2 216.184062 
" style="fill: none; stroke: #1f77b4; stroke-width: 2; stroke-linecap: square"/>
    </g>
    <g id="text_22">
     <!-- n = 32 -->
     <g transform="translate(332.2 219.684062) scale(0.1 -0.1)">
      <use xlink:href="#DejaVuSans-6e"/>
      <use xlink:href="#DejaVuSans-20" x="63.378906"/>
      <use xlink:href="#DejaVuSans-3d" x="95.166016"/>
      <use xlink:href="#DejaVuSans-20" x="178.955078"/>
      <use xlink:href="#DejaVuSans-33" x="210.742188"/>
      <use xlink:href="#DejaVuSans-32" x="274.365234"/>
     </g>
    </g>
    <g id="line2d_29">
     <path d="M 304.2 230.862187 
L 314.2 230.862187 
L 324.2 230.862187 
" style="fill: none; stroke: #ff7f0e; stroke-width: 2; stroke-linecap: square"/>
    </g>
    <g id="text_23">
     <!-- n = 64 -->
     <g transform="translate(332.2 234.362187) scale(0.1 -0.1)">
      <use xlink:href="#DejaVuSans-6e"/>
      <use xlink:href="#DejaVuSans-20" x="63.378906"/>
      <use xlink:href="#DejaVuSans-3d" x="95.166016"/>
      <use xlink:href="#DejaVuSans-20" x="178.955078"/>
      <use xlink:href="#DejaVuSans-36" x="210.742188"/>
      <use xlink:href="#DejaVuSans-34" x="274.365234"/>
     </g>
    </g>
    <g id="line2d_30">
     <path d="M 304.2 245.540312 
L 314.2 245.540312 
L 324.2 245.540312 
" style="fill: none; stroke: #2ca02c; stroke-width: 2; stroke-linecap: square"/>
    </g>
    <g id="text_24">
     <!-- n = 256 -->
     <g transform="translate(332.2 249.040312) scale(0.1 -0.1)">
      <use xlink:href="#DejaVuSans-6e"/>
      <use xlink:href="#DejaVuSans-20" x="63.378906"/>
      <use xlink:href="#DejaVuSans-3d" x="95.166016"/>
      <use xlink:href="#DejaVuSans-20" x="178.955078"/>
      <use xlink:href="#DejaVuSans-32" x="210.742188"/>
      <use xlink:href="#DejaVuSans-35" x="274.365234"/>
      <use xlink:href="#DejaVuSans-36" x="337.988281"/>
     </g>
    </g>
   </g>
  </g>
  <g id="axes_3">
   <g id="patch_14">
    <path d="M 579.6 260.12 
L 853.2 260.12 
L 853.2 62.9385 
L 579.6 62.9385 
z
" style="fill: #ffffff"/>
   </g>
   <g id="matplotlib.axis_5">
    <g id="xtick_15">
     <g id="line2d_31">
      <g>
       <use xlink:href="#mf4c2d07f0c" x="592.036364" y="260.12" style="stroke: #000000; stroke-width: 0.8"/>
      </g>
     </g>
     <g id="text_25">
      <!-- −3 -->
      <g transform="translate(584.66527 274.718437) scale(0.1 -0.1)">
       <use xlink:href="#DejaVuSans-2212"/>
       <use xlink:href="#DejaVuSans-33" x="83.789062"/>
      </g>
     </g>
    </g>
    <g id="xtick_16">
     <g id="line2d_32">
      <g>
       <use xlink:href="#mf4c2d07f0c" x="633.490909" y="260.12" style="stroke: #000000; stroke-width: 0.8"/>
      </g>
     </g>
     <g id="text_26">
      <!-- −2 -->
      <g transform="translate(626.119815 274.718437) scale(0.1 -0.1)">
       <use xlink:href="#DejaVuSans-2212"/>
       <use xlink:href="#DejaVuSans-32" x="83.789062"/>
      </g>
     </g>
    </g>
    <g id="xtick_17">
     <g id="line2d_33">
      <g>
       <use xlink:href="#mf4c2d07f0c" x="674.945455" y="260.12" style="stroke: #000000; stroke-width: 0.8"/>
      </g>
     </g>
     <g id="text_27">
      <!-- −1 -->
      <g transform="translate(667.574361 274.718437) scale(0.1 -0.1)">
       <use xlink:href="#DejaVuSans-2212"/>
       <use xlink:href="#DejaVuSans-31" x="83.789062"/>
      </g>
     </g>
    </g>
    <g id="xtick_18">
     <g id="line2d_34">
      <g>
       <use xlink:href="#mf4c2d07f0c" x="716.4" y="260.12" style="stroke: #000000; stroke-width: 0.8"/>
      </g>
     </g>
     <g id="text_28">
      <!-- 0 -->
      <g transform="translate(713.21875 274.718437) scale(0.1 -0.1)">
       <use xlink:href="#DejaVuSans-30"/>
      </g>
     </g>
    </g>
    <g id="xtick_19">
     <g id="line2d_35">
      <g>
       <use xlink:href="#mf4c2d07f0c" x="757.854545" y="260.12" style="stroke: #000000; stroke-width: 0.8"/>
      </g>
     </g>
     <g id="text_29">
      <!-- 1 -->
      <g transform="translate(754.673295 274.718437) scale(0.1 -0.1)">
       <use xlink:href="#DejaVuSans-31"/>
      </g>
     </g>
    </g>
    <g id="xtick_20">
     <g id="line2d_36">
      <g>
       <use xlink:href="#mf4c2d07f0c" x="799.309091" y="260.12" style="stroke: #000000; stroke-width: 0.8"/>
      </g>
     </g>
     <g id="text_30">
      <!-- 2 -->
      <g transform="translate(796.127841 274.718437) scale(0.1 -0.1)">
       <use xlink:href="#DejaVuSans-32"/>
      </g>
     </g>
    </g>
    <g id="xtick_21">
     <g id="line2d_37">
      <g>
       <use xlink:href="#mf4c2d07f0c" x="840.763636" y="260.12" style="stroke: #000000; stroke-width: 0.8"/>
      </g>
     </g>
     <g id="text_31">
      <!-- 3 -->
      <g transform="translate(837.582386 274.718437) scale(0.1 -0.1)">
       <use xlink:href="#DejaVuSans-33"/>
      </g>
     </g>
    </g>
   </g>
   <g id="matplotlib.axis_6">
    <g id="ytick_5">
     <g id="line2d_38">
      <g>
       <use xlink:href="#m5f4a422ea6" x="716.4" y="260.12" style="stroke: #000000; stroke-width: 0.8"/>
      </g>
     </g>
    </g>
    <g id="ytick_6">
     <g id="line2d_39">
      <g>
       <use xlink:href="#m5f4a422ea6" x="716.4" y="80.864091" style="stroke: #000000; stroke-width: 0.8"/>
      </g>
     </g>
     <g id="text_32">
      <!-- 1 -->
      <g transform="translate(703.0375 84.66331) scale(0.1 -0.1)">
       <use xlink:href="#DejaVuSans-31"/>
      </g>
     </g>
    </g>
   </g>
   <g id="line2d_40">
    <path d="M 592.036364 88.428046 
L 594.54876 84.942272 
L 597.061157 85.634852 
L 599.573554 90.586079 
L 602.08595 99.128594 
L 604.598347 109.439579 
L 607.110744 118.89947 
L 609.62314 125.211741 
L 612.135537 127.155556 
L 614.647934 124.66566 
L 617.160331 118.689796 
L 619.672727 110.879506 
L 622.185124 102.906679 
L 624.697521 95.913017 
L 627.209917 90.788828 
L 629.722314 88.617157 
L 632.234711 90.15215 
L 634.747107 94.870108 
L 637.259504 101.137057 
L 639.771901 107.292303 
L 642.284298 112.292663 
L 644.796694 115.657121 
L 647.309091 117.201377 
L 649.821488 116.863727 
L 652.333884 114.695551 
L 654.846281 111.040675 
L 657.358678 106.853366 
L 659.871074 103.748654 
L 662.383471 103.033998 
L 664.895868 104.227764 
L 667.408264 105.304754 
L 669.920661 104.538153 
L 672.433058 101.585192 
L 674.945455 97.406125 
L 677.457851 93.749595 
L 679.970248 92.431101 
L 682.482645 94.514654 
L 684.995041 99.836138 
L 687.507438 107.19164 
L 690.019835 114.948429 
L 692.532231 121.611979 
L 695.044628 126.1075 
L 697.557025 127.770972 
L 700.069421 126.20715 
L 702.581818 121.274282 
L 705.094215 113.321408 
L 707.606612 103.484858 
L 710.119008 93.637457 
L 712.631405 85.79011 
L 715.143802 81.43731 
L 717.656198 81.452254 
L 720.168595 86.127724 
L 722.680992 94.71946 
L 725.193388 105.135617 
L 727.705785 114.697883 
L 730.218182 121.306926 
L 732.730579 123.942304 
L 735.242975 122.597973 
L 737.755372 118.164879 
L 740.267769 112.252981 
L 742.780165 106.617067 
L 745.292562 102.417421 
L 747.804959 100.094133 
L 750.317355 99.695503 
L 752.829752 100.799352 
L 755.342149 102.345372 
L 757.854545 103.182351 
L 760.366942 102.870495 
L 762.879339 101.964734 
L 765.391736 101.661991 
L 767.904132 102.946453 
L 770.416529 105.757264 
L 772.928926 109.027242 
L 775.441322 111.602042 
L 777.953719 113.160349 
L 780.466116 114.378784 
L 782.978512 115.898495 
L 785.490909 116.940016 
L 788.003306 115.692181 
L 790.515702 111.054567 
L 793.028099 103.60981 
L 795.540496 95.422633 
L 798.052893 88.982597 
L 800.565289 85.984058 
L 803.077686 87.053279 
L 805.590083 92.211463 
L 808.102479 100.853452 
L 810.614876 111.272028 
L 813.127273 120.915093 
L 815.639669 127.460983 
L 818.152066 129.584399 
L 820.664463 127.065495 
L 823.17686 120.717221 
L 825.689256 112.208159 
L 828.201653 103.383477 
L 830.71405 95.44258 
L 833.226446 89.120783 
L 835.738843 85.529686 
L 838.25124 85.859973 
L 840.763636 89.917893 
" clip-path="url(#p2d0c20f5cc)" style="fill: none; stroke: #1f77b4; stroke-width: 2; stroke-linecap: square"/>
   </g>
   <g id="line2d_41">
    <path d="M 592.036364 89.367333 
L 594.54876 85.624315 
L 597.061157 86.111844 
L 599.573554 91.129239 
L 602.08595 99.879993 
L 604.598347 110.470217 
L 607.110744 120.488921 
L 609.62314 127.90158 
L 612.135537 131.53283 
L 614.647934 131.080826 
L 617.160331 127.037825 
L 619.672727 120.566747 
L 622.185124 113.128085 
L 624.697521 106.029724 
L 627.209917 100.3392 
L 629.722314 97.045322 
L 632.234711 96.985006 
L 634.747107 100.416693 
L 637.259504 106.595715 
L 639.771901 113.844659 
L 642.284298 120.210734 
L 644.796694 124.224367 
L 647.309091 125.280568 
L 649.821488 123.582496 
L 652.333884 119.827769 
L 654.846281 114.92412 
L 657.358678 109.905093 
L 659.871074 105.801736 
L 662.383471 103.263789 
L 664.895868 102.27547 
L 667.408264 102.302142 
L 669.920661 102.667435 
L 672.433058 102.869577 
L 674.945455 102.813074 
L 677.457851 102.976956 
L 679.970248 104.330791 
L 682.482645 107.743019 
L 684.995041 113.201809 
L 687.507438 119.731983 
L 690.019835 126.050885 
L 692.532231 131.07817 
L 695.044628 133.981315 
L 697.557025 134.094872 
L 700.069421 130.952049 
L 702.581818 124.44804 
L 705.094215 115.098249 
L 707.606612 104.240339 
L 710.119008 93.84365 
L 712.631405 85.817954 
L 715.143802 81.439915 
L 717.656198 81.460627 
L 720.168595 86.307412 
L 722.680992 95.572723 
L 725.193388 107.401304 
L 727.705785 119.028847 
L 730.218182 128.060975 
L 732.730579 133.166543 
L 735.242975 134.053243 
L 737.755372 131.287642 
L 740.267769 126.075435 
L 742.780165 119.809651 
L 745.292562 113.622173 
L 747.804959 108.369997 
L 750.317355 104.794427 
L 752.829752 103.333486 
L 755.342149 103.748124 
L 757.854545 105.131312 
L 760.366942 106.416988 
L 762.879339 107.016959 
L 765.391736 107.208474 
L 767.904132 107.8848 
L 770.416529 109.556932 
L 772.928926 111.711821 
L 775.441322 113.515076 
L 777.953719 114.732008 
L 780.466116 115.655169 
L 782.978512 116.39065 
L 785.490909 116.470912 
L 788.003306 115.185737 
L 790.515702 112.166918 
L 793.028099 107.725346 
L 795.540496 102.842043 
L 798.052893 98.859227 
L 800.565289 97.029924 
L 803.077686 98.23389 
L 805.590083 102.896868 
L 808.102479 110.72611 
L 810.614876 120.293416 
L 813.127273 129.261157 
L 815.639669 135.357496 
L 818.152066 137.122722 
L 820.664463 134.066293 
L 823.17686 126.708091 
L 825.689256 116.613735 
L 828.201653 105.922039 
L 830.71405 96.436116 
L 833.226446 89.300297 
L 835.738843 85.374778 
L 838.25124 85.34502 
L 840.763636 89.309545 
" clip-path="url(#p2d0c20f5cc)" style="fill: none; stroke: #ff7f0e; stroke-width: 2; stroke-linecap: square"/>
   </g>
   <g id="line2d_42">
    <path d="M 592.036364 90.473881 
L 594.54876 86.212017 
L 597.061157 85.651723 
L 599.573554 89.176365 
L 602.08595 96.320402 
L 604.598347 105.756839 
L 607.110744 115.571208 
L 609.62314 123.831669 
L 612.135537 129.149987 
L 614.647934 130.943576 
L 617.160331 129.406875 
L 619.672727 125.304464 
L 622.185124 119.659412 
L 624.697521 113.503116 
L 627.209917 107.867006 
L 629.722314 103.884834 
L 632.234711 102.606002 
L 634.747107 104.381847 
L 637.259504 108.385198 
L 639.771901 112.954397 
L 642.284298 116.499218 
L 644.796694 118.145222 
L 647.309091 117.828221 
L 649.821488 116.033809 
L 652.333884 113.411845 
L 654.846281 110.49751 
L 657.358678 107.712049 
L 659.871074 105.518306 
L 662.383471 104.383927 
L 664.895868 104.445064 
L 667.408264 105.271194 
L 669.920661 106.146769 
L 672.433058 106.653831 
L 674.945455 107.000254 
L 677.457851 107.810167 
L 679.970248 109.555732 
L 682.482645 112.204975 
L 684.995041 115.446725 
L 687.507438 119.101432 
L 690.019835 123.136763 
L 692.532231 127.245759 
L 695.044628 130.509903 
L 697.557025 131.636903 
L 700.069421 129.569772 
L 702.581818 123.943677 
L 705.094215 115.2539 
L 707.606612 104.814158 
L 710.119008 94.476048 
L 712.631405 86.163087 
L 715.143802 81.482644 
L 717.656198 81.492806 
L 720.168595 86.38605 
L 722.680992 95.147814 
L 725.193388 105.735204 
L 727.705785 115.910633 
L 730.218182 124.063579 
L 732.730579 129.469419 
L 735.242975 132.059342 
L 737.755372 132.03239 
L 740.267769 129.62557 
L 742.780165 125.204987 
L 745.292562 119.532217 
L 747.804959 113.855859 
L 750.317355 109.534141 
L 752.829752 107.290906 
L 755.342149 106.777597 
L 757.854545 106.943396 
L 760.366942 106.810126 
L 762.879339 105.987246 
L 765.391736 104.734076 
L 767.904132 103.695867 
L 770.416529 103.523057 
L 772.928926 104.605446 
L 775.441322 106.994647 
L 777.953719 110.386698 
L 780.466116 114.114356 
L 782.978512 117.265531 
L 785.490909 118.96585 
L 788.003306 118.696734 
L 790.515702 116.512444 
L 793.028099 113.067955 
L 795.540496 109.379951 
L 798.052893 106.401369 
L 800.565289 104.759529 
L 803.077686 104.862856 
L 805.590083 107.064329 
L 808.102479 111.477402 
L 810.614876 117.538875 
L 813.127273 123.86847 
L 815.639669 128.725127 
L 818.152066 130.671592 
L 820.664463 128.957871 
L 823.17686 123.604203 
L 825.689256 115.378577 
L 828.201653 105.69956 
L 830.71405 96.373552 
L 833.226446 89.20107 
L 835.738843 85.601425 
L 838.25124 86.279396 
L 840.763636 90.931249 
" clip-path="url(#p2d0c20f5cc)" style="fill: none; stroke: #2ca02c; stroke-width: 2; stroke-linecap: square"/>
   </g>
   <g id="patch_15">
    <path d="M 716.4 260.12 
L 716.4 62.9385 
" style="fill: none; stroke: #000000; stroke-width: 0.8; stroke-linejoin: miter; stroke-linecap: square"/>
   </g>
   <g id="patch_16">
    <path d="M 853.2 260.12 
L 853.2 62.9385 
" style="fill: none"/>
   </g>
   <g id="patch_17">
    <path d="M 579.6 260.12 
L 853.2 260.12 
" style="fill: none; stroke: #000000; stroke-width: 0.8; stroke-linejoin: miter; stroke-linecap: square"/>
   </g>
   <g id="patch_18">
    <path d="M 579.6 62.9385 
L 853.2 62.9385 
" style="fill: none"/>
   </g>
   <g id="text_33">
    <!-- 3 modules: $\Delta \theta$ = 0$^{\circ}$, $\Delta \lambda$ = 0 -->
    <g transform="translate(633.72 56.9385) scale(0.12 -0.12)">
     <use xlink:href="#DejaVuSans-33" transform="translate(0 0.234375)"/>
     <use xlink:href="#DejaVuSans-20" transform="translate(63.623047 0.234375)"/>
     <use xlink:href="#DejaVuSans-6d" transform="translate(95.410156 0.234375)"/>
     <use xlink:href="#DejaVuSans-6f" transform="translate(192.822266 0.234375)"/>
     <use xlink:href="#DejaVuSans-64" transform="translate(254.003906 0.234375)"/>
     <use xlink:href="#DejaVuSans-75" transform="translate(317.480469 0.234375)"/>
     <use xlink:href="#DejaVuSans-6c" transform="translate(380.859375 0.234375)"/>
     <use xlink:href="#DejaVuSans-65" transform="translate(408.642578 0.234375)"/>
     <use xlink:href="#DejaVuSans-73" transform="translate(470.166016 0.234375)"/>
     <use xlink:href="#DejaVuSans-3a" transform="translate(522.265625 0.234375)"/>
     <use xlink:href="#DejaVuSans-20" transform="translate(555.957031 0.234375)"/>
     <use xlink:href="#DejaVuSans-394" transform="translate(587.744141 0.234375)"/>
     <use xlink:href="#DejaVuSans-Oblique-3b8" transform="translate(656.152344 0.234375)"/>
     <use xlink:href="#DejaVuSans-20" transform="translate(717.333984 0.234375)"/>
     <use xlink:href="#DejaVuSans-3d" transform="translate(749.121094 0.234375)"/>
     <use xlink:href="#DejaVuSans-20" transform="translate(832.910156 0.234375)"/>
     <use xlink:href="#DejaVuSans-30" transform="translate(864.697266 0.234375)"/>
     <use xlink:href="#DejaVuSans-2218" transform="translate(929.277344 38.515625) scale(0.7)"/>
     <use xlink:href="#DejaVuSans-2c" transform="translate(975.830078 0.234375)"/>
     <use xlink:href="#DejaVuSans-20" transform="translate(1007.617188 0.234375)"/>
     <use xlink:href="#DejaVuSans-394" transform="translate(1039.404297 0.234375)"/>
     <use xlink:href="#DejaVuSans-Oblique-3bb" transform="translate(1107.8125 0.234375)"/>
     <use xlink:href="#DejaVuSans-20" transform="translate(1166.992188 0.234375)"/>
     <use xlink:href="#DejaVuSans-3d" transform="translate(1198.779297 0.234375)"/>
     <use xlink:href="#DejaVuSans-20" transform="translate(1282.568359 0.234375)"/>
     <use xlink:href="#DejaVuSans-30" transform="translate(1314.355469 0.234375)"/>
    </g>
   </g>
   <g id="legend_3">
    <g id="patch_19">
     <path d="M 586.6 255.12 
L 658.760938 255.12 
Q 660.760938 255.12 660.760938 253.12 
L 660.760938 210.085625 
Q 660.760938 208.085625 658.760938 208.085625 
L 586.6 208.085625 
Q 584.6 208.085625 584.6 210.085625 
L 584.6 253.12 
Q 584.6 255.12 586.6 255.12 
z
" style="fill: #ffffff; opacity: 0.8; stroke: #cccccc; stroke-linejoin: miter"/>
    </g>
    <g id="line2d_43">
     <path d="M 588.6 216.184062 
L 598.6 216.184062 
L 608.6 216.184062 
" style="fill: none; stroke: #1f77b4; stroke-width: 2; stroke-linecap: square"/>
    </g>
    <g id="text_34">
     <!-- n = 32 -->
     <g transform="translate(616.6 219.684062) scale(0.1 -0.1)">
      <use xlink:href="#DejaVuSans-6e"/>
      <use xlink:href="#DejaVuSans-20" x="63.378906"/>
      <use xlink:href="#DejaVuSans-3d" x="95.166016"/>
      <use xlink:href="#DejaVuSans-20" x="178.955078"/>
      <use xlink:href="#DejaVuSans-33" x="210.742188"/>
      <use xlink:href="#DejaVuSans-32" x="274.365234"/>
     </g>
    </g>
    <g id="line2d_44">
     <path d="M 588.6 230.862187 
L 598.6 230.862187 
L 608.6 230.862187 
" style="fill: none; stroke: #ff7f0e; stroke-width: 2; stroke-linecap: square"/>
    </g>
    <g id="text_35">
     <!-- n = 64 -->
     <g transform="translate(616.6 234.362187) scale(0.1 -0.1)">
      <use xlink:href="#DejaVuSans-6e"/>
      <use xlink:href="#DejaVuSans-20" x="63.378906"/>
      <use xlink:href="#DejaVuSans-3d" x="95.166016"/>
      <use xlink:href="#DejaVuSans-20" x="178.955078"/>
      <use xlink:href="#DejaVuSans-36" x="210.742188"/>
      <use xlink:href="#DejaVuSans-34" x="274.365234"/>
     </g>
    </g>
    <g id="line2d_45">
     <path d="M 588.6 245.540312 
L 598.6 245.540312 
L 608.6 245.540312 
" style="fill: none; stroke: #2ca02c; stroke-width: 2; stroke-linecap: square"/>
    </g>
    <g id="text_36">
     <!-- n = 256 -->
     <g transform="translate(616.6 249.040312) scale(0.1 -0.1)">
      <use xlink:href="#DejaVuSans-6e"/>
      <use xlink:href="#DejaVuSans-20" x="63.378906"/>
      <use xlink:href="#DejaVuSans-3d" x="95.166016"/>
      <use xlink:href="#DejaVuSans-20" x="178.955078"/>
      <use xlink:href="#DejaVuSans-32" x="210.742188"/>
      <use xlink:href="#DejaVuSans-35" x="274.365234"/>
      <use xlink:href="#DejaVuSans-36" x="337.988281"/>
     </g>
    </g>
   </g>
  </g>
  <g id="text_37">
   <!-- Orientation = 30 -->
   <g transform="translate(381.650625 23.518125) scale(0.12 -0.12)">
    <defs>
     <path id="DejaVuSans-4f" d="M 2522 4238 
Q 1834 4238 1429 3725 
Q 1025 3213 1025 2328 
Q 1025 1447 1429 934 
Q 1834 422 2522 422 
Q 3209 422 3611 934 
Q 4013 1447 4013 2328 
Q 4013 3213 3611 3725 
Q 3209 4238 2522 4238 
z
M 2522 4750 
Q 3503 4750 4090 4092 
Q 4678 3434 4678 2328 
Q 4678 1225 4090 567 
Q 3503 -91 2522 -91 
Q 1538 -91 948 565 
Q 359 1222 359 2328 
Q 359 3434 948 4092 
Q 1538 4750 2522 4750 
z
" transform="scale(0.015625)"/>
     <path id="DejaVuSans-72" d="M 2631 2963 
Q 2534 3019 2420 3045 
Q 2306 3072 2169 3072 
Q 1681 3072 1420 2755 
Q 1159 2438 1159 1844 
L 1159 0 
L 581 0 
L 581 3500 
L 1159 3500 
L 1159 2956 
Q 1341 3275 1631 3429 
Q 1922 3584 2338 3584 
Q 2397 3584 2469 3576 
Q 2541 3569 2628 3553 
L 2631 2963 
z
" transform="scale(0.015625)"/>
     <path id="DejaVuSans-69" d="M 603 3500 
L 1178 3500 
L 1178 0 
L 603 0 
L 603 3500 
z
M 603 4863 
L 1178 4863 
L 1178 4134 
L 603 4134 
L 603 4863 
z
" transform="scale(0.015625)"/>
     <path id="DejaVuSans-74" d="M 1172 4494 
L 1172 3500 
L 2356 3500 
L 2356 3053 
L 1172 3053 
L 1172 1153 
Q 1172 725 1289 603 
Q 1406 481 1766 481 
L 2356 481 
L 2356 0 
L 1766 0 
Q 1100 0 847 248 
Q 594 497 594 1153 
L 594 3053 
L 172 3053 
L 172 3500 
L 594 3500 
L 594 4494 
L 1172 4494 
z
" transform="scale(0.015625)"/>
     <path id="DejaVuSans-61" d="M 2194 1759 
Q 1497 1759 1228 1600 
Q 959 1441 959 1056 
Q 959 750 1161 570 
Q 1363 391 1709 391 
Q 2188 391 2477 730 
Q 2766 1069 2766 1631 
L 2766 1759 
L 2194 1759 
z
M 3341 1997 
L 3341 0 
L 2766 0 
L 2766 531 
Q 2569 213 2275 61 
Q 1981 -91 1556 -91 
Q 1019 -91 701 211 
Q 384 513 384 1019 
Q 384 1609 779 1909 
Q 1175 2209 1959 2209 
L 2766 2209 
L 2766 2266 
Q 2766 2663 2505 2880 
Q 2244 3097 1772 3097 
Q 1472 3097 1187 3025 
Q 903 2953 641 2809 
L 641 3341 
Q 956 3463 1253 3523 
Q 1550 3584 1831 3584 
Q 2591 3584 2966 3190 
Q 3341 2797 3341 1997 
z
" transform="scale(0.015625)"/>
    </defs>
    <use xlink:href="#DejaVuSans-4f"/>
    <use xlink:href="#DejaVuSans-72" x="78.710938"/>
    <use xlink:href="#DejaVuSans-69" x="119.824219"/>
    <use xlink:href="#DejaVuSans-65" x="147.607422"/>
    <use xlink:href="#DejaVuSans-6e" x="209.130859"/>
    <use xlink:href="#DejaVuSans-74" x="272.509766"/>
    <use xlink:href="#DejaVuSans-61" x="311.71875"/>
    <use xlink:href="#DejaVuSans-74" x="372.998047"/>
    <use xlink:href="#DejaVuSans-69" x="412.207031"/>
    <use xlink:href="#DejaVuSans-6f" x="439.990234"/>
    <use xlink:href="#DejaVuSans-6e" x="501.171875"/>
    <use xlink:href="#DejaVuSans-20" x="564.550781"/>
    <use xlink:href="#DejaVuSans-3d" x="596.337891"/>
    <use xlink:href="#DejaVuSans-20" x="680.126953"/>
    <use xlink:href="#DejaVuSans-33" x="711.914062"/>
    <use xlink:href="#DejaVuSans-30" x="775.537109"/>
   </g>
  </g>
 </g>
 <defs>
  <clipPath id="pc369f0545a">
   <rect x="10.8" y="62.9385" width="273.6" height="197.1815"/>
  </clipPath>
  <clipPath id="p5839dd0e70">
   <rect x="295.2" y="62.9385" width="273.6" height="197.1815"/>
  </clipPath>
  <clipPath id="p2d0c20f5cc">
   <rect x="579.6" y="62.9385" width="273.6" height="197.1815"/>
  </clipPath>
 </defs>
</svg>
