<?xml version="1.0" encoding="utf-8" standalone="no"?>
<!DOCTYPE svg PUBLIC "-//W3C//DTD SVG 1.1//EN"
  "http://www.w3.org/Graphics/SVG/1.1/DTD/svg11.dtd">
<svg xmlns:xlink="http://www.w3.org/1999/xlink" width="864pt" height="288pt" viewBox="0 0 864 288" xmlns="http://www.w3.org/2000/svg" version="1.1">
 <metadata>
  <rdf:RDF xmlns:dc="http://purl.org/dc/elements/1.1/" xmlns:cc="http://creativecommons.org/ns#" xmlns:rdf="http://www.w3.org/1999/02/22-rdf-syntax-ns#">
   <cc:Work>
    <dc:type rdf:resource="http://purl.org/dc/dcmitype/StillImage"/>
    <dc:date>2025-02-03T16:30:07.641216</dc:date>
    <dc:format>image/svg+xml</dc:format>
    <dc:creator>
     <cc:Agent>
      <dc:title>Matplotlib v3.9.2, https://matplotlib.org/</dc:title>
     </cc:Agent>
    </dc:creator>
   </cc:Work>
  </rdf:RDF>
 </metadata>
 <defs>
  <style type="text/css">*{stroke-linejoin: round; stroke-linecap: butt}</style>
 </defs>
 <g id="figure_1">
  <g id="patch_1">
   <path d="M 0 288 
L 864 288 
L 864 0 
L 0 0 
z
" style="fill: #ffffff"/>
  </g>
  <g id="axes_1">
   <g id="patch_2">
    <path d="M 10.8 260.12 
L 284.4 260.12 
L 284.4 62.9385 
L 10.8 62.9385 
z
" style="fill: #ffffff"/>
   </g>
   <g id="matplotlib.axis_1">
    <g id="xtick_1">
     <g id="line2d_1">
      <defs>
       <path id="m296237da60" d="M 0 0 
L 0 3.5 
" style="stroke: #000000; stroke-width: 0.8"/>
      </defs>
      <g>
       <use xlink:href="#m296237da60" x="23.236364" y="260.12" style="stroke: #000000; stroke-width: 0.8"/>
      </g>
     </g>
     <g id="text_1">
      <!-- −3 -->
      <g transform="translate(15.86527 274.718437) scale(0.1 -0.1)">
       <defs>
        <path id="DejaVuSans-2212" d="M 678 2272 
L 4684 2272 
L 4684 1741 
L 678 1741 
L 678 2272 
z
" transform="scale(0.015625)"/>
        <path id="DejaVuSans-33" d="M 2597 2516 
Q 3050 2419 3304 2112 
Q 3559 1806 3559 1356 
Q 3559 666 3084 287 
Q 2609 -91 1734 -91 
Q 1441 -91 1130 -33 
Q 819 25 488 141 
L 488 750 
Q 750 597 1062 519 
Q 1375 441 1716 441 
Q 2309 441 2620 675 
Q 2931 909 2931 1356 
Q 2931 1769 2642 2001 
Q 2353 2234 1838 2234 
L 1294 2234 
L 1294 2753 
L 1863 2753 
Q 2328 2753 2575 2939 
Q 2822 3125 2822 3475 
Q 2822 3834 2567 4026 
Q 2313 4219 1838 4219 
Q 1578 4219 1281 4162 
Q 984 4106 628 3988 
L 628 4550 
Q 988 4650 1302 4700 
Q 1616 4750 1894 4750 
Q 2613 4750 3031 4423 
Q 3450 4097 3450 3541 
Q 3450 3153 3228 2886 
Q 3006 2619 2597 2516 
z
" transform="scale(0.015625)"/>
       </defs>
       <use xlink:href="#DejaVuSans-2212"/>
       <use xlink:href="#DejaVuSans-33" x="83.789062"/>
      </g>
     </g>
    </g>
    <g id="xtick_2">
     <g id="line2d_2">
      <g>
       <use xlink:href="#m296237da60" x="64.690909" y="260.12" style="stroke: #000000; stroke-width: 0.8"/>
      </g>
     </g>
     <g id="text_2">
      <!-- −2 -->
      <g transform="translate(57.319815 274.718437) scale(0.1 -0.1)">
       <defs>
        <path id="DejaVuSans-32" d="M 1228 531 
L 3431 531 
L 3431 0 
L 469 0 
L 469 531 
Q 828 903 1448 1529 
Q 2069 2156 2228 2338 
Q 2531 2678 2651 2914 
Q 2772 3150 2772 3378 
Q 2772 3750 2511 3984 
Q 2250 4219 1831 4219 
Q 1534 4219 1204 4116 
Q 875 4013 500 3803 
L 500 4441 
Q 881 4594 1212 4672 
Q 1544 4750 1819 4750 
Q 2544 4750 2975 4387 
Q 3406 4025 3406 3419 
Q 3406 3131 3298 2873 
Q 3191 2616 2906 2266 
Q 2828 2175 2409 1742 
Q 1991 1309 1228 531 
z
" transform="scale(0.015625)"/>
       </defs>
       <use xlink:href="#DejaVuSans-2212"/>
       <use xlink:href="#DejaVuSans-32" x="83.789062"/>
      </g>
     </g>
    </g>
    <g id="xtick_3">
     <g id="line2d_3">
      <g>
       <use xlink:href="#m296237da60" x="106.145455" y="260.12" style="stroke: #000000; stroke-width: 0.8"/>
      </g>
     </g>
     <g id="text_3">
      <!-- −1 -->
      <g transform="translate(98.774361 274.718437) scale(0.1 -0.1)">
       <defs>
        <path id="DejaVuSans-31" d="M 794 531 
L 1825 531 
L 1825 4091 
L 703 3866 
L 703 4441 
L 1819 4666 
L 2450 4666 
L 2450 531 
L 3481 531 
L 3481 0 
L 794 0 
L 794 531 
z
" transform="scale(0.015625)"/>
       </defs>
       <use xlink:href="#DejaVuSans-2212"/>
       <use xlink:href="#DejaVuSans-31" x="83.789062"/>
      </g>
     </g>
    </g>
    <g id="xtick_4">
     <g id="line2d_4">
      <g>
       <use xlink:href="#m296237da60" x="147.6" y="260.12" style="stroke: #000000; stroke-width: 0.8"/>
      </g>
     </g>
     <g id="text_4">
      <!-- 0 -->
      <g transform="translate(144.41875 274.718437) scale(0.1 -0.1)">
       <defs>
        <path id="DejaVuSans-30" d="M 2034 4250 
Q 1547 4250 1301 3770 
Q 1056 3291 1056 2328 
Q 1056 1369 1301 889 
Q 1547 409 2034 409 
Q 2525 409 2770 889 
Q 3016 1369 3016 2328 
Q 3016 3291 2770 3770 
Q 2525 4250 2034 4250 
z
M 2034 4750 
Q 2819 4750 3233 4129 
Q 3647 3509 3647 2328 
Q 3647 1150 3233 529 
Q 2819 -91 2034 -91 
Q 1250 -91 836 529 
Q 422 1150 422 2328 
Q 422 3509 836 4129 
Q 1250 4750 2034 4750 
z
" transform="scale(0.015625)"/>
       </defs>
       <use xlink:href="#DejaVuSans-30"/>
      </g>
     </g>
    </g>
    <g id="xtick_5">
     <g id="line2d_5">
      <g>
       <use xlink:href="#m296237da60" x="189.054545" y="260.12" style="stroke: #000000; stroke-width: 0.8"/>
      </g>
     </g>
     <g id="text_5">
      <!-- 1 -->
      <g transform="translate(185.873295 274.718437) scale(0.1 -0.1)">
       <use xlink:href="#DejaVuSans-31"/>
      </g>
     </g>
    </g>
    <g id="xtick_6">
     <g id="line2d_6">
      <g>
       <use xlink:href="#m296237da60" x="230.509091" y="260.12" style="stroke: #000000; stroke-width: 0.8"/>
      </g>
     </g>
     <g id="text_6">
      <!-- 2 -->
      <g transform="translate(227.327841 274.718437) scale(0.1 -0.1)">
       <use xlink:href="#DejaVuSans-32"/>
      </g>
     </g>
    </g>
    <g id="xtick_7">
     <g id="line2d_7">
      <g>
       <use xlink:href="#m296237da60" x="271.963636" y="260.12" style="stroke: #000000; stroke-width: 0.8"/>
      </g>
     </g>
     <g id="text_7">
      <!-- 3 -->
      <g transform="translate(268.782386 274.718437) scale(0.1 -0.1)">
       <use xlink:href="#DejaVuSans-33"/>
      </g>
     </g>
    </g>
   </g>
   <g id="matplotlib.axis_2">
    <g id="ytick_1">
     <g id="line2d_8">
      <defs>
       <path id="mcc21166546" d="M 0 0 
L -3.5 0 
" style="stroke: #000000; stroke-width: 0.8"/>
      </defs>
      <g>
       <use xlink:href="#mcc21166546" x="147.6" y="260.12" style="stroke: #000000; stroke-width: 0.8"/>
      </g>
     </g>
    </g>
    <g id="ytick_2">
     <g id="line2d_9">
      <g>
       <use xlink:href="#mcc21166546" x="147.6" y="80.864091" style="stroke: #000000; stroke-width: 0.8"/>
      </g>
     </g>
     <g id="text_8">
      <!-- 1 -->
      <g transform="translate(134.2375 84.66331) scale(0.1 -0.1)">
       <use xlink:href="#DejaVuSans-31"/>
      </g>
     </g>
    </g>
   </g>
   <g id="line2d_10">
    <path d="M 23.236364 168.098305 
L 25.74876 173.870696 
L 28.261157 175.173924 
L 30.773554 173.643468 
L 33.28595 170.848259 
L 35.798347 167.840517 
L 38.310744 165.44305 
L 40.82314 164.723406 
L 43.335537 166.937955 
L 45.847934 172.814901 
L 48.360331 181.653574 
L 50.872727 191.201149 
L 53.385124 198.660013 
L 55.897521 201.645849 
L 58.409917 198.176408 
L 60.922314 186.48093 
L 63.434711 166.195343 
L 65.947107 140.979237 
L 68.459504 117.914032 
L 70.971901 101.880432 
L 73.484298 93.296379 
L 75.996694 90.663296 
L 78.509091 92.714314 
L 81.021488 99.016048 
L 83.533884 109.671988 
L 86.046281 124.460324 
L 88.558678 141.94239 
L 91.071074 159.502729 
L 93.583471 174.452851 
L 96.095868 185.041172 
L 98.608264 190.654878 
L 101.120661 191.605322 
L 103.633058 188.982331 
L 106.145455 184.573071 
L 108.657851 180.504053 
L 111.170248 178.471729 
L 113.682645 179.075273 
L 116.195041 181.867661 
L 118.707438 185.960006 
L 121.219835 190.471479 
L 123.732231 194.375947 
L 126.244628 196.060648 
L 128.757025 193.467583 
L 131.269421 184.823022 
L 133.781818 169.354365 
L 136.294215 148.180523 
L 138.806612 124.850256 
L 141.319008 104.009669 
L 143.831405 89.149885 
L 146.343802 81.755266 
L 148.856198 81.710754 
L 151.368595 88.007109 
L 153.880992 99.243988 
L 156.393388 113.851621 
L 158.905785 130.340836 
L 161.418182 147.554742 
L 163.930579 164.48476 
L 166.442975 179.709351 
L 168.955372 191.420903 
L 171.467769 198.382677 
L 173.980165 200.600128 
L 176.492562 199.191125 
L 179.004959 195.996251 
L 181.517355 192.839229 
L 184.029752 190.482683 
L 186.542149 188.450924 
L 189.054545 185.91967 
L 191.566942 182.651723 
L 194.079339 179.450582 
L 196.591736 177.359746 
L 199.104132 175.78724 
L 201.616529 172.678842 
L 204.128926 166.267683 
L 206.641322 155.482288 
L 209.153719 139.842961 
L 211.666116 120.472935 
L 214.178512 101.811783 
L 216.690909 90.090582 
L 219.203306 87.73453 
L 221.715702 92.388905 
L 224.228099 100.811028 
L 226.740496 110.827641 
L 229.252893 121.431052 
L 231.765289 132.671493 
L 234.277686 145.404738 
L 236.790083 160.318032 
L 239.302479 176.183042 
L 241.814876 189.695498 
L 244.327273 198.179274 
L 246.839669 201.23344 
L 249.352066 199.899202 
L 251.864463 195.645352 
L 254.37686 189.938322 
L 256.889256 183.853317 
L 259.401653 177.651912 
L 261.91405 170.958567 
L 264.426446 163.829453 
L 266.938843 157.96754 
L 269.45124 155.838649 
L 271.963636 157.11197 
" clip-path="url(#p822540ee5a)" style="fill: none; stroke: #1f77b4; stroke-width: 2; stroke-linecap: square"/>
   </g>
   <g id="line2d_11">
    <path d="M 23.236364 168.800563 
L 25.74876 174.050726 
L 28.261157 176.76141 
L 30.773554 176.597551 
L 33.28595 173.759951 
L 35.798347 168.933747 
L 38.310744 163.598138 
L 40.82314 160.368951 
L 43.335537 161.83284 
L 45.847934 167.694219 
L 48.360331 174.663971 
L 50.872727 179.617443 
L 53.385124 181.127724 
L 55.897521 178.939399 
L 58.409917 173.087571 
L 60.922314 163.356967 
L 63.434711 149.548816 
L 65.947107 132.481076 
L 68.459504 114.788133 
L 70.971901 100.132707 
L 73.484298 90.931226 
L 75.996694 87.448632 
L 78.509091 89.245407 
L 81.021488 96.439597 
L 83.533884 109.102391 
L 86.046281 125.743108 
L 88.558678 143.358884 
L 91.071074 159.277839 
L 93.583471 172.164369 
L 96.095868 181.426547 
L 98.608264 186.730576 
L 101.120661 188.273747 
L 103.633058 186.833473 
L 106.145455 183.48997 
L 108.657851 179.58128 
L 111.170248 176.803247 
L 113.682645 176.776077 
L 116.195041 179.924622 
L 118.707438 185.003435 
L 121.219835 189.980503 
L 123.732231 192.960061 
L 126.244628 192.380294 
L 128.757025 186.972438 
L 131.269421 175.933971 
L 133.781818 159.413292 
L 136.294215 139.091934 
L 138.806612 118.184605 
L 141.319008 100.279166 
L 143.831405 87.810368 
L 146.343802 81.621795 
L 148.856198 81.605699 
L 151.368595 87.400612 
L 153.880992 98.612947 
L 156.393388 114.50772 
L 158.905785 133.392267 
L 161.418182 152.446428 
L 163.930579 168.583846 
L 166.442975 179.718659 
L 168.955372 185.530722 
L 171.467769 187.391674 
L 173.980165 187.277894 
L 176.492562 186.528538 
L 179.004959 185.687979 
L 181.517355 185.012294 
L 184.029752 184.797349 
L 186.542149 185.405345 
L 189.054545 187.10999 
L 191.566942 189.793048 
L 194.079339 192.54196 
L 196.591736 193.545045 
L 199.104132 190.685461 
L 201.616529 182.387934 
L 204.128926 168.258793 
L 206.641322 149.734518 
L 209.153719 130.168596 
L 211.666116 113.17124 
L 214.178512 100.645985 
L 216.690909 93.011714 
L 219.203306 90.505876 
L 221.715702 93.531319 
L 224.228099 101.995711 
L 226.740496 114.644793 
L 229.252893 129.203498 
L 231.765289 143.197966 
L 234.277686 154.683862 
L 236.790083 162.589555 
L 239.302479 167.059899 
L 241.814876 169.711594 
L 244.327273 172.518064 
L 246.839669 175.910137 
L 249.352066 179.135259 
L 251.864463 181.685054 
L 254.37686 183.576654 
L 256.889256 185.032463 
L 259.401653 186.197226 
L 261.91405 187.00038 
L 264.426446 187.177718 
L 266.938843 186.327423 
L 269.45124 183.816393 
L 271.963636 178.795524 
" clip-path="url(#p822540ee5a)" style="fill: none; stroke: #ff7f0e; stroke-width: 2; stroke-linecap: square"/>
   </g>
   <g id="line2d_12">
    <path d="M 23.236364 180.192168 
L 25.74876 186.078807 
L 28.261157 188.224614 
L 30.773554 187.694399 
L 33.28595 185.821278 
L 35.798347 183.781632 
L 38.310744 182.335443 
L 40.82314 181.834495 
L 43.335537 182.337905 
L 45.847934 183.674916 
L 48.360331 185.448803 
L 50.872727 186.999726 
L 53.385124 187.327739 
L 55.897521 185.108989 
L 58.409917 178.981306 
L 60.922314 167.987023 
L 63.434711 152.07002 
L 65.947107 132.787552 
L 68.459504 113.719036 
L 70.971901 99.072795 
L 73.484298 91.040229 
L 75.996694 89.240155 
L 78.509091 92.460907 
L 81.021488 100.017188 
L 83.533884 111.900988 
L 86.046281 128.171659 
L 88.558678 147.74445 
L 91.071074 167.458206 
L 93.583471 183.341067 
L 96.095868 193.118069 
L 98.608264 196.879931 
L 101.120661 196.154638 
L 103.633058 192.993775 
L 106.145455 189.330574 
L 108.657851 186.540355 
L 111.170248 185.367373 
L 113.682645 186.065156 
L 116.195041 188.427885 
L 118.707438 191.716301 
L 121.219835 194.680358 
L 123.732231 195.733458 
L 126.244628 193.219799 
L 128.757025 185.790191 
L 131.269421 172.878408 
L 133.781818 155.151283 
L 136.294215 134.740696 
L 138.806612 114.83862 
L 141.319008 98.441765 
L 143.831405 87.213843 
L 146.343802 81.575252 
L 148.856198 81.589046 
L 151.368595 87.568312 
L 153.880992 99.921696 
L 156.393388 118.276263 
L 158.905785 140.450915 
L 161.418182 162.497986 
L 163.930579 180.404112 
L 166.442975 191.990075 
L 168.955372 197.260719 
L 171.467769 197.519473 
L 173.980165 194.500013 
L 176.492562 189.988821 
L 179.004959 185.729355 
L 181.517355 183.266745 
L 184.029752 183.524781 
L 186.542149 186.339158 
L 189.054545 190.500828 
L 191.566942 194.326632 
L 194.079339 196.161483 
L 196.591736 194.563071 
L 199.104132 188.438972 
L 201.616529 177.33765 
L 204.128926 161.776558 
L 206.641322 143.40067 
L 209.153719 124.758096 
L 211.666116 108.532332 
L 214.178512 96.61318 
L 216.690909 89.773943 
L 219.203306 88.087776 
L 221.715702 91.515385 
L 224.228099 100.201508 
L 226.740496 114.283166 
L 229.252893 132.965518 
L 231.765289 153.323078 
L 234.277686 171.029159 
L 236.790083 183.161061 
L 239.302479 189.398178 
L 241.814876 190.948086 
L 244.327273 189.372423 
L 246.839669 186.095701 
L 249.352066 182.327147 
L 251.864463 179.1355 
L 254.37686 177.458882 
L 256.889256 177.857726 
L 259.401653 180.131089 
L 261.91405 183.214707 
L 264.426446 185.544893 
L 266.938843 185.639506 
L 269.45124 182.573869 
L 271.963636 176.188275 
" clip-path="url(#p822540ee5a)" style="fill: none; stroke: #2ca02c; stroke-width: 2; stroke-linecap: square"/>
   </g>
   <g id="patch_3">
    <path d="M 147.6 260.12 
L 147.6 62.9385 
" style="fill: none; stroke: #000000; stroke-width: 0.8; stroke-linejoin: miter; stroke-linecap: square"/>
   </g>
   <g id="patch_4">
    <path d="M 284.4 260.12 
L 284.4 62.9385 
" style="fill: none"/>
   </g>
   <g id="patch_5">
    <path d="M 10.8 260.12 
L 284.4 260.12 
" style="fill: none; stroke: #000000; stroke-width: 0.8; stroke-linejoin: miter; stroke-linecap: square"/>
   </g>
   <g id="patch_6">
    <path d="M 10.8 62.9385 
L 284.4 62.9385 
" style="fill: none"/>
   </g>
   <g id="text_9">
    <!-- 1 modules: $\Delta \theta$ = 2$^{\circ}$, $\Delta \lambda$ = 0.05 -->
    <g transform="translate(55.32 56.9385) scale(0.12 -0.12)">
     <defs>
      <path id="DejaVuSans-20" transform="scale(0.015625)"/>
      <path id="DejaVuSans-6d" d="M 3328 2828 
Q 3544 3216 3844 3400 
Q 4144 3584 4550 3584 
Q 5097 3584 5394 3201 
Q 5691 2819 5691 2113 
L 5691 0 
L 5113 0 
L 5113 2094 
Q 5113 2597 4934 2840 
Q 4756 3084 4391 3084 
Q 3944 3084 3684 2787 
Q 3425 2491 3425 1978 
L 3425 0 
L 2847 0 
L 2847 2094 
Q 2847 2600 2669 2842 
Q 2491 3084 2119 3084 
Q 1678 3084 1418 2786 
Q 1159 2488 1159 1978 
L 1159 0 
L 581 0 
L 581 3500 
L 1159 3500 
L 1159 2956 
Q 1356 3278 1631 3431 
Q 1906 3584 2284 3584 
Q 2666 3584 2933 3390 
Q 3200 3197 3328 2828 
z
" transform="scale(0.015625)"/>
      <path id="DejaVuSans-6f" d="M 1959 3097 
Q 1497 3097 1228 2736 
Q 959 2375 959 1747 
Q 959 1119 1226 758 
Q 1494 397 1959 397 
Q 2419 397 2687 759 
Q 2956 1122 2956 1747 
Q 2956 2369 2687 2733 
Q 2419 3097 1959 3097 
z
M 1959 3584 
Q 2709 3584 3137 3096 
Q 3566 2609 3566 1747 
Q 3566 888 3137 398 
Q 2709 -91 1959 -91 
Q 1206 -91 779 398 
Q 353 888 353 1747 
Q 353 2609 779 3096 
Q 1206 3584 1959 3584 
z
" transform="scale(0.015625)"/>
      <path id="DejaVuSans-64" d="M 2906 2969 
L 2906 4863 
L 3481 4863 
L 3481 0 
L 2906 0 
L 2906 525 
Q 2725 213 2448 61 
Q 2172 -91 1784 -91 
Q 1150 -91 751 415 
Q 353 922 353 1747 
Q 353 2572 751 3078 
Q 1150 3584 1784 3584 
Q 2172 3584 2448 3432 
Q 2725 3281 2906 2969 
z
M 947 1747 
Q 947 1113 1208 752 
Q 1469 391 1925 391 
Q 2381 391 2643 752 
Q 2906 1113 2906 1747 
Q 2906 2381 2643 2742 
Q 2381 3103 1925 3103 
Q 1469 3103 1208 2742 
Q 947 2381 947 1747 
z
" transform="scale(0.015625)"/>
      <path id="DejaVuSans-75" d="M 544 1381 
L 544 3500 
L 1119 3500 
L 1119 1403 
Q 1119 906 1312 657 
Q 1506 409 1894 409 
Q 2359 409 2629 706 
Q 2900 1003 2900 1516 
L 2900 3500 
L 3475 3500 
L 3475 0 
L 2900 0 
L 2900 538 
Q 2691 219 2414 64 
Q 2138 -91 1772 -91 
Q 1169 -91 856 284 
Q 544 659 544 1381 
z
M 1991 3584 
L 1991 3584 
z
" transform="scale(0.015625)"/>
      <path id="DejaVuSans-6c" d="M 603 4863 
L 1178 4863 
L 1178 0 
L 603 0 
L 603 4863 
z
" transform="scale(0.015625)"/>
      <path id="DejaVuSans-65" d="M 3597 1894 
L 3597 1613 
L 953 1613 
Q 991 1019 1311 708 
Q 1631 397 2203 397 
Q 2534 397 2845 478 
Q 3156 559 3463 722 
L 3463 178 
Q 3153 47 2828 -22 
Q 2503 -91 2169 -91 
Q 1331 -91 842 396 
Q 353 884 353 1716 
Q 353 2575 817 3079 
Q 1281 3584 2069 3584 
Q 2775 3584 3186 3129 
Q 3597 2675 3597 1894 
z
M 3022 2063 
Q 3016 2534 2758 2815 
Q 2500 3097 2075 3097 
Q 1594 3097 1305 2825 
Q 1016 2553 972 2059 
L 3022 2063 
z
" transform="scale(0.015625)"/>
      <path id="DejaVuSans-73" d="M 2834 3397 
L 2834 2853 
Q 2591 2978 2328 3040 
Q 2066 3103 1784 3103 
Q 1356 3103 1142 2972 
Q 928 2841 928 2578 
Q 928 2378 1081 2264 
Q 1234 2150 1697 2047 
L 1894 2003 
Q 2506 1872 2764 1633 
Q 3022 1394 3022 966 
Q 3022 478 2636 193 
Q 2250 -91 1575 -91 
Q 1294 -91 989 -36 
Q 684 19 347 128 
L 347 722 
Q 666 556 975 473 
Q 1284 391 1588 391 
Q 1994 391 2212 530 
Q 2431 669 2431 922 
Q 2431 1156 2273 1281 
Q 2116 1406 1581 1522 
L 1381 1569 
Q 847 1681 609 1914 
Q 372 2147 372 2553 
Q 372 3047 722 3315 
Q 1072 3584 1716 3584 
Q 2034 3584 2315 3537 
Q 2597 3491 2834 3397 
z
" transform="scale(0.015625)"/>
      <path id="DejaVuSans-3a" d="M 750 794 
L 1409 794 
L 1409 0 
L 750 0 
L 750 794 
z
M 750 3309 
L 1409 3309 
L 1409 2516 
L 750 2516 
L 750 3309 
z
" transform="scale(0.015625)"/>
      <path id="DejaVuSans-394" d="M 2188 4044 
L 906 525 
L 3472 525 
L 2188 4044 
z
M 50 0 
L 1831 4666 
L 2547 4666 
L 4325 0 
L 50 0 
z
" transform="scale(0.015625)"/>
      <path id="DejaVuSans-Oblique-3b8" d="M 2913 2219 
L 925 2219 
Q 791 1284 928 888 
Q 1100 400 1566 400 
Q 2034 400 2391 891 
Q 2703 1322 2913 2219 
z
M 3009 2750 
Q 3094 3638 2984 3950 
Q 2813 4444 2353 4444 
Q 1875 4444 1525 3956 
Q 1250 3563 1034 2750 
L 3009 2750 
z
M 2444 4913 
Q 3194 4913 3494 4250 
Q 3794 3591 3566 2422 
Q 3341 1256 2781 594 
Q 2225 -72 1475 -72 
Q 722 -72 425 594 
Q 128 1256 353 2422 
Q 581 3591 1134 4250 
Q 1691 4913 2444 4913 
z
" transform="scale(0.015625)"/>
      <path id="DejaVuSans-3d" d="M 678 2906 
L 4684 2906 
L 4684 2381 
L 678 2381 
L 678 2906 
z
M 678 1631 
L 4684 1631 
L 4684 1100 
L 678 1100 
L 678 1631 
z
" transform="scale(0.015625)"/>
      <path id="DejaVuSans-2218" d="M 2003 2603 
Q 1753 2603 1581 2429 
Q 1409 2256 1409 2006 
Q 1409 1759 1581 1589 
Q 1753 1419 2003 1419 
Q 2253 1419 2425 1589 
Q 2597 1759 2597 2006 
Q 2597 2253 2423 2428 
Q 2250 2603 2003 2603 
z
M 2003 3006 
Q 2203 3006 2387 2929 
Q 2572 2853 2706 2709 
Q 2850 2569 2922 2390 
Q 2994 2212 2994 2006 
Q 2994 1594 2705 1308 
Q 2416 1022 1997 1022 
Q 1575 1022 1294 1303 
Q 1013 1584 1013 2006 
Q 1013 2425 1300 2715 
Q 1588 3006 2003 3006 
z
" transform="scale(0.015625)"/>
      <path id="DejaVuSans-2c" d="M 750 794 
L 1409 794 
L 1409 256 
L 897 -744 
L 494 -744 
L 750 256 
L 750 794 
z
" transform="scale(0.015625)"/>
      <path id="DejaVuSans-Oblique-3bb" d="M 2350 4316 
L 3125 0 
L 2516 0 
L 2038 2588 
L 328 0 
L -281 0 
L 1903 3356 
L 1794 3975 
Q 1725 4369 1391 4369 
L 1091 4369 
L 1184 4863 
L 1550 4856 
Q 2253 4847 2350 4316 
z
" transform="scale(0.015625)"/>
      <path id="DejaVuSans-2e" d="M 684 794 
L 1344 794 
L 1344 0 
L 684 0 
L 684 794 
z
" transform="scale(0.015625)"/>
      <path id="DejaVuSans-35" d="M 691 4666 
L 3169 4666 
L 3169 4134 
L 1269 4134 
L 1269 2991 
Q 1406 3038 1543 3061 
Q 1681 3084 1819 3084 
Q 2600 3084 3056 2656 
Q 3513 2228 3513 1497 
Q 3513 744 3044 326 
Q 2575 -91 1722 -91 
Q 1428 -91 1123 -41 
Q 819 9 494 109 
L 494 744 
Q 775 591 1075 516 
Q 1375 441 1709 441 
Q 2250 441 2565 725 
Q 2881 1009 2881 1497 
Q 2881 1984 2565 2268 
Q 2250 2553 1709 2553 
Q 1456 2553 1204 2497 
Q 953 2441 691 2322 
L 691 4666 
z
" transform="scale(0.015625)"/>
     </defs>
     <use xlink:href="#DejaVuSans-31" transform="translate(0 0.234375)"/>
     <use xlink:href="#DejaVuSans-20" transform="translate(63.623047 0.234375)"/>
     <use xlink:href="#DejaVuSans-6d" transform="translate(95.410156 0.234375)"/>
     <use xlink:href="#DejaVuSans-6f" transform="translate(192.822266 0.234375)"/>
     <use xlink:href="#DejaVuSans-64" transform="translate(254.003906 0.234375)"/>
     <use xlink:href="#DejaVuSans-75" transform="translate(317.480469 0.234375)"/>
     <use xlink:href="#DejaVuSans-6c" transform="translate(380.859375 0.234375)"/>
     <use xlink:href="#DejaVuSans-65" transform="translate(408.642578 0.234375)"/>
     <use xlink:href="#DejaVuSans-73" transform="translate(470.166016 0.234375)"/>
     <use xlink:href="#DejaVuSans-3a" transform="translate(522.265625 0.234375)"/>
     <use xlink:href="#DejaVuSans-20" transform="translate(555.957031 0.234375)"/>
     <use xlink:href="#DejaVuSans-394" transform="translate(587.744141 0.234375)"/>
     <use xlink:href="#DejaVuSans-Oblique-3b8" transform="translate(656.152344 0.234375)"/>
     <use xlink:href="#DejaVuSans-20" transform="translate(717.333984 0.234375)"/>
     <use xlink:href="#DejaVuSans-3d" transform="translate(749.121094 0.234375)"/>
     <use xlink:href="#DejaVuSans-20" transform="translate(832.910156 0.234375)"/>
     <use xlink:href="#DejaVuSans-32" transform="translate(864.697266 0.234375)"/>
     <use xlink:href="#DejaVuSans-2218" transform="translate(929.277344 38.515625) scale(0.7)"/>
     <use xlink:href="#DejaVuSans-2c" transform="translate(975.830078 0.234375)"/>
     <use xlink:href="#DejaVuSans-20" transform="translate(1007.617188 0.234375)"/>
     <use xlink:href="#DejaVuSans-394" transform="translate(1039.404297 0.234375)"/>
     <use xlink:href="#DejaVuSans-Oblique-3bb" transform="translate(1107.8125 0.234375)"/>
     <use xlink:href="#DejaVuSans-20" transform="translate(1166.992188 0.234375)"/>
     <use xlink:href="#DejaVuSans-3d" transform="translate(1198.779297 0.234375)"/>
     <use xlink:href="#DejaVuSans-20" transform="translate(1282.568359 0.234375)"/>
     <use xlink:href="#DejaVuSans-30" transform="translate(1314.355469 0.234375)"/>
     <use xlink:href="#DejaVuSans-2e" transform="translate(1377.978516 0.234375)"/>
     <use xlink:href="#DejaVuSans-30" transform="translate(1409.765625 0.234375)"/>
     <use xlink:href="#DejaVuSans-35" transform="translate(1473.388672 0.234375)"/>
    </g>
   </g>
   <g id="legend_1">
    <g id="patch_7">
     <path d="M 17.8 255.12 
L 89.960938 255.12 
Q 91.960938 255.12 91.960938 253.12 
L 91.960938 210.085625 
Q 91.960938 208.085625 89.960938 208.085625 
L 17.8 208.085625 
Q 15.8 208.085625 15.8 210.085625 
L 15.8 253.12 
Q 15.8 255.12 17.8 255.12 
z
" style="fill: #ffffff; opacity: 0.8; stroke: #cccccc; stroke-linejoin: miter"/>
    </g>
    <g id="line2d_13">
     <path d="M 19.8 216.184062 
L 29.8 216.184062 
L 39.8 216.184062 
" style="fill: none; stroke: #1f77b4; stroke-width: 2; stroke-linecap: square"/>
    </g>
    <g id="text_10">
     <!-- n = 32 -->
     <g transform="translate(47.8 219.684062) scale(0.1 -0.1)">
      <defs>
       <path id="DejaVuSans-6e" d="M 3513 2113 
L 3513 0 
L 2938 0 
L 2938 2094 
Q 2938 2591 2744 2837 
Q 2550 3084 2163 3084 
Q 1697 3084 1428 2787 
Q 1159 2491 1159 1978 
L 1159 0 
L 581 0 
L 581 3500 
L 1159 3500 
L 1159 2956 
Q 1366 3272 1645 3428 
Q 1925 3584 2291 3584 
Q 2894 3584 3203 3211 
Q 3513 2838 3513 2113 
z
" transform="scale(0.015625)"/>
      </defs>
      <use xlink:href="#DejaVuSans-6e"/>
      <use xlink:href="#DejaVuSans-20" x="63.378906"/>
      <use xlink:href="#DejaVuSans-3d" x="95.166016"/>
      <use xlink:href="#DejaVuSans-20" x="178.955078"/>
      <use xlink:href="#DejaVuSans-33" x="210.742188"/>
      <use xlink:href="#DejaVuSans-32" x="274.365234"/>
     </g>
    </g>
    <g id="line2d_14">
     <path d="M 19.8 230.862187 
L 29.8 230.862187 
L 39.8 230.862187 
" style="fill: none; stroke: #ff7f0e; stroke-width: 2; stroke-linecap: square"/>
    </g>
    <g id="text_11">
     <!-- n = 64 -->
     <g transform="translate(47.8 234.362187) scale(0.1 -0.1)">
      <defs>
       <path id="DejaVuSans-36" d="M 2113 2584 
Q 1688 2584 1439 2293 
Q 1191 2003 1191 1497 
Q 1191 994 1439 701 
Q 1688 409 2113 409 
Q 2538 409 2786 701 
Q 3034 994 3034 1497 
Q 3034 2003 2786 2293 
Q 2538 2584 2113 2584 
z
M 3366 4563 
L 3366 3988 
Q 3128 4100 2886 4159 
Q 2644 4219 2406 4219 
Q 1781 4219 1451 3797 
Q 1122 3375 1075 2522 
Q 1259 2794 1537 2939 
Q 1816 3084 2150 3084 
Q 2853 3084 3261 2657 
Q 3669 2231 3669 1497 
Q 3669 778 3244 343 
Q 2819 -91 2113 -91 
Q 1303 -91 875 529 
Q 447 1150 447 2328 
Q 447 3434 972 4092 
Q 1497 4750 2381 4750 
Q 2619 4750 2861 4703 
Q 3103 4656 3366 4563 
z
" transform="scale(0.015625)"/>
       <path id="DejaVuSans-34" d="M 2419 4116 
L 825 1625 
L 2419 1625 
L 2419 4116 
z
M 2253 4666 
L 3047 4666 
L 3047 1625 
L 3713 1625 
L 3713 1100 
L 3047 1100 
L 3047 0 
L 2419 0 
L 2419 1100 
L 313 1100 
L 313 1709 
L 2253 4666 
z
" transform="scale(0.015625)"/>
      </defs>
      <use xlink:href="#DejaVuSans-6e"/>
      <use xlink:href="#DejaVuSans-20" x="63.378906"/>
      <use xlink:href="#DejaVuSans-3d" x="95.166016"/>
      <use xlink:href="#DejaVuSans-20" x="178.955078"/>
      <use xlink:href="#DejaVuSans-36" x="210.742188"/>
      <use xlink:href="#DejaVuSans-34" x="274.365234"/>
     </g>
    </g>
    <g id="line2d_15">
     <path d="M 19.8 245.540312 
L 29.8 245.540312 
L 39.8 245.540312 
" style="fill: none; stroke: #2ca02c; stroke-width: 2; stroke-linecap: square"/>
    </g>
    <g id="text_12">
     <!-- n = 256 -->
     <g transform="translate(47.8 249.040312) scale(0.1 -0.1)">
      <use xlink:href="#DejaVuSans-6e"/>
      <use xlink:href="#DejaVuSans-20" x="63.378906"/>
      <use xlink:href="#DejaVuSans-3d" x="95.166016"/>
      <use xlink:href="#DejaVuSans-20" x="178.955078"/>
      <use xlink:href="#DejaVuSans-32" x="210.742188"/>
      <use xlink:href="#DejaVuSans-35" x="274.365234"/>
      <use xlink:href="#DejaVuSans-36" x="337.988281"/>
     </g>
    </g>
   </g>
  </g>
  <g id="axes_2">
   <g id="patch_8">
    <path d="M 295.2 260.12 
L 568.8 260.12 
L 568.8 62.9385 
L 295.2 62.9385 
z
" style="fill: #ffffff"/>
   </g>
   <g id="matplotlib.axis_3">
    <g id="xtick_8">
     <g id="line2d_16">
      <g>
       <use xlink:href="#m296237da60" x="307.636364" y="260.12" style="stroke: #000000; stroke-width: 0.8"/>
      </g>
     </g>
     <g id="text_13">
      <!-- −3 -->
      <g transform="translate(300.26527 274.718437) scale(0.1 -0.1)">
       <use xlink:href="#DejaVuSans-2212"/>
       <use xlink:href="#DejaVuSans-33" x="83.789062"/>
      </g>
     </g>
    </g>
    <g id="xtick_9">
     <g id="line2d_17">
      <g>
       <use xlink:href="#m296237da60" x="349.090909" y="260.12" style="stroke: #000000; stroke-width: 0.8"/>
      </g>
     </g>
     <g id="text_14">
      <!-- −2 -->
      <g transform="translate(341.719815 274.718437) scale(0.1 -0.1)">
       <use xlink:href="#DejaVuSans-2212"/>
       <use xlink:href="#DejaVuSans-32" x="83.789062"/>
      </g>
     </g>
    </g>
    <g id="xtick_10">
     <g id="line2d_18">
      <g>
       <use xlink:href="#m296237da60" x="390.545455" y="260.12" style="stroke: #000000; stroke-width: 0.8"/>
      </g>
     </g>
     <g id="text_15">
      <!-- −1 -->
      <g transform="translate(383.174361 274.718437) scale(0.1 -0.1)">
       <use xlink:href="#DejaVuSans-2212"/>
       <use xlink:href="#DejaVuSans-31" x="83.789062"/>
      </g>
     </g>
    </g>
    <g id="xtick_11">
     <g id="line2d_19">
      <g>
       <use xlink:href="#m296237da60" x="432" y="260.12" style="stroke: #000000; stroke-width: 0.8"/>
      </g>
     </g>
     <g id="text_16">
      <!-- 0 -->
      <g transform="translate(428.81875 274.718437) scale(0.1 -0.1)">
       <use xlink:href="#DejaVuSans-30"/>
      </g>
     </g>
    </g>
    <g id="xtick_12">
     <g id="line2d_20">
      <g>
       <use xlink:href="#m296237da60" x="473.454545" y="260.12" style="stroke: #000000; stroke-width: 0.8"/>
      </g>
     </g>
     <g id="text_17">
      <!-- 1 -->
      <g transform="translate(470.273295 274.718437) scale(0.1 -0.1)">
       <use xlink:href="#DejaVuSans-31"/>
      </g>
     </g>
    </g>
    <g id="xtick_13">
     <g id="line2d_21">
      <g>
       <use xlink:href="#m296237da60" x="514.909091" y="260.12" style="stroke: #000000; stroke-width: 0.8"/>
      </g>
     </g>
     <g id="text_18">
      <!-- 2 -->
      <g transform="translate(511.727841 274.718437) scale(0.1 -0.1)">
       <use xlink:href="#DejaVuSans-32"/>
      </g>
     </g>
    </g>
    <g id="xtick_14">
     <g id="line2d_22">
      <g>
       <use xlink:href="#m296237da60" x="556.363636" y="260.12" style="stroke: #000000; stroke-width: 0.8"/>
      </g>
     </g>
     <g id="text_19">
      <!-- 3 -->
      <g transform="translate(553.182386 274.718437) scale(0.1 -0.1)">
       <use xlink:href="#DejaVuSans-33"/>
      </g>
     </g>
    </g>
   </g>
   <g id="matplotlib.axis_4">
    <g id="ytick_3">
     <g id="line2d_23">
      <g>
       <use xlink:href="#mcc21166546" x="432" y="260.12" style="stroke: #000000; stroke-width: 0.8"/>
      </g>
     </g>
    </g>
    <g id="ytick_4">
     <g id="line2d_24">
      <g>
       <use xlink:href="#mcc21166546" x="432" y="80.864091" style="stroke: #000000; stroke-width: 0.8"/>
      </g>
     </g>
     <g id="text_20">
      <!-- 1 -->
      <g transform="translate(418.6375 84.66331) scale(0.1 -0.1)">
       <use xlink:href="#DejaVuSans-31"/>
      </g>
     </g>
    </g>
   </g>
   <g id="line2d_25">
    <path d="M 307.636364 188.53671 
L 310.14876 187.879026 
L 312.661157 187.247382 
L 315.173554 187.579944 
L 317.68595 188.349334 
L 320.198347 189.015275 
L 322.710744 189.72565 
L 325.22314 191.021674 
L 327.735537 193.101776 
L 330.247934 195.23378 
L 332.760331 195.959276 
L 335.272727 193.846883 
L 337.785124 188.069699 
L 340.297521 178.599413 
L 342.809917 166.064701 
L 345.322314 151.444803 
L 347.834711 135.81169 
L 350.347107 120.161006 
L 352.859504 105.4449 
L 355.371901 92.845272 
L 357.884298 83.973368 
L 360.396694 80.889969 
L 362.909091 86.363188 
L 365.421488 103.027022 
L 367.933884 128.5129 
L 370.446281 154.053652 
L 372.958678 172.807955 
L 375.471074 183.587514 
L 377.983471 187.986151 
L 380.495868 188.395229 
L 383.008264 187.50971 
L 385.520661 187.282474 
L 388.033058 187.895679 
L 390.545455 188.649486 
L 393.057851 189.279719 
L 395.570248 190.171766 
L 398.082645 191.820986 
L 400.595041 194.068749 
L 403.107438 195.802322 
L 405.619835 195.480915 
L 408.132231 191.880178 
L 410.644628 184.506731 
L 413.157025 173.641972 
L 415.669421 160.099397 
L 418.181818 144.923957 
L 420.694215 129.1687 
L 423.206612 113.78974 
L 425.719008 99.797487 
L 428.231405 88.546564 
L 430.743802 81.829874 
L 433.256198 81.963795 
L 435.768595 91.969056 
L 438.280992 113.115203 
L 440.793388 139.797121 
L 443.305785 162.952773 
L 445.818182 178.257324 
L 448.330579 186.090787 
L 450.842975 188.490278 
L 453.355372 188.032312 
L 455.867769 187.283411 
L 458.380165 187.477648 
L 460.892562 188.228725 
L 463.404959 188.918795 
L 465.917355 189.588803 
L 468.429752 190.760897 
L 470.942149 192.739746 
L 473.454545 194.949966 
L 475.966942 196.001824 
L 478.479339 194.411443 
L 480.991736 189.234331 
L 483.504132 180.317974 
L 486.016529 168.206899 
L 488.528926 153.844465 
L 491.041322 138.301932 
L 493.553719 122.592117 
L 496.066116 107.659781 
L 498.578512 94.630799 
L 501.090909 85.046833 
L 503.603306 80.889441 
L 506.115702 84.799531 
L 508.628099 99.653913 
L 511.140496 124.23938 
L 513.652893 150.376325 
L 516.165289 170.399858 
L 518.677686 182.365948 
L 521.190083 187.624467 
L 523.702479 188.48516 
L 526.214876 187.63604 
L 528.727273 187.247968 
L 531.239669 187.772659 
L 533.752066 188.541142 
L 536.264463 189.177963 
L 538.77686 189.989489 
L 541.289256 191.505226 
L 543.801653 193.710712 
L 546.31405 195.62649 
L 548.826446 195.725455 
L 551.338843 192.695589 
L 553.85124 185.916373 
L 556.363636 175.55784 
" clip-path="url(#p82d1cd27b1)" style="fill: none; stroke: #1f77b4; stroke-width: 2; stroke-linecap: square"/>
   </g>
   <g id="line2d_26">
    <path d="M 307.636364 182.105516 
L 310.14876 188.713391 
L 312.661157 191.768815 
L 315.173554 191.682933 
L 317.68595 189.284714 
L 320.198347 185.792226 
L 322.710744 182.81679 
L 325.22314 182.313413 
L 327.735537 185.75561 
L 330.247934 192.565229 
L 332.760331 200.033758 
L 335.272727 205.26241 
L 337.785124 206.307488 
L 340.297521 201.860247 
L 342.809917 190.926099 
L 345.322314 173.428402 
L 347.834711 151.351852 
L 350.347107 128.494902 
L 352.859504 108.375556 
L 355.371901 93.079463 
L 357.884298 83.717214 
L 360.396694 80.885139 
L 362.909091 84.796796 
L 365.421488 95.207102 
L 367.933884 110.944529 
L 370.446281 129.56372 
L 372.958678 148.049435 
L 375.471074 164.08652 
L 377.983471 176.588473 
L 380.495868 185.334706 
L 383.008264 190.418041 
L 385.520661 192.077483 
L 388.033058 190.892597 
L 390.545455 187.864027 
L 393.057851 184.367634 
L 395.570248 182.190396 
L 398.082645 183.254269 
L 400.595041 188.338582 
L 403.107438 195.815681 
L 405.619835 202.643098 
L 408.132231 206.295769 
L 410.644628 205.170013 
L 413.157025 198.084511 
L 415.669421 184.298479 
L 418.181818 164.49139 
L 420.694215 141.587168 
L 423.206612 119.536269 
L 425.719008 101.266654 
L 428.231405 88.369159 
L 430.743802 81.70806 
L 433.256198 81.711046 
L 435.768595 88.428507 
L 438.280992 101.299696 
L 440.793388 118.610964 
L 443.305785 137.526417 
L 445.818182 155.19163 
L 448.330579 169.808322 
L 450.842975 180.727157 
L 453.355372 187.913174 
L 455.867769 191.510827 
L 458.380165 191.876248 
L 460.892562 189.770994 
L 463.404959 186.355053 
L 465.917355 183.173396 
L 468.429752 182.15199 
L 470.942149 184.942559 
L 473.454545 191.364996 
L 475.966942 198.940936 
L 478.479339 204.676722 
L 480.991736 206.477467 
L 483.504132 202.97191 
L 486.016529 193.103268 
L 488.528926 176.571284 
L 491.041322 154.990548 
L 493.553719 131.99057 
L 496.066116 111.265847 
L 498.578512 95.118487 
L 501.090909 84.770192 
L 503.603306 80.885127 
L 506.115702 83.734533 
L 508.628099 93.166714 
L 511.140496 108.195809 
L 513.652893 126.562008 
L 516.165289 145.252527 
L 518.677686 161.778118 
L 521.190083 174.866967 
L 523.702479 184.202494 
L 526.214876 189.852857 
L 528.727273 192.024796 
L 531.239669 191.231999 
L 533.752066 188.412457 
L 536.264463 184.882023 
L 538.77686 182.363424 
L 541.289256 182.813707 
L 543.801653 187.308266 
L 546.31405 194.60082 
L 548.826446 201.725625 
L 551.338843 206.003455 
L 553.85124 205.715678 
L 556.363636 199.637586 
" clip-path="url(#p82d1cd27b1)" style="fill: none; stroke: #ff7f0e; stroke-width: 2; stroke-linecap: square"/>
   </g>
   <g id="line2d_27">
    <path d="M 307.636364 191.342674 
L 310.14876 197.459211 
L 312.661157 198.305273 
L 315.173554 195.616568 
L 317.68595 191.597387 
L 320.198347 188.11287 
L 322.710744 186.099575 
L 325.22314 185.721061 
L 327.735537 186.820432 
L 330.247934 189.105203 
L 332.760331 191.99007 
L 335.272727 194.297985 
L 337.785124 194.234036 
L 340.297521 189.935816 
L 342.809917 180.257001 
L 345.322314 165.287094 
L 347.834711 146.503781 
L 350.347107 126.443564 
L 352.859504 107.884699 
L 355.371901 93.11434 
L 357.884298 83.763629 
L 360.396694 80.885515 
L 362.909091 84.821141 
L 365.421488 95.057933 
L 367.933884 110.452552 
L 370.446281 129.513068 
L 372.958678 150.198854 
L 375.471074 169.675459 
L 377.983471 185.050241 
L 380.495868 194.636311 
L 383.008264 198.375769 
L 385.520661 197.479397 
L 388.033058 193.960884 
L 390.545455 189.98777 
L 393.057851 187.063994 
L 395.570248 185.746547 
L 398.082645 186.017346 
L 400.595041 187.661967 
L 403.107438 190.298748 
L 405.619835 193.125355 
L 408.132231 194.675274 
L 410.644628 193.029955 
L 413.157025 186.541761 
L 415.669421 174.542677 
L 418.181818 157.711329 
L 420.694215 138.045551 
L 423.206612 118.296461 
L 425.719008 101.094331 
L 428.231405 88.441399 
L 430.743802 81.723789 
L 433.256198 81.7232 
L 435.768595 88.420593 
L 438.280992 100.991607 
L 440.793388 118.133316 
L 443.305785 138.174693 
L 445.818182 158.730036 
L 448.330579 176.786048 
L 450.842975 189.831171 
L 453.355372 196.877641 
L 455.867769 198.459956 
L 458.380165 196.185949 
L 460.892562 192.233707 
L 463.404959 188.57708 
L 465.917355 186.306884 
L 468.429752 185.67698 
L 470.942149 186.558878 
L 473.454545 188.684541 
L 475.966942 191.534848 
L 478.479339 194.040705 
L 480.991736 194.482366 
L 483.504132 190.954319 
L 486.016529 182.153312 
L 488.528926 167.954228 
L 491.041322 149.62297 
L 493.553719 129.57477 
L 496.066116 110.609809 
L 498.578512 95.118254 
L 501.090909 84.828055 
L 503.603306 80.885518 
L 506.115702 83.759519 
L 508.628099 93.0673 
L 511.140496 107.739375 
L 513.652893 126.337785 
L 516.165289 146.937451 
L 518.677686 166.811491 
L 521.190083 182.987122 
L 523.702479 193.529043 
L 526.214876 198.136875 
L 528.727273 197.852512 
L 531.239669 194.597303 
L 533.752066 190.571228 
L 536.264463 187.423167 
L 538.77686 185.844865 
L 541.289256 185.876672 
L 543.801653 187.323731 
L 546.31405 189.842603 
L 548.826446 192.718854 
L 551.338843 194.59278 
L 553.85124 193.577483 
L 556.363636 187.928512 
" clip-path="url(#p82d1cd27b1)" style="fill: none; stroke: #2ca02c; stroke-width: 2; stroke-linecap: square"/>
   </g>
   <g id="patch_9">
    <path d="M 432 260.12 
L 432 62.9385 
" style="fill: none; stroke: #000000; stroke-width: 0.8; stroke-linejoin: miter; stroke-linecap: square"/>
   </g>
   <g id="patch_10">
    <path d="M 568.8 260.12 
L 568.8 62.9385 
" style="fill: none"/>
   </g>
   <g id="patch_11">
    <path d="M 295.2 260.12 
L 568.8 260.12 
" style="fill: none; stroke: #000000; stroke-width: 0.8; stroke-linejoin: miter; stroke-linecap: square"/>
   </g>
   <g id="patch_12">
    <path d="M 295.2 62.9385 
L 568.8 62.9385 
" style="fill: none"/>
   </g>
   <g id="text_21">
    <!-- 1 modules: $\Delta \theta$ = 0$^{\circ}$, $\Delta \lambda$ = 0 -->
    <g transform="translate(349.32 56.9385) scale(0.12 -0.12)">
     <use xlink:href="#DejaVuSans-31" transform="translate(0 0.234375)"/>
     <use xlink:href="#DejaVuSans-20" transform="translate(63.623047 0.234375)"/>
     <use xlink:href="#DejaVuSans-6d" transform="translate(95.410156 0.234375)"/>
     <use xlink:href="#DejaVuSans-6f" transform="translate(192.822266 0.234375)"/>
     <use xlink:href="#DejaVuSans-64" transform="translate(254.003906 0.234375)"/>
     <use xlink:href="#DejaVuSans-75" transform="translate(317.480469 0.234375)"/>
     <use xlink:href="#DejaVuSans-6c" transform="translate(380.859375 0.234375)"/>
     <use xlink:href="#DejaVuSans-65" transform="translate(408.642578 0.234375)"/>
     <use xlink:href="#DejaVuSans-73" transform="translate(470.166016 0.234375)"/>
     <use xlink:href="#DejaVuSans-3a" transform="translate(522.265625 0.234375)"/>
     <use xlink:href="#DejaVuSans-20" transform="translate(555.957031 0.234375)"/>
     <use xlink:href="#DejaVuSans-394" transform="translate(587.744141 0.234375)"/>
     <use xlink:href="#DejaVuSans-Oblique-3b8" transform="translate(656.152344 0.234375)"/>
     <use xlink:href="#DejaVuSans-20" transform="translate(717.333984 0.234375)"/>
     <use xlink:href="#DejaVuSans-3d" transform="translate(749.121094 0.234375)"/>
     <use xlink:href="#DejaVuSans-20" transform="translate(832.910156 0.234375)"/>
     <use xlink:href="#DejaVuSans-30" transform="translate(864.697266 0.234375)"/>
     <use xlink:href="#DejaVuSans-2218" transform="translate(929.277344 38.515625) scale(0.7)"/>
     <use xlink:href="#DejaVuSans-2c" transform="translate(975.830078 0.234375)"/>
     <use xlink:href="#DejaVuSans-20" transform="translate(1007.617188 0.234375)"/>
     <use xlink:href="#DejaVuSans-394" transform="translate(1039.404297 0.234375)"/>
     <use xlink:href="#DejaVuSans-Oblique-3bb" transform="translate(1107.8125 0.234375)"/>
     <use xlink:href="#DejaVuSans-20" transform="translate(1166.992188 0.234375)"/>
     <use xlink:href="#DejaVuSans-3d" transform="translate(1198.779297 0.234375)"/>
     <use xlink:href="#DejaVuSans-20" transform="translate(1282.568359 0.234375)"/>
     <use xlink:href="#DejaVuSans-30" transform="translate(1314.355469 0.234375)"/>
    </g>
   </g>
   <g id="legend_2">
    <g id="patch_13">
     <path d="M 302.2 255.12 
L 374.360938 255.12 
Q 376.360938 255.12 376.360938 253.12 
L 376.360938 210.085625 
Q 376.360938 208.085625 374.360938 208.085625 
L 302.2 208.085625 
Q 300.2 208.085625 300.2 210.085625 
L 300.2 253.12 
Q 300.2 255.12 302.2 255.12 
z
" style="fill: #ffffff; opacity: 0.8; stroke: #cccccc; stroke-linejoin: miter"/>
    </g>
    <g id="line2d_28">
     <path d="M 304.2 216.184062 
L 314.2 216.184062 
L 324.2 216.184062 
" style="fill: none; stroke: #1f77b4; stroke-width: 2; stroke-linecap: square"/>
    </g>
    <g id="text_22">
     <!-- n = 32 -->
     <g transform="translate(332.2 219.684062) scale(0.1 -0.1)">
      <use xlink:href="#DejaVuSans-6e"/>
      <use xlink:href="#DejaVuSans-20" x="63.378906"/>
      <use xlink:href="#DejaVuSans-3d" x="95.166016"/>
      <use xlink:href="#DejaVuSans-20" x="178.955078"/>
      <use xlink:href="#DejaVuSans-33" x="210.742188"/>
      <use xlink:href="#DejaVuSans-32" x="274.365234"/>
     </g>
    </g>
    <g id="line2d_29">
     <path d="M 304.2 230.862187 
L 314.2 230.862187 
L 324.2 230.862187 
" style="fill: none; stroke: #ff7f0e; stroke-width: 2; stroke-linecap: square"/>
    </g>
    <g id="text_23">
     <!-- n = 64 -->
     <g transform="translate(332.2 234.362187) scale(0.1 -0.1)">
      <use xlink:href="#DejaVuSans-6e"/>
      <use xlink:href="#DejaVuSans-20" x="63.378906"/>
      <use xlink:href="#DejaVuSans-3d" x="95.166016"/>
      <use xlink:href="#DejaVuSans-20" x="178.955078"/>
      <use xlink:href="#DejaVuSans-36" x="210.742188"/>
      <use xlink:href="#DejaVuSans-34" x="274.365234"/>
     </g>
    </g>
    <g id="line2d_30">
     <path d="M 304.2 245.540312 
L 314.2 245.540312 
L 324.2 245.540312 
" style="fill: none; stroke: #2ca02c; stroke-width: 2; stroke-linecap: square"/>
    </g>
    <g id="text_24">
     <!-- n = 256 -->
     <g transform="translate(332.2 249.040312) scale(0.1 -0.1)">
      <use xlink:href="#DejaVuSans-6e"/>
      <use xlink:href="#DejaVuSans-20" x="63.378906"/>
      <use xlink:href="#DejaVuSans-3d" x="95.166016"/>
      <use xlink:href="#DejaVuSans-20" x="178.955078"/>
      <use xlink:href="#DejaVuSans-32" x="210.742188"/>
      <use xlink:href="#DejaVuSans-35" x="274.365234"/>
      <use xlink:href="#DejaVuSans-36" x="337.988281"/>
     </g>
    </g>
   </g>
  </g>
  <g id="axes_3">
   <g id="patch_14">
    <path d="M 579.6 260.12 
L 853.2 260.12 
L 853.2 62.9385 
L 579.6 62.9385 
z
" style="fill: #ffffff"/>
   </g>
   <g id="matplotlib.axis_5">
    <g id="xtick_15">
     <g id="line2d_31">
      <g>
       <use xlink:href="#m296237da60" x="592.036364" y="260.12" style="stroke: #000000; stroke-width: 0.8"/>
      </g>
     </g>
     <g id="text_25">
      <!-- −3 -->
      <g transform="translate(584.66527 274.718437) scale(0.1 -0.1)">
       <use xlink:href="#DejaVuSans-2212"/>
       <use xlink:href="#DejaVuSans-33" x="83.789062"/>
      </g>
     </g>
    </g>
    <g id="xtick_16">
     <g id="line2d_32">
      <g>
       <use xlink:href="#m296237da60" x="633.490909" y="260.12" style="stroke: #000000; stroke-width: 0.8"/>
      </g>
     </g>
     <g id="text_26">
      <!-- −2 -->
      <g transform="translate(626.119815 274.718437) scale(0.1 -0.1)">
       <use xlink:href="#DejaVuSans-2212"/>
       <use xlink:href="#DejaVuSans-32" x="83.789062"/>
      </g>
     </g>
    </g>
    <g id="xtick_17">
     <g id="line2d_33">
      <g>
       <use xlink:href="#m296237da60" x="674.945455" y="260.12" style="stroke: #000000; stroke-width: 0.8"/>
      </g>
     </g>
     <g id="text_27">
      <!-- −1 -->
      <g transform="translate(667.574361 274.718437) scale(0.1 -0.1)">
       <use xlink:href="#DejaVuSans-2212"/>
       <use xlink:href="#DejaVuSans-31" x="83.789062"/>
      </g>
     </g>
    </g>
    <g id="xtick_18">
     <g id="line2d_34">
      <g>
       <use xlink:href="#m296237da60" x="716.4" y="260.12" style="stroke: #000000; stroke-width: 0.8"/>
      </g>
     </g>
     <g id="text_28">
      <!-- 0 -->
      <g transform="translate(713.21875 274.718437) scale(0.1 -0.1)">
       <use xlink:href="#DejaVuSans-30"/>
      </g>
     </g>
    </g>
    <g id="xtick_19">
     <g id="line2d_35">
      <g>
       <use xlink:href="#m296237da60" x="757.854545" y="260.12" style="stroke: #000000; stroke-width: 0.8"/>
      </g>
     </g>
     <g id="text_29">
      <!-- 1 -->
      <g transform="translate(754.673295 274.718437) scale(0.1 -0.1)">
       <use xlink:href="#DejaVuSans-31"/>
      </g>
     </g>
    </g>
    <g id="xtick_20">
     <g id="line2d_36">
      <g>
       <use xlink:href="#m296237da60" x="799.309091" y="260.12" style="stroke: #000000; stroke-width: 0.8"/>
      </g>
     </g>
     <g id="text_30">
      <!-- 2 -->
      <g transform="translate(796.127841 274.718437) scale(0.1 -0.1)">
       <use xlink:href="#DejaVuSans-32"/>
      </g>
     </g>
    </g>
    <g id="xtick_21">
     <g id="line2d_37">
      <g>
       <use xlink:href="#m296237da60" x="840.763636" y="260.12" style="stroke: #000000; stroke-width: 0.8"/>
      </g>
     </g>
     <g id="text_31">
      <!-- 3 -->
      <g transform="translate(837.582386 274.718437) scale(0.1 -0.1)">
       <use xlink:href="#DejaVuSans-33"/>
      </g>
     </g>
    </g>
   </g>
   <g id="matplotlib.axis_6">
    <g id="ytick_5">
     <g id="line2d_38">
      <g>
       <use xlink:href="#mcc21166546" x="716.4" y="260.12" style="stroke: #000000; stroke-width: 0.8"/>
      </g>
     </g>
    </g>
    <g id="ytick_6">
     <g id="line2d_39">
      <g>
       <use xlink:href="#mcc21166546" x="716.4" y="80.864091" style="stroke: #000000; stroke-width: 0.8"/>
      </g>
     </g>
     <g id="text_32">
      <!-- 1 -->
      <g transform="translate(703.0375 84.66331) scale(0.1 -0.1)">
       <use xlink:href="#DejaVuSans-31"/>
      </g>
     </g>
    </g>
   </g>
   <g id="line2d_40">
    <path d="M 592.036364 126.402834 
L 594.54876 127.626256 
L 597.061157 127.868403 
L 599.573554 127.354873 
L 602.08595 126.059251 
L 604.598347 124.06867 
L 607.110744 121.923479 
L 609.62314 120.470046 
L 612.135537 120.445924 
L 614.647934 122.134934 
L 617.160331 125.175405 
L 619.672727 128.56734 
L 622.185124 131.006567 
L 624.697521 131.386152 
L 627.209917 129.134605 
L 629.722314 124.394723 
L 632.234711 118.213615 
L 634.747107 112.510661 
L 637.259504 109.264524 
L 639.771901 109.285929 
L 642.284298 111.996879 
L 644.796694 116.266042 
L 647.309091 121.01695 
L 649.821488 125.290079 
L 652.333884 128.256485 
L 654.846281 129.379137 
L 657.358678 128.56459 
L 659.871074 126.208455 
L 662.383471 123.198295 
L 664.895868 120.865062 
L 667.408264 120.583581 
L 669.920661 122.861852 
L 672.433058 126.779188 
L 674.945455 130.683146 
L 677.457851 133.346391 
L 679.970248 134.478543 
L 682.482645 134.642294 
L 684.995041 134.884151 
L 687.507438 136.049402 
L 690.019835 138.003616 
L 692.532231 139.534383 
L 695.044628 139.124282 
L 697.557025 135.798 
L 700.069421 129.481563 
L 702.581818 120.86106 
L 705.094215 110.963238 
L 707.606612 100.911559 
L 710.119008 91.917301 
L 712.631405 85.112214 
L 715.143802 81.364865 
L 717.656198 81.389511 
L 720.168595 85.680604 
L 722.680992 93.799518 
L 725.193388 103.846163 
L 727.705785 113.239861 
L 730.218182 120.106771 
L 732.730579 123.961026 
L 735.242975 125.65303 
L 737.755372 126.937421 
L 740.267769 129.514711 
L 742.780165 133.861625 
L 745.292562 139.059973 
L 747.804959 143.731107 
L 750.317355 146.854089 
L 752.829752 147.988906 
L 755.342149 147.229618 
L 757.854545 145.090217 
L 760.366942 142.252742 
L 762.879339 139.156772 
L 765.391736 135.751846 
L 767.904132 131.784355 
L 770.416529 127.420051 
L 772.928926 123.425475 
L 775.441322 120.356355 
L 777.953719 117.707618 
L 780.466116 114.449324 
L 782.978512 110.195572 
L 785.490909 105.664875 
L 788.003306 102.334545 
L 790.515702 101.585161 
L 793.028099 103.833341 
L 795.540496 108.371567 
L 798.052893 113.893532 
L 800.565289 118.963155 
L 803.077686 122.224389 
L 805.590083 122.721563 
L 808.102479 120.371349 
L 810.614876 116.234383 
L 813.127273 112.212201 
L 815.639669 110.104081 
L 818.152066 110.720068 
L 820.664463 113.82389 
L 823.17686 118.628477 
L 825.689256 124.190425 
L 828.201653 129.585191 
L 830.71405 134.022233 
L 833.226446 136.954242 
L 835.738843 138.150494 
L 838.25124 137.743524 
L 840.763636 136.266704 
" clip-path="url(#p04c60130f0)" style="fill: none; stroke: #1f77b4; stroke-width: 2; stroke-linecap: square"/>
   </g>
   <g id="line2d_41">
    <path d="M 592.036364 138.404359 
L 594.54876 139.243926 
L 597.061157 138.655074 
L 599.573554 136.597346 
L 602.08595 133.24948 
L 604.598347 129.052748 
L 607.110744 124.664082 
L 609.62314 120.775272 
L 612.135537 117.96313 
L 614.647934 116.691546 
L 617.160331 117.249048 
L 619.672727 119.449415 
L 622.185124 122.427871 
L 624.697521 124.914486 
L 627.209917 125.81313 
L 629.722314 124.704984 
L 632.234711 122.094728 
L 634.747107 119.202729 
L 637.259504 117.203642 
L 639.771901 116.531672 
L 642.284298 116.99336 
L 644.796694 118.321625 
L 647.309091 120.407513 
L 649.821488 123.108517 
L 652.333884 125.991959 
L 654.846281 128.346947 
L 657.358678 129.497264 
L 659.871074 129.165322 
L 662.383471 127.669084 
L 664.895868 125.93674 
L 667.408264 125.298912 
L 669.920661 126.864777 
L 672.433058 130.717034 
L 674.945455 135.791363 
L 677.457851 140.606826 
L 679.970248 144.005936 
L 682.482645 145.466161 
L 684.995041 145.173983 
L 687.507438 143.920682 
L 690.019835 142.590315 
L 692.532231 141.399867 
L 695.044628 139.707338 
L 697.557025 136.587886 
L 700.069421 131.416241 
L 702.581818 124.042784 
L 705.094215 114.771959 
L 707.606612 104.394587 
L 710.119008 94.251615 
L 712.631405 86.068954 
L 715.143802 81.46879 
L 717.656198 81.476684 
L 720.168595 86.263708 
L 722.680992 94.996446 
L 725.193388 105.893681 
L 727.705785 116.790266 
L 730.218182 125.959689 
L 732.730579 132.655806 
L 735.242975 137.194756 
L 737.755372 140.537393 
L 740.267769 143.443396 
L 742.780165 145.96531 
L 745.292562 147.830721 
L 747.804959 148.935152 
L 750.317355 149.297406 
L 752.829752 148.790033 
L 755.342149 147.104096 
L 757.854545 144.007361 
L 760.366942 139.630298 
L 762.879339 134.505531 
L 765.391736 129.360903 
L 767.904132 124.951084 
L 770.416529 121.963548 
L 772.928926 120.64865 
L 775.441322 120.404654 
L 777.953719 120.045969 
L 780.466116 118.566168 
L 782.978512 115.670985 
L 785.490909 111.958381 
L 788.003306 108.867571 
L 790.515702 108.175733 
L 793.028099 110.906661 
L 795.540496 116.474328 
L 798.052893 123.051582 
L 800.565289 128.64683 
L 803.077686 131.787974 
L 805.590083 131.688346 
L 808.102479 128.344771 
L 810.614876 122.75096 
L 813.127273 116.849619 
L 815.639669 112.728602 
L 818.152066 111.56435 
L 820.664463 113.395642 
L 823.17686 117.575884 
L 825.689256 123.135451 
L 828.201653 128.983419 
L 830.71405 134.131796 
L 833.226446 137.921927 
L 835.738843 140.168607 
L 838.25124 141.106188 
L 840.763636 141.029493 
" clip-path="url(#p04c60130f0)" style="fill: none; stroke: #ff7f0e; stroke-width: 2; stroke-linecap: square"/>
   </g>
   <g id="line2d_42">
    <path d="M 592.036364 137.43997 
L 594.54876 137.292949 
L 597.061157 136.196691 
L 599.573554 133.906638 
L 602.08595 130.180498 
L 604.598347 125.157067 
L 607.110744 119.49416 
L 609.62314 114.220695 
L 612.135537 110.445601 
L 614.647934 109.079337 
L 617.160331 110.546339 
L 619.672727 114.447753 
L 622.185124 119.475228 
L 624.697521 123.878505 
L 627.209917 126.194049 
L 629.722314 125.736289 
L 632.234711 122.736415 
L 634.747107 118.206505 
L 637.259504 113.550614 
L 639.771901 110.057923 
L 642.284298 108.542221 
L 644.796694 109.212987 
L 647.309091 111.693773 
L 649.821488 115.19131 
L 652.333884 118.83768 
L 654.846281 122.035185 
L 657.358678 124.556031 
L 659.871074 126.393424 
L 662.383471 127.647466 
L 664.895868 128.608392 
L 667.408264 129.797132 
L 669.920661 131.687887 
L 672.433058 134.291429 
L 674.945455 137.081489 
L 677.457851 139.371821 
L 679.970248 140.739927 
L 682.482645 141.157227 
L 684.995041 140.830917 
L 687.507438 139.975397 
L 690.019835 138.736599 
L 692.532231 137.239341 
L 695.044628 135.498436 
L 697.557025 133.161649 
L 700.069421 129.455686 
L 702.581818 123.563568 
L 705.094215 115.188618 
L 707.606612 104.9805 
L 710.119008 94.590374 
L 712.631405 86.158204 
L 715.143802 81.472641 
L 717.656198 81.474901 
L 720.168595 86.209284 
L 722.680992 94.764724 
L 725.193388 105.325576 
L 727.705785 115.758476 
L 730.218182 124.422832 
L 732.730579 130.574107 
L 735.242975 134.265283 
L 737.755372 136.022632 
L 740.267769 136.540979 
L 742.780165 136.501933 
L 745.292562 136.449094 
L 747.804959 136.621899 
L 750.317355 136.844131 
L 752.829752 136.657455 
L 755.342149 135.665891 
L 757.854545 133.834261 
L 760.366942 131.526385 
L 762.879339 129.273039 
L 765.391736 127.491449 
L 767.904132 126.385629 
L 770.416529 125.951281 
L 772.928926 125.912738 
L 775.441322 125.709534 
L 777.953719 124.735098 
L 780.466116 122.722743 
L 782.978512 119.961186 
L 785.490909 117.143092 
L 788.003306 114.980237 
L 790.515702 113.977956 
L 793.028099 114.506458 
L 795.540496 116.784547 
L 798.052893 120.506042 
L 800.565289 124.568153 
L 803.077686 127.464665 
L 805.590083 128.041941 
L 808.102479 125.980811 
L 810.614876 121.873895 
L 813.127273 117.00948 
L 815.639669 112.912306 
L 818.152066 110.820533 
L 820.664463 111.350476 
L 823.17686 114.379021 
L 825.689256 119.10085 
L 828.201653 124.316343 
L 830.71405 128.882871 
L 833.226446 132.089178 
L 835.738843 133.762747 
L 838.25124 134.074942 
L 840.763636 133.212334 
" clip-path="url(#p04c60130f0)" style="fill: none; stroke: #2ca02c; stroke-width: 2; stroke-linecap: square"/>
   </g>
   <g id="patch_15">
    <path d="M 716.4 260.12 
L 716.4 62.9385 
" style="fill: none; stroke: #000000; stroke-width: 0.8; stroke-linejoin: miter; stroke-linecap: square"/>
   </g>
   <g id="patch_16">
    <path d="M 853.2 260.12 
L 853.2 62.9385 
" style="fill: none"/>
   </g>
   <g id="patch_17">
    <path d="M 579.6 260.12 
L 853.2 260.12 
" style="fill: none; stroke: #000000; stroke-width: 0.8; stroke-linejoin: miter; stroke-linecap: square"/>
   </g>
   <g id="patch_18">
    <path d="M 579.6 62.9385 
L 853.2 62.9385 
" style="fill: none"/>
   </g>
   <g id="text_33">
    <!-- 3 modules: $\Delta \theta$ = 0$^{\circ}$, $\Delta \lambda$ = 0 -->
    <g transform="translate(633.72 56.9385) scale(0.12 -0.12)">
     <use xlink:href="#DejaVuSans-33" transform="translate(0 0.234375)"/>
     <use xlink:href="#DejaVuSans-20" transform="translate(63.623047 0.234375)"/>
     <use xlink:href="#DejaVuSans-6d" transform="translate(95.410156 0.234375)"/>
     <use xlink:href="#DejaVuSans-6f" transform="translate(192.822266 0.234375)"/>
     <use xlink:href="#DejaVuSans-64" transform="translate(254.003906 0.234375)"/>
     <use xlink:href="#DejaVuSans-75" transform="translate(317.480469 0.234375)"/>
     <use xlink:href="#DejaVuSans-6c" transform="translate(380.859375 0.234375)"/>
     <use xlink:href="#DejaVuSans-65" transform="translate(408.642578 0.234375)"/>
     <use xlink:href="#DejaVuSans-73" transform="translate(470.166016 0.234375)"/>
     <use xlink:href="#DejaVuSans-3a" transform="translate(522.265625 0.234375)"/>
     <use xlink:href="#DejaVuSans-20" transform="translate(555.957031 0.234375)"/>
     <use xlink:href="#DejaVuSans-394" transform="translate(587.744141 0.234375)"/>
     <use xlink:href="#DejaVuSans-Oblique-3b8" transform="translate(656.152344 0.234375)"/>
     <use xlink:href="#DejaVuSans-20" transform="translate(717.333984 0.234375)"/>
     <use xlink:href="#DejaVuSans-3d" transform="translate(749.121094 0.234375)"/>
     <use xlink:href="#DejaVuSans-20" transform="translate(832.910156 0.234375)"/>
     <use xlink:href="#DejaVuSans-30" transform="translate(864.697266 0.234375)"/>
     <use xlink:href="#DejaVuSans-2218" transform="translate(929.277344 38.515625) scale(0.7)"/>
     <use xlink:href="#DejaVuSans-2c" transform="translate(975.830078 0.234375)"/>
     <use xlink:href="#DejaVuSans-20" transform="translate(1007.617188 0.234375)"/>
     <use xlink:href="#DejaVuSans-394" transform="translate(1039.404297 0.234375)"/>
     <use xlink:href="#DejaVuSans-Oblique-3bb" transform="translate(1107.8125 0.234375)"/>
     <use xlink:href="#DejaVuSans-20" transform="translate(1166.992188 0.234375)"/>
     <use xlink:href="#DejaVuSans-3d" transform="translate(1198.779297 0.234375)"/>
     <use xlink:href="#DejaVuSans-20" transform="translate(1282.568359 0.234375)"/>
     <use xlink:href="#DejaVuSans-30" transform="translate(1314.355469 0.234375)"/>
    </g>
   </g>
   <g id="legend_3">
    <g id="patch_19">
     <path d="M 586.6 255.12 
L 658.760938 255.12 
Q 660.760938 255.12 660.760938 253.12 
L 660.760938 210.085625 
Q 660.760938 208.085625 658.760938 208.085625 
L 586.6 208.085625 
Q 584.6 208.085625 584.6 210.085625 
L 584.6 253.12 
Q 584.6 255.12 586.6 255.12 
z
" style="fill: #ffffff; opacity: 0.8; stroke: #cccccc; stroke-linejoin: miter"/>
    </g>
    <g id="line2d_43">
     <path d="M 588.6 216.184062 
L 598.6 216.184062 
L 608.6 216.184062 
" style="fill: none; stroke: #1f77b4; stroke-width: 2; stroke-linecap: square"/>
    </g>
    <g id="text_34">
     <!-- n = 32 -->
     <g transform="translate(616.6 219.684062) scale(0.1 -0.1)">
      <use xlink:href="#DejaVuSans-6e"/>
      <use xlink:href="#DejaVuSans-20" x="63.378906"/>
      <use xlink:href="#DejaVuSans-3d" x="95.166016"/>
      <use xlink:href="#DejaVuSans-20" x="178.955078"/>
      <use xlink:href="#DejaVuSans-33" x="210.742188"/>
      <use xlink:href="#DejaVuSans-32" x="274.365234"/>
     </g>
    </g>
    <g id="line2d_44">
     <path d="M 588.6 230.862187 
L 598.6 230.862187 
L 608.6 230.862187 
" style="fill: none; stroke: #ff7f0e; stroke-width: 2; stroke-linecap: square"/>
    </g>
    <g id="text_35">
     <!-- n = 64 -->
     <g transform="translate(616.6 234.362187) scale(0.1 -0.1)">
      <use xlink:href="#DejaVuSans-6e"/>
      <use xlink:href="#DejaVuSans-20" x="63.378906"/>
      <use xlink:href="#DejaVuSans-3d" x="95.166016"/>
      <use xlink:href="#DejaVuSans-20" x="178.955078"/>
      <use xlink:href="#DejaVuSans-36" x="210.742188"/>
      <use xlink:href="#DejaVuSans-34" x="274.365234"/>
     </g>
    </g>
    <g id="line2d_45">
     <path d="M 588.6 245.540312 
L 598.6 245.540312 
L 608.6 245.540312 
" style="fill: none; stroke: #2ca02c; stroke-width: 2; stroke-linecap: square"/>
    </g>
    <g id="text_36">
     <!-- n = 256 -->
     <g transform="translate(616.6 249.040312) scale(0.1 -0.1)">
      <use xlink:href="#DejaVuSans-6e"/>
      <use xlink:href="#DejaVuSans-20" x="63.378906"/>
      <use xlink:href="#DejaVuSans-3d" x="95.166016"/>
      <use xlink:href="#DejaVuSans-20" x="178.955078"/>
      <use xlink:href="#DejaVuSans-32" x="210.742188"/>
      <use xlink:href="#DejaVuSans-35" x="274.365234"/>
      <use xlink:href="#DejaVuSans-36" x="337.988281"/>
     </g>
    </g>
   </g>
  </g>
  <g id="text_37">
   <!-- Orientation = 0 -->
   <g transform="translate(385.468125 23.518125) scale(0.12 -0.12)">
    <defs>
     <path id="DejaVuSans-4f" d="M 2522 4238 
Q 1834 4238 1429 3725 
Q 1025 3213 1025 2328 
Q 1025 1447 1429 934 
Q 1834 422 2522 422 
Q 3209 422 3611 934 
Q 4013 1447 4013 2328 
Q 4013 3213 3611 3725 
Q 3209 4238 2522 4238 
z
M 2522 4750 
Q 3503 4750 4090 4092 
Q 4678 3434 4678 2328 
Q 4678 1225 4090 567 
Q 3503 -91 2522 -91 
Q 1538 -91 948 565 
Q 359 1222 359 2328 
Q 359 3434 948 4092 
Q 1538 4750 2522 4750 
z
" transform="scale(0.015625)"/>
     <path id="DejaVuSans-72" d="M 2631 2963 
Q 2534 3019 2420 3045 
Q 2306 3072 2169 3072 
Q 1681 3072 1420 2755 
Q 1159 2438 1159 1844 
L 1159 0 
L 581 0 
L 581 3500 
L 1159 3500 
L 1159 2956 
Q 1341 3275 1631 3429 
Q 1922 3584 2338 3584 
Q 2397 3584 2469 3576 
Q 2541 3569 2628 3553 
L 2631 2963 
z
" transform="scale(0.015625)"/>
     <path id="DejaVuSans-69" d="M 603 3500 
L 1178 3500 
L 1178 0 
L 603 0 
L 603 3500 
z
M 603 4863 
L 1178 4863 
L 1178 4134 
L 603 4134 
L 603 4863 
z
" transform="scale(0.015625)"/>
     <path id="DejaVuSans-74" d="M 1172 4494 
L 1172 3500 
L 2356 3500 
L 2356 3053 
L 1172 3053 
L 1172 1153 
Q 1172 725 1289 603 
Q 1406 481 1766 481 
L 2356 481 
L 2356 0 
L 1766 0 
Q 1100 0 847 248 
Q 594 497 594 1153 
L 594 3053 
L 172 3053 
L 172 3500 
L 594 3500 
L 594 4494 
L 1172 4494 
z
" transform="scale(0.015625)"/>
     <path id="DejaVuSans-61" d="M 2194 1759 
Q 1497 1759 1228 1600 
Q 959 1441 959 1056 
Q 959 750 1161 570 
Q 1363 391 1709 391 
Q 2188 391 2477 730 
Q 2766 1069 2766 1631 
L 2766 1759 
L 2194 1759 
z
M 3341 1997 
L 3341 0 
L 2766 0 
L 2766 531 
Q 2569 213 2275 61 
Q 1981 -91 1556 -91 
Q 1019 -91 701 211 
Q 384 513 384 1019 
Q 384 1609 779 1909 
Q 1175 2209 1959 2209 
L 2766 2209 
L 2766 2266 
Q 2766 2663 2505 2880 
Q 2244 3097 1772 3097 
Q 1472 3097 1187 3025 
Q 903 2953 641 2809 
L 641 3341 
Q 956 3463 1253 3523 
Q 1550 3584 1831 3584 
Q 2591 3584 2966 3190 
Q 3341 2797 3341 1997 
z
" transform="scale(0.015625)"/>
    </defs>
    <use xlink:href="#DejaVuSans-4f"/>
    <use xlink:href="#DejaVuSans-72" x="78.710938"/>
    <use xlink:href="#DejaVuSans-69" x="119.824219"/>
    <use xlink:href="#DejaVuSans-65" x="147.607422"/>
    <use xlink:href="#DejaVuSans-6e" x="209.130859"/>
    <use xlink:href="#DejaVuSans-74" x="272.509766"/>
    <use xlink:href="#DejaVuSans-61" x="311.71875"/>
    <use xlink:href="#DejaVuSans-74" x="372.998047"/>
    <use xlink:href="#DejaVuSans-69" x="412.207031"/>
    <use xlink:href="#DejaVuSans-6f" x="439.990234"/>
    <use xlink:href="#DejaVuSans-6e" x="501.171875"/>
    <use xlink:href="#DejaVuSans-20" x="564.550781"/>
    <use xlink:href="#DejaVuSans-3d" x="596.337891"/>
    <use xlink:href="#DejaVuSans-20" x="680.126953"/>
    <use xlink:href="#DejaVuSans-30" x="711.914062"/>
   </g>
  </g>
 </g>
 <defs>
  <clipPath id="p822540ee5a">
   <rect x="10.8" y="62.9385" width="273.6" height="197.1815"/>
  </clipPath>
  <clipPath id="p82d1cd27b1">
   <rect x="295.2" y="62.9385" width="273.6" height="197.1815"/>
  </clipPath>
  <clipPath id="p04c60130f0">
   <rect x="579.6" y="62.9385" width="273.6" height="197.1815"/>
  </clipPath>
 </defs>
</svg>
