<?xml version="1.0" encoding="utf-8" standalone="no"?>
<!DOCTYPE svg PUBLIC "-//W3C//DTD SVG 1.1//EN"
  "http://www.w3.org/Graphics/SVG/1.1/DTD/svg11.dtd">
<svg xmlns:xlink="http://www.w3.org/1999/xlink" width="864pt" height="288pt" viewBox="0 0 864 288" xmlns="http://www.w3.org/2000/svg" version="1.1">
 <metadata>
  <rdf:RDF xmlns:dc="http://purl.org/dc/elements/1.1/" xmlns:cc="http://creativecommons.org/ns#" xmlns:rdf="http://www.w3.org/1999/02/22-rdf-syntax-ns#">
   <cc:Work>
    <dc:type rdf:resource="http://purl.org/dc/dcmitype/StillImage"/>
    <dc:date>2025-02-03T16:30:08.291112</dc:date>
    <dc:format>image/svg+xml</dc:format>
    <dc:creator>
     <cc:Agent>
      <dc:title>Matplotlib v3.9.2, https://matplotlib.org/</dc:title>
     </cc:Agent>
    </dc:creator>
   </cc:Work>
  </rdf:RDF>
 </metadata>
 <defs>
  <style type="text/css">*{stroke-linejoin: round; stroke-linecap: butt}</style>
 </defs>
 <g id="figure_1">
  <g id="patch_1">
   <path d="M 0 288 
L 864 288 
L 864 0 
L 0 0 
z
" style="fill: #ffffff"/>
  </g>
  <g id="axes_1">
   <g id="patch_2">
    <path d="M 10.8 260.12 
L 284.4 260.12 
L 284.4 62.9385 
L 10.8 62.9385 
z
" style="fill: #ffffff"/>
   </g>
   <g id="matplotlib.axis_1">
    <g id="xtick_1">
     <g id="line2d_1">
      <defs>
       <path id="m495b0eaca5" d="M 0 0 
L 0 3.5 
" style="stroke: #000000; stroke-width: 0.8"/>
      </defs>
      <g>
       <use xlink:href="#m495b0eaca5" x="23.236364" y="260.12" style="stroke: #000000; stroke-width: 0.8"/>
      </g>
     </g>
     <g id="text_1">
      <!-- −3 -->
      <g transform="translate(15.86527 274.718437) scale(0.1 -0.1)">
       <defs>
        <path id="DejaVuSans-2212" d="M 678 2272 
L 4684 2272 
L 4684 1741 
L 678 1741 
L 678 2272 
z
" transform="scale(0.015625)"/>
        <path id="DejaVuSans-33" d="M 2597 2516 
Q 3050 2419 3304 2112 
Q 3559 1806 3559 1356 
Q 3559 666 3084 287 
Q 2609 -91 1734 -91 
Q 1441 -91 1130 -33 
Q 819 25 488 141 
L 488 750 
Q 750 597 1062 519 
Q 1375 441 1716 441 
Q 2309 441 2620 675 
Q 2931 909 2931 1356 
Q 2931 1769 2642 2001 
Q 2353 2234 1838 2234 
L 1294 2234 
L 1294 2753 
L 1863 2753 
Q 2328 2753 2575 2939 
Q 2822 3125 2822 3475 
Q 2822 3834 2567 4026 
Q 2313 4219 1838 4219 
Q 1578 4219 1281 4162 
Q 984 4106 628 3988 
L 628 4550 
Q 988 4650 1302 4700 
Q 1616 4750 1894 4750 
Q 2613 4750 3031 4423 
Q 3450 4097 3450 3541 
Q 3450 3153 3228 2886 
Q 3006 2619 2597 2516 
z
" transform="scale(0.015625)"/>
       </defs>
       <use xlink:href="#DejaVuSans-2212"/>
       <use xlink:href="#DejaVuSans-33" x="83.789062"/>
      </g>
     </g>
    </g>
    <g id="xtick_2">
     <g id="line2d_2">
      <g>
       <use xlink:href="#m495b0eaca5" x="64.690909" y="260.12" style="stroke: #000000; stroke-width: 0.8"/>
      </g>
     </g>
     <g id="text_2">
      <!-- −2 -->
      <g transform="translate(57.319815 274.718437) scale(0.1 -0.1)">
       <defs>
        <path id="DejaVuSans-32" d="M 1228 531 
L 3431 531 
L 3431 0 
L 469 0 
L 469 531 
Q 828 903 1448 1529 
Q 2069 2156 2228 2338 
Q 2531 2678 2651 2914 
Q 2772 3150 2772 3378 
Q 2772 3750 2511 3984 
Q 2250 4219 1831 4219 
Q 1534 4219 1204 4116 
Q 875 4013 500 3803 
L 500 4441 
Q 881 4594 1212 4672 
Q 1544 4750 1819 4750 
Q 2544 4750 2975 4387 
Q 3406 4025 3406 3419 
Q 3406 3131 3298 2873 
Q 3191 2616 2906 2266 
Q 2828 2175 2409 1742 
Q 1991 1309 1228 531 
z
" transform="scale(0.015625)"/>
       </defs>
       <use xlink:href="#DejaVuSans-2212"/>
       <use xlink:href="#DejaVuSans-32" x="83.789062"/>
      </g>
     </g>
    </g>
    <g id="xtick_3">
     <g id="line2d_3">
      <g>
       <use xlink:href="#m495b0eaca5" x="106.145455" y="260.12" style="stroke: #000000; stroke-width: 0.8"/>
      </g>
     </g>
     <g id="text_3">
      <!-- −1 -->
      <g transform="translate(98.774361 274.718437) scale(0.1 -0.1)">
       <defs>
        <path id="DejaVuSans-31" d="M 794 531 
L 1825 531 
L 1825 4091 
L 703 3866 
L 703 4441 
L 1819 4666 
L 2450 4666 
L 2450 531 
L 3481 531 
L 3481 0 
L 794 0 
L 794 531 
z
" transform="scale(0.015625)"/>
       </defs>
       <use xlink:href="#DejaVuSans-2212"/>
       <use xlink:href="#DejaVuSans-31" x="83.789062"/>
      </g>
     </g>
    </g>
    <g id="xtick_4">
     <g id="line2d_4">
      <g>
       <use xlink:href="#m495b0eaca5" x="147.6" y="260.12" style="stroke: #000000; stroke-width: 0.8"/>
      </g>
     </g>
     <g id="text_4">
      <!-- 0 -->
      <g transform="translate(144.41875 274.718437) scale(0.1 -0.1)">
       <defs>
        <path id="DejaVuSans-30" d="M 2034 4250 
Q 1547 4250 1301 3770 
Q 1056 3291 1056 2328 
Q 1056 1369 1301 889 
Q 1547 409 2034 409 
Q 2525 409 2770 889 
Q 3016 1369 3016 2328 
Q 3016 3291 2770 3770 
Q 2525 4250 2034 4250 
z
M 2034 4750 
Q 2819 4750 3233 4129 
Q 3647 3509 3647 2328 
Q 3647 1150 3233 529 
Q 2819 -91 2034 -91 
Q 1250 -91 836 529 
Q 422 1150 422 2328 
Q 422 3509 836 4129 
Q 1250 4750 2034 4750 
z
" transform="scale(0.015625)"/>
       </defs>
       <use xlink:href="#DejaVuSans-30"/>
      </g>
     </g>
    </g>
    <g id="xtick_5">
     <g id="line2d_5">
      <g>
       <use xlink:href="#m495b0eaca5" x="189.054545" y="260.12" style="stroke: #000000; stroke-width: 0.8"/>
      </g>
     </g>
     <g id="text_5">
      <!-- 1 -->
      <g transform="translate(185.873295 274.718437) scale(0.1 -0.1)">
       <use xlink:href="#DejaVuSans-31"/>
      </g>
     </g>
    </g>
    <g id="xtick_6">
     <g id="line2d_6">
      <g>
       <use xlink:href="#m495b0eaca5" x="230.509091" y="260.12" style="stroke: #000000; stroke-width: 0.8"/>
      </g>
     </g>
     <g id="text_6">
      <!-- 2 -->
      <g transform="translate(227.327841 274.718437) scale(0.1 -0.1)">
       <use xlink:href="#DejaVuSans-32"/>
      </g>
     </g>
    </g>
    <g id="xtick_7">
     <g id="line2d_7">
      <g>
       <use xlink:href="#m495b0eaca5" x="271.963636" y="260.12" style="stroke: #000000; stroke-width: 0.8"/>
      </g>
     </g>
     <g id="text_7">
      <!-- 3 -->
      <g transform="translate(268.782386 274.718437) scale(0.1 -0.1)">
       <use xlink:href="#DejaVuSans-33"/>
      </g>
     </g>
    </g>
   </g>
   <g id="matplotlib.axis_2">
    <g id="ytick_1">
     <g id="line2d_8">
      <defs>
       <path id="m65f3213ce3" d="M 0 0 
L -3.5 0 
" style="stroke: #000000; stroke-width: 0.8"/>
      </defs>
      <g>
       <use xlink:href="#m65f3213ce3" x="147.6" y="260.12" style="stroke: #000000; stroke-width: 0.8"/>
      </g>
     </g>
    </g>
    <g id="ytick_2">
     <g id="line2d_9">
      <g>
       <use xlink:href="#m65f3213ce3" x="147.6" y="80.864091" style="stroke: #000000; stroke-width: 0.8"/>
      </g>
     </g>
     <g id="text_8">
      <!-- 1 -->
      <g transform="translate(134.2375 84.66331) scale(0.1 -0.1)">
       <use xlink:href="#DejaVuSans-31"/>
      </g>
     </g>
    </g>
   </g>
   <g id="line2d_10">
    <path d="M 23.236364 184.653959 
L 25.74876 181.907148 
L 28.261157 176.027639 
L 30.773554 167.379074 
L 33.28595 156.753653 
L 35.798347 146.175263 
L 38.310744 138.096198 
L 40.82314 133.902986 
L 43.335537 133.613658 
L 45.847934 136.940391 
L 48.360331 143.904179 
L 50.872727 154.001225 
L 53.385124 165.164019 
L 55.897521 174.584208 
L 58.409917 180.472015 
L 60.922314 182.567828 
L 63.434711 181.694895 
L 65.947107 179.286348 
L 68.459504 176.898347 
L 70.971901 175.629836 
L 73.484298 175.906595 
L 75.996694 177.810684 
L 78.509091 181.332415 
L 81.021488 186.093169 
L 83.533884 191.002918 
L 86.046281 194.494811 
L 88.558678 195.079242 
L 91.071074 191.708932 
L 93.583471 184.092148 
L 96.095868 173.005007 
L 98.608264 159.945273 
L 101.120661 146.233989 
L 103.633058 132.879298 
L 106.145455 121.152493 
L 108.657851 112.721788 
L 111.170248 109.04292 
L 113.682645 110.719503 
L 116.195041 117.609181 
L 118.707438 129.466854 
L 121.219835 145.873883 
L 123.732231 164.33648 
L 126.244628 179.335723 
L 128.757025 185.968742 
L 131.269421 182.536731 
L 133.781818 169.459166 
L 136.294215 148.889122 
L 138.806612 125.284297 
L 141.319008 104.028861 
L 143.831405 88.986282 
L 146.343802 81.705098 
L 148.856198 81.621657 
L 151.368595 86.90577 
L 153.880992 95.74942 
L 156.393388 107.067367 
L 158.905785 120.473528 
L 161.418182 135.923978 
L 163.930579 152.942754 
L 166.442975 169.492072 
L 168.955372 182.138538 
L 171.467769 188.291608 
L 173.980165 187.693833 
L 176.492562 181.974618 
L 179.004959 173.550443 
L 181.517355 164.367468 
L 184.029752 155.389024 
L 186.542149 147.570271 
L 189.054545 142.889898 
L 191.566942 143.453164 
L 194.079339 149.288101 
L 196.591736 158.216677 
L 199.104132 167.87047 
L 201.616529 176.853402 
L 204.128926 184.555093 
L 206.641322 190.628816 
L 209.153719 194.683061 
L 211.666116 196.35949 
L 214.178512 195.671047 
L 216.690909 193.240948 
L 219.203306 190.179416 
L 221.715702 187.487001 
L 224.228099 185.310754 
L 226.740496 182.864005 
L 229.252893 179.203847 
L 231.765289 174.348387 
L 234.277686 170.032205 
L 236.790083 168.332347 
L 239.302479 168.703843 
L 241.814876 168.533094 
L 244.327273 165.832241 
L 246.839669 160.116817 
L 249.352066 152.33883 
L 251.864463 144.365798 
L 254.37686 137.57624 
L 256.889256 132.091783 
L 259.401653 127.732204 
L 261.91405 124.89071 
L 264.426446 124.065735 
L 266.938843 124.91638 
L 269.45124 126.435783 
L 271.963636 128.326813 
" clip-path="url(#p326f80ddc9)" style="fill: none; stroke: #1f77b4; stroke-width: 2; stroke-linecap: square"/>
   </g>
   <g id="line2d_11">
    <path d="M 23.236364 165.005579 
L 25.74876 159.056143 
L 28.261157 150.744447 
L 30.773554 141.169923 
L 33.28595 132.200919 
L 35.798347 126.849532 
L 38.310744 128.088232 
L 40.82314 135.895799 
L 43.335537 146.795292 
L 45.847934 157.086699 
L 48.360331 164.922324 
L 50.872727 170.040759 
L 53.385124 173.087969 
L 55.897521 175.165528 
L 58.409917 177.098729 
L 60.922314 178.672991 
L 63.434711 179.030835 
L 65.947107 177.629156 
L 68.459504 174.55697 
L 70.971901 170.596768 
L 73.484298 167.494763 
L 75.996694 167.687147 
L 78.509091 172.256835 
L 81.021488 179.256117 
L 83.533884 185.569069 
L 86.046281 189.194781 
L 88.558678 189.345208 
L 91.071074 185.816903 
L 93.583471 178.735741 
L 96.095868 168.667757 
L 98.608264 156.859425 
L 101.120661 145.351944 
L 103.633058 136.540753 
L 106.145455 132.141403 
L 108.657851 132.53852 
L 111.170248 137.17432 
L 113.682645 145.256898 
L 116.195041 155.927453 
L 118.707438 167.862796 
L 121.219835 178.982615 
L 123.732231 186.881796 
L 126.244628 189.630095 
L 128.757025 186.17376 
L 131.269421 176.334443 
L 133.781818 160.792626 
L 136.294215 141.194442 
L 138.806612 120.275821 
L 141.319008 101.562495 
L 143.831405 88.199579 
L 146.343802 81.641819 
L 148.856198 81.597223 
L 151.368595 87.116017 
L 153.880992 97.555814 
L 156.393388 112.630937 
L 158.905785 131.464954 
L 161.418182 151.510205 
L 163.930579 168.984267 
L 166.442975 180.760134 
L 168.955372 185.680992 
L 171.467769 184.548039 
L 173.980165 179.294396 
L 176.492562 171.909019 
L 179.004959 163.844959 
L 181.517355 156.103954 
L 184.029752 149.532459 
L 186.542149 144.988281 
L 189.054545 143.302635 
L 191.566942 144.983717 
L 194.079339 149.729951 
L 196.591736 156.235557 
L 199.104132 162.702401 
L 201.616529 167.672756 
L 204.128926 170.581697 
L 206.641322 171.881142 
L 209.153719 172.682881 
L 211.666116 173.975836 
L 214.178512 176.032956 
L 216.690909 178.521498 
L 219.203306 180.965469 
L 221.715702 183.038835 
L 224.228099 184.634908 
L 226.740496 185.874533 
L 229.252893 187.076403 
L 231.765289 188.434854 
L 234.277686 189.321565 
L 236.790083 188.181077 
L 239.302479 183.576707 
L 241.814876 175.069589 
L 244.327273 163.336572 
L 246.839669 150.035098 
L 249.352066 137.528097 
L 251.864463 128.378444 
L 254.37686 124.603435 
L 256.889256 126.651971 
L 259.401653 132.913482 
L 261.91405 140.779615 
L 264.426446 148.200208 
L 266.938843 154.256611 
L 269.45124 158.906355 
L 271.963636 162.438877 
" clip-path="url(#p326f80ddc9)" style="fill: none; stroke: #ff7f0e; stroke-width: 2; stroke-linecap: square"/>
   </g>
   <g id="line2d_12">
    <path d="M 23.236364 170.832159 
L 25.74876 162.802302 
L 28.261157 152.791392 
L 30.773554 142.884939 
L 33.28595 134.885234 
L 35.798347 129.72003 
L 38.310744 127.461824 
L 40.82314 127.837373 
L 43.335537 130.775257 
L 45.847934 136.688232 
L 48.360331 146.176153 
L 50.872727 158.818897 
L 53.385124 172.147039 
L 55.897521 182.922425 
L 58.409917 189.358364 
L 60.922314 191.539594 
L 63.434711 190.641783 
L 65.947107 188.183696 
L 68.459504 185.466685 
L 70.971901 183.278943 
L 73.484298 181.980457 
L 75.996694 181.718908 
L 78.509091 182.479664 
L 81.021488 183.983871 
L 83.533884 185.629819 
L 86.046281 186.581912 
L 88.558678 185.935157 
L 91.071074 182.868637 
L 93.583471 176.851249 
L 96.095868 168.005195 
L 98.608264 157.491119 
L 101.120661 147.457178 
L 103.633058 140.182489 
L 106.145455 136.973356 
L 108.657851 137.923406 
L 111.170248 142.518355 
L 113.682645 150.150067 
L 116.195041 160.088437 
L 118.707438 171.115398 
L 121.219835 181.294262 
L 123.732231 188.272122 
L 126.244628 189.984071 
L 128.757025 185.197688 
L 131.269421 173.711294 
L 133.781818 156.526128 
L 136.294215 136.048434 
L 138.806612 115.74127 
L 141.319008 98.873303 
L 143.831405 87.322156 
L 146.343802 81.578061 
L 148.856198 81.579911 
L 151.368595 87.383134 
L 153.880992 99.262524 
L 156.393388 117.177548 
L 158.905785 139.53874 
L 161.418182 162.267562 
L 163.930579 180.344103 
L 166.442975 190.820805 
L 168.955372 193.52528 
L 171.467769 189.723785 
L 173.980165 181.099892 
L 176.492562 169.549465 
L 179.004959 157.213363 
L 181.517355 146.294526 
L 184.029752 138.630255 
L 186.542149 135.329916 
L 189.054545 136.75207 
L 191.566942 142.65812 
L 194.079339 152.1472 
L 196.591736 163.464996 
L 199.104132 174.301939 
L 201.616529 182.650611 
L 204.128926 187.492736 
L 206.641322 188.889404 
L 209.153719 187.66306 
L 211.666116 184.95918 
L 214.178512 181.895874 
L 216.690909 179.422924 
L 219.203306 178.319439 
L 221.715702 179.114028 
L 224.228099 181.832504 
L 226.740496 185.786308 
L 229.252893 189.696653 
L 231.765289 192.116053 
L 234.277686 191.855713 
L 236.790083 188.265564 
L 239.302479 181.348178 
L 241.814876 171.646766 
L 244.327273 160.031539 
L 246.839669 147.706768 
L 249.352066 136.309219 
L 251.864463 127.579059 
L 254.37686 122.665677 
L 256.889256 121.836198 
L 259.401653 124.858845 
L 261.91405 131.433059 
L 264.426446 141.081035 
L 266.938843 152.558018 
L 269.45124 163.549847 
L 271.963636 171.469572 
" clip-path="url(#p326f80ddc9)" style="fill: none; stroke: #2ca02c; stroke-width: 2; stroke-linecap: square"/>
   </g>
   <g id="patch_3">
    <path d="M 147.6 260.12 
L 147.6 62.9385 
" style="fill: none; stroke: #000000; stroke-width: 0.8; stroke-linejoin: miter; stroke-linecap: square"/>
   </g>
   <g id="patch_4">
    <path d="M 284.4 260.12 
L 284.4 62.9385 
" style="fill: none"/>
   </g>
   <g id="patch_5">
    <path d="M 10.8 260.12 
L 284.4 260.12 
" style="fill: none; stroke: #000000; stroke-width: 0.8; stroke-linejoin: miter; stroke-linecap: square"/>
   </g>
   <g id="patch_6">
    <path d="M 10.8 62.9385 
L 284.4 62.9385 
" style="fill: none"/>
   </g>
   <g id="text_9">
    <!-- 1 modules: $\Delta \theta$ = 2$^{\circ}$, $\Delta \lambda$ = 0.05 -->
    <g transform="translate(55.32 56.9385) scale(0.12 -0.12)">
     <defs>
      <path id="DejaVuSans-20" transform="scale(0.015625)"/>
      <path id="DejaVuSans-6d" d="M 3328 2828 
Q 3544 3216 3844 3400 
Q 4144 3584 4550 3584 
Q 5097 3584 5394 3201 
Q 5691 2819 5691 2113 
L 5691 0 
L 5113 0 
L 5113 2094 
Q 5113 2597 4934 2840 
Q 4756 3084 4391 3084 
Q 3944 3084 3684 2787 
Q 3425 2491 3425 1978 
L 3425 0 
L 2847 0 
L 2847 2094 
Q 2847 2600 2669 2842 
Q 2491 3084 2119 3084 
Q 1678 3084 1418 2786 
Q 1159 2488 1159 1978 
L 1159 0 
L 581 0 
L 581 3500 
L 1159 3500 
L 1159 2956 
Q 1356 3278 1631 3431 
Q 1906 3584 2284 3584 
Q 2666 3584 2933 3390 
Q 3200 3197 3328 2828 
z
" transform="scale(0.015625)"/>
      <path id="DejaVuSans-6f" d="M 1959 3097 
Q 1497 3097 1228 2736 
Q 959 2375 959 1747 
Q 959 1119 1226 758 
Q 1494 397 1959 397 
Q 2419 397 2687 759 
Q 2956 1122 2956 1747 
Q 2956 2369 2687 2733 
Q 2419 3097 1959 3097 
z
M 1959 3584 
Q 2709 3584 3137 3096 
Q 3566 2609 3566 1747 
Q 3566 888 3137 398 
Q 2709 -91 1959 -91 
Q 1206 -91 779 398 
Q 353 888 353 1747 
Q 353 2609 779 3096 
Q 1206 3584 1959 3584 
z
" transform="scale(0.015625)"/>
      <path id="DejaVuSans-64" d="M 2906 2969 
L 2906 4863 
L 3481 4863 
L 3481 0 
L 2906 0 
L 2906 525 
Q 2725 213 2448 61 
Q 2172 -91 1784 -91 
Q 1150 -91 751 415 
Q 353 922 353 1747 
Q 353 2572 751 3078 
Q 1150 3584 1784 3584 
Q 2172 3584 2448 3432 
Q 2725 3281 2906 2969 
z
M 947 1747 
Q 947 1113 1208 752 
Q 1469 391 1925 391 
Q 2381 391 2643 752 
Q 2906 1113 2906 1747 
Q 2906 2381 2643 2742 
Q 2381 3103 1925 3103 
Q 1469 3103 1208 2742 
Q 947 2381 947 1747 
z
" transform="scale(0.015625)"/>
      <path id="DejaVuSans-75" d="M 544 1381 
L 544 3500 
L 1119 3500 
L 1119 1403 
Q 1119 906 1312 657 
Q 1506 409 1894 409 
Q 2359 409 2629 706 
Q 2900 1003 2900 1516 
L 2900 3500 
L 3475 3500 
L 3475 0 
L 2900 0 
L 2900 538 
Q 2691 219 2414 64 
Q 2138 -91 1772 -91 
Q 1169 -91 856 284 
Q 544 659 544 1381 
z
M 1991 3584 
L 1991 3584 
z
" transform="scale(0.015625)"/>
      <path id="DejaVuSans-6c" d="M 603 4863 
L 1178 4863 
L 1178 0 
L 603 0 
L 603 4863 
z
" transform="scale(0.015625)"/>
      <path id="DejaVuSans-65" d="M 3597 1894 
L 3597 1613 
L 953 1613 
Q 991 1019 1311 708 
Q 1631 397 2203 397 
Q 2534 397 2845 478 
Q 3156 559 3463 722 
L 3463 178 
Q 3153 47 2828 -22 
Q 2503 -91 2169 -91 
Q 1331 -91 842 396 
Q 353 884 353 1716 
Q 353 2575 817 3079 
Q 1281 3584 2069 3584 
Q 2775 3584 3186 3129 
Q 3597 2675 3597 1894 
z
M 3022 2063 
Q 3016 2534 2758 2815 
Q 2500 3097 2075 3097 
Q 1594 3097 1305 2825 
Q 1016 2553 972 2059 
L 3022 2063 
z
" transform="scale(0.015625)"/>
      <path id="DejaVuSans-73" d="M 2834 3397 
L 2834 2853 
Q 2591 2978 2328 3040 
Q 2066 3103 1784 3103 
Q 1356 3103 1142 2972 
Q 928 2841 928 2578 
Q 928 2378 1081 2264 
Q 1234 2150 1697 2047 
L 1894 2003 
Q 2506 1872 2764 1633 
Q 3022 1394 3022 966 
Q 3022 478 2636 193 
Q 2250 -91 1575 -91 
Q 1294 -91 989 -36 
Q 684 19 347 128 
L 347 722 
Q 666 556 975 473 
Q 1284 391 1588 391 
Q 1994 391 2212 530 
Q 2431 669 2431 922 
Q 2431 1156 2273 1281 
Q 2116 1406 1581 1522 
L 1381 1569 
Q 847 1681 609 1914 
Q 372 2147 372 2553 
Q 372 3047 722 3315 
Q 1072 3584 1716 3584 
Q 2034 3584 2315 3537 
Q 2597 3491 2834 3397 
z
" transform="scale(0.015625)"/>
      <path id="DejaVuSans-3a" d="M 750 794 
L 1409 794 
L 1409 0 
L 750 0 
L 750 794 
z
M 750 3309 
L 1409 3309 
L 1409 2516 
L 750 2516 
L 750 3309 
z
" transform="scale(0.015625)"/>
      <path id="DejaVuSans-394" d="M 2188 4044 
L 906 525 
L 3472 525 
L 2188 4044 
z
M 50 0 
L 1831 4666 
L 2547 4666 
L 4325 0 
L 50 0 
z
" transform="scale(0.015625)"/>
      <path id="DejaVuSans-Oblique-3b8" d="M 2913 2219 
L 925 2219 
Q 791 1284 928 888 
Q 1100 400 1566 400 
Q 2034 400 2391 891 
Q 2703 1322 2913 2219 
z
M 3009 2750 
Q 3094 3638 2984 3950 
Q 2813 4444 2353 4444 
Q 1875 4444 1525 3956 
Q 1250 3563 1034 2750 
L 3009 2750 
z
M 2444 4913 
Q 3194 4913 3494 4250 
Q 3794 3591 3566 2422 
Q 3341 1256 2781 594 
Q 2225 -72 1475 -72 
Q 722 -72 425 594 
Q 128 1256 353 2422 
Q 581 3591 1134 4250 
Q 1691 4913 2444 4913 
z
" transform="scale(0.015625)"/>
      <path id="DejaVuSans-3d" d="M 678 2906 
L 4684 2906 
L 4684 2381 
L 678 2381 
L 678 2906 
z
M 678 1631 
L 4684 1631 
L 4684 1100 
L 678 1100 
L 678 1631 
z
" transform="scale(0.015625)"/>
      <path id="DejaVuSans-2218" d="M 2003 2603 
Q 1753 2603 1581 2429 
Q 1409 2256 1409 2006 
Q 1409 1759 1581 1589 
Q 1753 1419 2003 1419 
Q 2253 1419 2425 1589 
Q 2597 1759 2597 2006 
Q 2597 2253 2423 2428 
Q 2250 2603 2003 2603 
z
M 2003 3006 
Q 2203 3006 2387 2929 
Q 2572 2853 2706 2709 
Q 2850 2569 2922 2390 
Q 2994 2212 2994 2006 
Q 2994 1594 2705 1308 
Q 2416 1022 1997 1022 
Q 1575 1022 1294 1303 
Q 1013 1584 1013 2006 
Q 1013 2425 1300 2715 
Q 1588 3006 2003 3006 
z
" transform="scale(0.015625)"/>
      <path id="DejaVuSans-2c" d="M 750 794 
L 1409 794 
L 1409 256 
L 897 -744 
L 494 -744 
L 750 256 
L 750 794 
z
" transform="scale(0.015625)"/>
      <path id="DejaVuSans-Oblique-3bb" d="M 2350 4316 
L 3125 0 
L 2516 0 
L 2038 2588 
L 328 0 
L -281 0 
L 1903 3356 
L 1794 3975 
Q 1725 4369 1391 4369 
L 1091 4369 
L 1184 4863 
L 1550 4856 
Q 2253 4847 2350 4316 
z
" transform="scale(0.015625)"/>
      <path id="DejaVuSans-2e" d="M 684 794 
L 1344 794 
L 1344 0 
L 684 0 
L 684 794 
z
" transform="scale(0.015625)"/>
      <path id="DejaVuSans-35" d="M 691 4666 
L 3169 4666 
L 3169 4134 
L 1269 4134 
L 1269 2991 
Q 1406 3038 1543 3061 
Q 1681 3084 1819 3084 
Q 2600 3084 3056 2656 
Q 3513 2228 3513 1497 
Q 3513 744 3044 326 
Q 2575 -91 1722 -91 
Q 1428 -91 1123 -41 
Q 819 9 494 109 
L 494 744 
Q 775 591 1075 516 
Q 1375 441 1709 441 
Q 2250 441 2565 725 
Q 2881 1009 2881 1497 
Q 2881 1984 2565 2268 
Q 2250 2553 1709 2553 
Q 1456 2553 1204 2497 
Q 953 2441 691 2322 
L 691 4666 
z
" transform="scale(0.015625)"/>
     </defs>
     <use xlink:href="#DejaVuSans-31" transform="translate(0 0.234375)"/>
     <use xlink:href="#DejaVuSans-20" transform="translate(63.623047 0.234375)"/>
     <use xlink:href="#DejaVuSans-6d" transform="translate(95.410156 0.234375)"/>
     <use xlink:href="#DejaVuSans-6f" transform="translate(192.822266 0.234375)"/>
     <use xlink:href="#DejaVuSans-64" transform="translate(254.003906 0.234375)"/>
     <use xlink:href="#DejaVuSans-75" transform="translate(317.480469 0.234375)"/>
     <use xlink:href="#DejaVuSans-6c" transform="translate(380.859375 0.234375)"/>
     <use xlink:href="#DejaVuSans-65" transform="translate(408.642578 0.234375)"/>
     <use xlink:href="#DejaVuSans-73" transform="translate(470.166016 0.234375)"/>
     <use xlink:href="#DejaVuSans-3a" transform="translate(522.265625 0.234375)"/>
     <use xlink:href="#DejaVuSans-20" transform="translate(555.957031 0.234375)"/>
     <use xlink:href="#DejaVuSans-394" transform="translate(587.744141 0.234375)"/>
     <use xlink:href="#DejaVuSans-Oblique-3b8" transform="translate(656.152344 0.234375)"/>
     <use xlink:href="#DejaVuSans-20" transform="translate(717.333984 0.234375)"/>
     <use xlink:href="#DejaVuSans-3d" transform="translate(749.121094 0.234375)"/>
     <use xlink:href="#DejaVuSans-20" transform="translate(832.910156 0.234375)"/>
     <use xlink:href="#DejaVuSans-32" transform="translate(864.697266 0.234375)"/>
     <use xlink:href="#DejaVuSans-2218" transform="translate(929.277344 38.515625) scale(0.7)"/>
     <use xlink:href="#DejaVuSans-2c" transform="translate(975.830078 0.234375)"/>
     <use xlink:href="#DejaVuSans-20" transform="translate(1007.617188 0.234375)"/>
     <use xlink:href="#DejaVuSans-394" transform="translate(1039.404297 0.234375)"/>
     <use xlink:href="#DejaVuSans-Oblique-3bb" transform="translate(1107.8125 0.234375)"/>
     <use xlink:href="#DejaVuSans-20" transform="translate(1166.992188 0.234375)"/>
     <use xlink:href="#DejaVuSans-3d" transform="translate(1198.779297 0.234375)"/>
     <use xlink:href="#DejaVuSans-20" transform="translate(1282.568359 0.234375)"/>
     <use xlink:href="#DejaVuSans-30" transform="translate(1314.355469 0.234375)"/>
     <use xlink:href="#DejaVuSans-2e" transform="translate(1377.978516 0.234375)"/>
     <use xlink:href="#DejaVuSans-30" transform="translate(1409.765625 0.234375)"/>
     <use xlink:href="#DejaVuSans-35" transform="translate(1473.388672 0.234375)"/>
    </g>
   </g>
   <g id="legend_1">
    <g id="patch_7">
     <path d="M 17.8 255.12 
L 89.960938 255.12 
Q 91.960938 255.12 91.960938 253.12 
L 91.960938 210.085625 
Q 91.960938 208.085625 89.960938 208.085625 
L 17.8 208.085625 
Q 15.8 208.085625 15.8 210.085625 
L 15.8 253.12 
Q 15.8 255.12 17.8 255.12 
z
" style="fill: #ffffff; opacity: 0.8; stroke: #cccccc; stroke-linejoin: miter"/>
    </g>
    <g id="line2d_13">
     <path d="M 19.8 216.184062 
L 29.8 216.184062 
L 39.8 216.184062 
" style="fill: none; stroke: #1f77b4; stroke-width: 2; stroke-linecap: square"/>
    </g>
    <g id="text_10">
     <!-- n = 32 -->
     <g transform="translate(47.8 219.684062) scale(0.1 -0.1)">
      <defs>
       <path id="DejaVuSans-6e" d="M 3513 2113 
L 3513 0 
L 2938 0 
L 2938 2094 
Q 2938 2591 2744 2837 
Q 2550 3084 2163 3084 
Q 1697 3084 1428 2787 
Q 1159 2491 1159 1978 
L 1159 0 
L 581 0 
L 581 3500 
L 1159 3500 
L 1159 2956 
Q 1366 3272 1645 3428 
Q 1925 3584 2291 3584 
Q 2894 3584 3203 3211 
Q 3513 2838 3513 2113 
z
" transform="scale(0.015625)"/>
      </defs>
      <use xlink:href="#DejaVuSans-6e"/>
      <use xlink:href="#DejaVuSans-20" x="63.378906"/>
      <use xlink:href="#DejaVuSans-3d" x="95.166016"/>
      <use xlink:href="#DejaVuSans-20" x="178.955078"/>
      <use xlink:href="#DejaVuSans-33" x="210.742188"/>
      <use xlink:href="#DejaVuSans-32" x="274.365234"/>
     </g>
    </g>
    <g id="line2d_14">
     <path d="M 19.8 230.862187 
L 29.8 230.862187 
L 39.8 230.862187 
" style="fill: none; stroke: #ff7f0e; stroke-width: 2; stroke-linecap: square"/>
    </g>
    <g id="text_11">
     <!-- n = 64 -->
     <g transform="translate(47.8 234.362187) scale(0.1 -0.1)">
      <defs>
       <path id="DejaVuSans-36" d="M 2113 2584 
Q 1688 2584 1439 2293 
Q 1191 2003 1191 1497 
Q 1191 994 1439 701 
Q 1688 409 2113 409 
Q 2538 409 2786 701 
Q 3034 994 3034 1497 
Q 3034 2003 2786 2293 
Q 2538 2584 2113 2584 
z
M 3366 4563 
L 3366 3988 
Q 3128 4100 2886 4159 
Q 2644 4219 2406 4219 
Q 1781 4219 1451 3797 
Q 1122 3375 1075 2522 
Q 1259 2794 1537 2939 
Q 1816 3084 2150 3084 
Q 2853 3084 3261 2657 
Q 3669 2231 3669 1497 
Q 3669 778 3244 343 
Q 2819 -91 2113 -91 
Q 1303 -91 875 529 
Q 447 1150 447 2328 
Q 447 3434 972 4092 
Q 1497 4750 2381 4750 
Q 2619 4750 2861 4703 
Q 3103 4656 3366 4563 
z
" transform="scale(0.015625)"/>
       <path id="DejaVuSans-34" d="M 2419 4116 
L 825 1625 
L 2419 1625 
L 2419 4116 
z
M 2253 4666 
L 3047 4666 
L 3047 1625 
L 3713 1625 
L 3713 1100 
L 3047 1100 
L 3047 0 
L 2419 0 
L 2419 1100 
L 313 1100 
L 313 1709 
L 2253 4666 
z
" transform="scale(0.015625)"/>
      </defs>
      <use xlink:href="#DejaVuSans-6e"/>
      <use xlink:href="#DejaVuSans-20" x="63.378906"/>
      <use xlink:href="#DejaVuSans-3d" x="95.166016"/>
      <use xlink:href="#DejaVuSans-20" x="178.955078"/>
      <use xlink:href="#DejaVuSans-36" x="210.742188"/>
      <use xlink:href="#DejaVuSans-34" x="274.365234"/>
     </g>
    </g>
    <g id="line2d_15">
     <path d="M 19.8 245.540312 
L 29.8 245.540312 
L 39.8 245.540312 
" style="fill: none; stroke: #2ca02c; stroke-width: 2; stroke-linecap: square"/>
    </g>
    <g id="text_12">
     <!-- n = 256 -->
     <g transform="translate(47.8 249.040312) scale(0.1 -0.1)">
      <use xlink:href="#DejaVuSans-6e"/>
      <use xlink:href="#DejaVuSans-20" x="63.378906"/>
      <use xlink:href="#DejaVuSans-3d" x="95.166016"/>
      <use xlink:href="#DejaVuSans-20" x="178.955078"/>
      <use xlink:href="#DejaVuSans-32" x="210.742188"/>
      <use xlink:href="#DejaVuSans-35" x="274.365234"/>
      <use xlink:href="#DejaVuSans-36" x="337.988281"/>
     </g>
    </g>
   </g>
  </g>
  <g id="axes_2">
   <g id="patch_8">
    <path d="M 295.2 260.12 
L 568.8 260.12 
L 568.8 62.9385 
L 295.2 62.9385 
z
" style="fill: #ffffff"/>
   </g>
   <g id="matplotlib.axis_3">
    <g id="xtick_8">
     <g id="line2d_16">
      <g>
       <use xlink:href="#m495b0eaca5" x="307.636364" y="260.12" style="stroke: #000000; stroke-width: 0.8"/>
      </g>
     </g>
     <g id="text_13">
      <!-- −3 -->
      <g transform="translate(300.26527 274.718437) scale(0.1 -0.1)">
       <use xlink:href="#DejaVuSans-2212"/>
       <use xlink:href="#DejaVuSans-33" x="83.789062"/>
      </g>
     </g>
    </g>
    <g id="xtick_9">
     <g id="line2d_17">
      <g>
       <use xlink:href="#m495b0eaca5" x="349.090909" y="260.12" style="stroke: #000000; stroke-width: 0.8"/>
      </g>
     </g>
     <g id="text_14">
      <!-- −2 -->
      <g transform="translate(341.719815 274.718437) scale(0.1 -0.1)">
       <use xlink:href="#DejaVuSans-2212"/>
       <use xlink:href="#DejaVuSans-32" x="83.789062"/>
      </g>
     </g>
    </g>
    <g id="xtick_10">
     <g id="line2d_18">
      <g>
       <use xlink:href="#m495b0eaca5" x="390.545455" y="260.12" style="stroke: #000000; stroke-width: 0.8"/>
      </g>
     </g>
     <g id="text_15">
      <!-- −1 -->
      <g transform="translate(383.174361 274.718437) scale(0.1 -0.1)">
       <use xlink:href="#DejaVuSans-2212"/>
       <use xlink:href="#DejaVuSans-31" x="83.789062"/>
      </g>
     </g>
    </g>
    <g id="xtick_11">
     <g id="line2d_19">
      <g>
       <use xlink:href="#m495b0eaca5" x="432" y="260.12" style="stroke: #000000; stroke-width: 0.8"/>
      </g>
     </g>
     <g id="text_16">
      <!-- 0 -->
      <g transform="translate(428.81875 274.718437) scale(0.1 -0.1)">
       <use xlink:href="#DejaVuSans-30"/>
      </g>
     </g>
    </g>
    <g id="xtick_12">
     <g id="line2d_20">
      <g>
       <use xlink:href="#m495b0eaca5" x="473.454545" y="260.12" style="stroke: #000000; stroke-width: 0.8"/>
      </g>
     </g>
     <g id="text_17">
      <!-- 1 -->
      <g transform="translate(470.273295 274.718437) scale(0.1 -0.1)">
       <use xlink:href="#DejaVuSans-31"/>
      </g>
     </g>
    </g>
    <g id="xtick_13">
     <g id="line2d_21">
      <g>
       <use xlink:href="#m495b0eaca5" x="514.909091" y="260.12" style="stroke: #000000; stroke-width: 0.8"/>
      </g>
     </g>
     <g id="text_18">
      <!-- 2 -->
      <g transform="translate(511.727841 274.718437) scale(0.1 -0.1)">
       <use xlink:href="#DejaVuSans-32"/>
      </g>
     </g>
    </g>
    <g id="xtick_14">
     <g id="line2d_22">
      <g>
       <use xlink:href="#m495b0eaca5" x="556.363636" y="260.12" style="stroke: #000000; stroke-width: 0.8"/>
      </g>
     </g>
     <g id="text_19">
      <!-- 3 -->
      <g transform="translate(553.182386 274.718437) scale(0.1 -0.1)">
       <use xlink:href="#DejaVuSans-33"/>
      </g>
     </g>
    </g>
   </g>
   <g id="matplotlib.axis_4">
    <g id="ytick_3">
     <g id="line2d_23">
      <g>
       <use xlink:href="#m65f3213ce3" x="432" y="260.12" style="stroke: #000000; stroke-width: 0.8"/>
      </g>
     </g>
    </g>
    <g id="ytick_4">
     <g id="line2d_24">
      <g>
       <use xlink:href="#m65f3213ce3" x="432" y="80.864091" style="stroke: #000000; stroke-width: 0.8"/>
      </g>
     </g>
     <g id="text_20">
      <!-- 1 -->
      <g transform="translate(418.6375 84.66331) scale(0.1 -0.1)">
       <use xlink:href="#DejaVuSans-31"/>
      </g>
     </g>
    </g>
   </g>
   <g id="line2d_25">
    <path d="M 307.636364 165.294988 
L 310.14876 151.054953 
L 312.661157 138.23573 
L 315.173554 128.377463 
L 317.68595 121.478491 
L 320.198347 117.14089 
L 322.710744 115.448337 
L 325.22314 117.729794 
L 327.735537 126.502242 
L 330.247934 142.080661 
L 332.760331 159.333196 
L 335.272727 172.501191 
L 337.785124 180.025719 
L 340.297521 183.345921 
L 342.809917 184.676291 
L 345.322314 185.692717 
L 347.834711 186.926722 
L 350.347107 188.098477 
L 352.859504 188.906866 
L 355.371901 189.433212 
L 357.884298 190.009657 
L 360.396694 190.807276 
L 362.909091 191.463268 
L 365.421488 191.012959 
L 367.933884 188.167397 
L 370.446281 181.929871 
L 372.958678 172.601894 
L 375.471074 162.398518 
L 377.983471 154.106677 
L 380.495868 148.861671 
L 383.008264 145.956577 
L 385.520661 144.143072 
L 388.033058 142.579313 
L 390.545455 141.354563 
L 393.057851 142.093214 
L 395.570248 147.73561 
L 398.082645 159.15135 
L 400.595041 172.424453 
L 403.107438 182.972407 
L 405.619835 188.920222 
L 408.132231 189.992326 
L 410.644628 186.101458 
L 413.157025 177.095636 
L 415.669421 163.240486 
L 418.181818 145.859506 
L 420.694215 127.402122 
L 423.206612 110.526004 
L 425.719008 96.958174 
L 428.231405 87.264862 
L 430.743802 81.698887 
L 433.256198 81.898044 
L 435.768595 92.26866 
L 438.280992 115.521665 
L 440.793388 144.136608 
L 443.305785 167.456525 
L 445.818182 182.024163 
L 448.330579 188.970526 
L 450.842975 189.934128 
L 453.355372 186.109497 
L 455.867769 178.866482 
L 458.380165 170.325708 
L 460.892562 162.482298 
L 463.404959 155.961309 
L 465.917355 150.495148 
L 468.429752 145.935966 
L 470.942149 142.545291 
L 473.454545 141.040843 
L 475.966942 142.709227 
L 478.479339 148.668156 
L 480.991736 157.694595 
L 483.504132 166.175938 
L 486.016529 171.654847 
L 488.528926 174.463705 
L 491.041322 176.265092 
L 493.553719 178.253069 
L 496.066116 180.548306 
L 498.578512 182.740456 
L 501.090909 184.601703 
L 503.603306 186.369997 
L 506.115702 188.546382 
L 508.628099 191.32309 
L 511.140496 194.126109 
L 513.652893 195.75589 
L 516.165289 194.845393 
L 518.677686 190.243871 
L 521.190083 181.527429 
L 523.702479 169.696058 
L 526.214876 157.157885 
L 528.727273 146.298539 
L 531.239669 137.996624 
L 533.752066 131.6699 
L 536.264463 126.300957 
L 538.77686 121.443713 
L 541.289256 118.346168 
L 543.801653 121.06826 
L 546.31405 133.744909 
L 548.826446 153.0174 
L 551.338843 170.640021 
L 553.85124 182.42188 
L 556.363636 188.086994 
" clip-path="url(#p0a8e05094d)" style="fill: none; stroke: #1f77b4; stroke-width: 2; stroke-linecap: square"/>
   </g>
   <g id="line2d_26">
    <path d="M 307.636364 176.34056 
L 310.14876 167.369453 
L 312.661157 154.873201 
L 315.173554 140.936003 
L 317.68595 128.435436 
L 320.198347 120.064024 
L 322.710744 117.03417 
L 325.22314 119.158174 
L 327.735537 125.904733 
L 330.247934 136.601299 
L 332.760331 149.726384 
L 335.272727 162.912402 
L 337.785124 174.067634 
L 340.297521 182.21849 
L 342.809917 187.391547 
L 345.322314 190.015863 
L 347.834711 190.493984 
L 350.347107 189.247315 
L 352.859504 186.911163 
L 355.371901 184.417759 
L 357.884298 182.991205 
L 360.396694 183.816065 
L 362.909091 187.185272 
L 365.421488 191.969786 
L 367.933884 196.273624 
L 370.446281 198.370475 
L 372.958678 196.965717 
L 375.471074 191.160698 
L 377.983471 180.78014 
L 380.495868 167.05469 
L 383.008264 152.575989 
L 385.520661 139.843698 
L 388.033058 130.128721 
L 390.545455 123.921641 
L 393.057851 121.866043 
L 395.570248 125.14186 
L 398.082645 134.849516 
L 400.595041 150.323088 
L 403.107438 168.102789 
L 405.619835 183.645819 
L 408.132231 193.78256 
L 410.644628 197.107026 
L 413.157025 193.112244 
L 415.669421 181.788871 
L 418.181818 164.085404 
L 420.694215 142.43834 
L 423.206612 120.385881 
L 425.719008 101.475476 
L 428.231405 88.23843 
L 430.743802 81.668396 
L 433.256198 81.655804 
L 435.768595 87.916932 
L 438.280992 100.092523 
L 440.793388 116.788906 
L 443.305785 135.190162 
L 445.818182 152.277953 
L 448.330579 166.162443 
L 450.842975 176.161335 
L 453.355372 182.055508 
L 455.867769 183.549916 
L 458.380165 180.574038 
L 460.892562 173.74497 
L 463.404959 164.378405 
L 465.917355 154.395388 
L 468.429752 146.038628 
L 470.942149 141.105 
L 473.454545 140.302988 
L 475.966942 143.45304 
L 478.479339 149.946293 
L 480.991736 158.668645 
L 483.504132 167.842615 
L 486.016529 175.554347 
L 488.528926 180.596674 
L 491.041322 182.836231 
L 493.553719 182.931 
L 496.066116 181.707001 
L 498.578512 179.818711 
L 501.090909 177.91566 
L 503.603306 176.889518 
L 506.115702 177.881781 
L 508.628099 181.830152 
L 511.140496 188.49868 
L 513.652893 196.06035 
L 516.165289 202.170636 
L 518.677686 205.098096 
L 521.190083 203.729009 
L 523.702479 197.188395 
L 526.214876 185.001354 
L 528.727273 168.025295 
L 531.239669 149.128682 
L 533.752066 131.906959 
L 536.264463 118.558776 
L 538.77686 109.648843 
L 541.289256 105.25054 
L 543.801653 105.84104 
L 546.31405 112.391392 
L 548.826446 125.358755 
L 551.338843 143.08614 
L 553.85124 161.687333 
L 556.363636 177.044378 
" clip-path="url(#p0a8e05094d)" style="fill: none; stroke: #ff7f0e; stroke-width: 2; stroke-linecap: square"/>
   </g>
   <g id="line2d_27">
    <path d="M 307.636364 175.87578 
L 310.14876 163.441071 
L 312.661157 149.226977 
L 315.173554 135.491008 
L 317.68595 123.850495 
L 320.198347 115.557368 
L 322.710744 111.674803 
L 325.22314 112.970701 
L 327.735537 119.711137 
L 330.247934 131.491661 
L 332.760331 147.018713 
L 335.272727 163.903909 
L 337.785124 179.116495 
L 340.297521 190.228577 
L 342.809917 196.274419 
L 345.322314 197.646319 
L 347.834711 195.676581 
L 350.347107 192.192471 
L 352.859504 188.783401 
L 355.371901 186.183365 
L 357.884298 184.442983 
L 360.396694 183.509976 
L 362.909091 183.540023 
L 365.421488 184.769865 
L 367.933884 187.028468 
L 370.446281 189.28443 
L 372.958678 189.877878 
L 375.471074 187.337713 
L 377.983471 181.012619 
L 380.495868 171.284795 
L 383.008264 159.557375 
L 385.520661 147.953835 
L 388.033058 138.656614 
L 390.545455 133.285267 
L 393.057851 132.675823 
L 395.570248 136.836323 
L 398.082645 144.925984 
L 400.595041 155.482081 
L 403.107438 166.802156 
L 405.619835 177.075619 
L 408.132231 184.309333 
L 410.644628 186.541144 
L 413.157025 182.449676 
L 415.669421 171.89751 
L 418.181818 156.073346 
L 420.694215 137.206739 
L 423.206612 117.995344 
L 425.719008 101.032589 
L 428.231405 88.440824 
L 430.743802 81.726311 
L 433.256198 81.730321 
L 435.768595 88.539632 
L 438.280992 101.434507 
L 440.793388 118.981096 
L 443.305785 139.085821 
L 445.818182 158.974266 
L 448.330579 175.59083 
L 450.842975 186.517886 
L 453.355372 190.631588 
L 455.867769 188.164333 
L 458.380165 180.567679 
L 460.892562 170.109396 
L 463.404959 158.994806 
L 465.917355 148.743138 
L 468.429752 140.370123 
L 470.942149 134.825095 
L 473.454545 133.106784 
L 475.966942 135.985531 
L 478.479339 143.52526 
L 480.991736 154.71119 
L 483.504132 167.462258 
L 486.016529 179.189258 
L 488.528926 187.741696 
L 491.041322 192.107484 
L 493.553719 192.484291 
L 496.066116 190.045593 
L 498.578512 186.61993 
L 501.090909 184.010621 
L 503.603306 183.125035 
L 506.115702 183.816232 
L 508.628099 185.509973 
L 511.140496 187.754467 
L 513.652893 190.28341 
L 516.165289 192.706911 
L 518.677686 194.122343 
L 521.190083 193.129122 
L 523.702479 188.406669 
L 526.214876 179.34254 
L 528.727273 166.36394 
L 531.239669 151.035813 
L 533.752066 135.778941 
L 536.264463 123.051335 
L 538.77686 114.566454 
L 541.289256 111.228908 
L 543.801653 113.412365 
L 546.31405 120.898454 
L 548.826446 132.64653 
L 551.338843 146.88986 
L 553.85124 161.436398 
L 556.363636 173.845879 
" clip-path="url(#p0a8e05094d)" style="fill: none; stroke: #2ca02c; stroke-width: 2; stroke-linecap: square"/>
   </g>
   <g id="patch_9">
    <path d="M 432 260.12 
L 432 62.9385 
" style="fill: none; stroke: #000000; stroke-width: 0.8; stroke-linejoin: miter; stroke-linecap: square"/>
   </g>
   <g id="patch_10">
    <path d="M 568.8 260.12 
L 568.8 62.9385 
" style="fill: none"/>
   </g>
   <g id="patch_11">
    <path d="M 295.2 260.12 
L 568.8 260.12 
" style="fill: none; stroke: #000000; stroke-width: 0.8; stroke-linejoin: miter; stroke-linecap: square"/>
   </g>
   <g id="patch_12">
    <path d="M 295.2 62.9385 
L 568.8 62.9385 
" style="fill: none"/>
   </g>
   <g id="text_21">
    <!-- 1 modules: $\Delta \theta$ = 0$^{\circ}$, $\Delta \lambda$ = 0 -->
    <g transform="translate(349.32 56.9385) scale(0.12 -0.12)">
     <use xlink:href="#DejaVuSans-31" transform="translate(0 0.234375)"/>
     <use xlink:href="#DejaVuSans-20" transform="translate(63.623047 0.234375)"/>
     <use xlink:href="#DejaVuSans-6d" transform="translate(95.410156 0.234375)"/>
     <use xlink:href="#DejaVuSans-6f" transform="translate(192.822266 0.234375)"/>
     <use xlink:href="#DejaVuSans-64" transform="translate(254.003906 0.234375)"/>
     <use xlink:href="#DejaVuSans-75" transform="translate(317.480469 0.234375)"/>
     <use xlink:href="#DejaVuSans-6c" transform="translate(380.859375 0.234375)"/>
     <use xlink:href="#DejaVuSans-65" transform="translate(408.642578 0.234375)"/>
     <use xlink:href="#DejaVuSans-73" transform="translate(470.166016 0.234375)"/>
     <use xlink:href="#DejaVuSans-3a" transform="translate(522.265625 0.234375)"/>
     <use xlink:href="#DejaVuSans-20" transform="translate(555.957031 0.234375)"/>
     <use xlink:href="#DejaVuSans-394" transform="translate(587.744141 0.234375)"/>
     <use xlink:href="#DejaVuSans-Oblique-3b8" transform="translate(656.152344 0.234375)"/>
     <use xlink:href="#DejaVuSans-20" transform="translate(717.333984 0.234375)"/>
     <use xlink:href="#DejaVuSans-3d" transform="translate(749.121094 0.234375)"/>
     <use xlink:href="#DejaVuSans-20" transform="translate(832.910156 0.234375)"/>
     <use xlink:href="#DejaVuSans-30" transform="translate(864.697266 0.234375)"/>
     <use xlink:href="#DejaVuSans-2218" transform="translate(929.277344 38.515625) scale(0.7)"/>
     <use xlink:href="#DejaVuSans-2c" transform="translate(975.830078 0.234375)"/>
     <use xlink:href="#DejaVuSans-20" transform="translate(1007.617188 0.234375)"/>
     <use xlink:href="#DejaVuSans-394" transform="translate(1039.404297 0.234375)"/>
     <use xlink:href="#DejaVuSans-Oblique-3bb" transform="translate(1107.8125 0.234375)"/>
     <use xlink:href="#DejaVuSans-20" transform="translate(1166.992188 0.234375)"/>
     <use xlink:href="#DejaVuSans-3d" transform="translate(1198.779297 0.234375)"/>
     <use xlink:href="#DejaVuSans-20" transform="translate(1282.568359 0.234375)"/>
     <use xlink:href="#DejaVuSans-30" transform="translate(1314.355469 0.234375)"/>
    </g>
   </g>
   <g id="legend_2">
    <g id="patch_13">
     <path d="M 302.2 255.12 
L 374.360938 255.12 
Q 376.360938 255.12 376.360938 253.12 
L 376.360938 210.085625 
Q 376.360938 208.085625 374.360938 208.085625 
L 302.2 208.085625 
Q 300.2 208.085625 300.2 210.085625 
L 300.2 253.12 
Q 300.2 255.12 302.2 255.12 
z
" style="fill: #ffffff; opacity: 0.8; stroke: #cccccc; stroke-linejoin: miter"/>
    </g>
    <g id="line2d_28">
     <path d="M 304.2 216.184062 
L 314.2 216.184062 
L 324.2 216.184062 
" style="fill: none; stroke: #1f77b4; stroke-width: 2; stroke-linecap: square"/>
    </g>
    <g id="text_22">
     <!-- n = 32 -->
     <g transform="translate(332.2 219.684062) scale(0.1 -0.1)">
      <use xlink:href="#DejaVuSans-6e"/>
      <use xlink:href="#DejaVuSans-20" x="63.378906"/>
      <use xlink:href="#DejaVuSans-3d" x="95.166016"/>
      <use xlink:href="#DejaVuSans-20" x="178.955078"/>
      <use xlink:href="#DejaVuSans-33" x="210.742188"/>
      <use xlink:href="#DejaVuSans-32" x="274.365234"/>
     </g>
    </g>
    <g id="line2d_29">
     <path d="M 304.2 230.862187 
L 314.2 230.862187 
L 324.2 230.862187 
" style="fill: none; stroke: #ff7f0e; stroke-width: 2; stroke-linecap: square"/>
    </g>
    <g id="text_23">
     <!-- n = 64 -->
     <g transform="translate(332.2 234.362187) scale(0.1 -0.1)">
      <use xlink:href="#DejaVuSans-6e"/>
      <use xlink:href="#DejaVuSans-20" x="63.378906"/>
      <use xlink:href="#DejaVuSans-3d" x="95.166016"/>
      <use xlink:href="#DejaVuSans-20" x="178.955078"/>
      <use xlink:href="#DejaVuSans-36" x="210.742188"/>
      <use xlink:href="#DejaVuSans-34" x="274.365234"/>
     </g>
    </g>
    <g id="line2d_30">
     <path d="M 304.2 245.540312 
L 314.2 245.540312 
L 324.2 245.540312 
" style="fill: none; stroke: #2ca02c; stroke-width: 2; stroke-linecap: square"/>
    </g>
    <g id="text_24">
     <!-- n = 256 -->
     <g transform="translate(332.2 249.040312) scale(0.1 -0.1)">
      <use xlink:href="#DejaVuSans-6e"/>
      <use xlink:href="#DejaVuSans-20" x="63.378906"/>
      <use xlink:href="#DejaVuSans-3d" x="95.166016"/>
      <use xlink:href="#DejaVuSans-20" x="178.955078"/>
      <use xlink:href="#DejaVuSans-32" x="210.742188"/>
      <use xlink:href="#DejaVuSans-35" x="274.365234"/>
      <use xlink:href="#DejaVuSans-36" x="337.988281"/>
     </g>
    </g>
   </g>
  </g>
  <g id="axes_3">
   <g id="patch_14">
    <path d="M 579.6 260.12 
L 853.2 260.12 
L 853.2 62.9385 
L 579.6 62.9385 
z
" style="fill: #ffffff"/>
   </g>
   <g id="matplotlib.axis_5">
    <g id="xtick_15">
     <g id="line2d_31">
      <g>
       <use xlink:href="#m495b0eaca5" x="592.036364" y="260.12" style="stroke: #000000; stroke-width: 0.8"/>
      </g>
     </g>
     <g id="text_25">
      <!-- −3 -->
      <g transform="translate(584.66527 274.718437) scale(0.1 -0.1)">
       <use xlink:href="#DejaVuSans-2212"/>
       <use xlink:href="#DejaVuSans-33" x="83.789062"/>
      </g>
     </g>
    </g>
    <g id="xtick_16">
     <g id="line2d_32">
      <g>
       <use xlink:href="#m495b0eaca5" x="633.490909" y="260.12" style="stroke: #000000; stroke-width: 0.8"/>
      </g>
     </g>
     <g id="text_26">
      <!-- −2 -->
      <g transform="translate(626.119815 274.718437) scale(0.1 -0.1)">
       <use xlink:href="#DejaVuSans-2212"/>
       <use xlink:href="#DejaVuSans-32" x="83.789062"/>
      </g>
     </g>
    </g>
    <g id="xtick_17">
     <g id="line2d_33">
      <g>
       <use xlink:href="#m495b0eaca5" x="674.945455" y="260.12" style="stroke: #000000; stroke-width: 0.8"/>
      </g>
     </g>
     <g id="text_27">
      <!-- −1 -->
      <g transform="translate(667.574361 274.718437) scale(0.1 -0.1)">
       <use xlink:href="#DejaVuSans-2212"/>
       <use xlink:href="#DejaVuSans-31" x="83.789062"/>
      </g>
     </g>
    </g>
    <g id="xtick_18">
     <g id="line2d_34">
      <g>
       <use xlink:href="#m495b0eaca5" x="716.4" y="260.12" style="stroke: #000000; stroke-width: 0.8"/>
      </g>
     </g>
     <g id="text_28">
      <!-- 0 -->
      <g transform="translate(713.21875 274.718437) scale(0.1 -0.1)">
       <use xlink:href="#DejaVuSans-30"/>
      </g>
     </g>
    </g>
    <g id="xtick_19">
     <g id="line2d_35">
      <g>
       <use xlink:href="#m495b0eaca5" x="757.854545" y="260.12" style="stroke: #000000; stroke-width: 0.8"/>
      </g>
     </g>
     <g id="text_29">
      <!-- 1 -->
      <g transform="translate(754.673295 274.718437) scale(0.1 -0.1)">
       <use xlink:href="#DejaVuSans-31"/>
      </g>
     </g>
    </g>
    <g id="xtick_20">
     <g id="line2d_36">
      <g>
       <use xlink:href="#m495b0eaca5" x="799.309091" y="260.12" style="stroke: #000000; stroke-width: 0.8"/>
      </g>
     </g>
     <g id="text_30">
      <!-- 2 -->
      <g transform="translate(796.127841 274.718437) scale(0.1 -0.1)">
       <use xlink:href="#DejaVuSans-32"/>
      </g>
     </g>
    </g>
    <g id="xtick_21">
     <g id="line2d_37">
      <g>
       <use xlink:href="#m495b0eaca5" x="840.763636" y="260.12" style="stroke: #000000; stroke-width: 0.8"/>
      </g>
     </g>
     <g id="text_31">
      <!-- 3 -->
      <g transform="translate(837.582386 274.718437) scale(0.1 -0.1)">
       <use xlink:href="#DejaVuSans-33"/>
      </g>
     </g>
    </g>
   </g>
   <g id="matplotlib.axis_6">
    <g id="ytick_5">
     <g id="line2d_38">
      <g>
       <use xlink:href="#m65f3213ce3" x="716.4" y="260.12" style="stroke: #000000; stroke-width: 0.8"/>
      </g>
     </g>
    </g>
    <g id="ytick_6">
     <g id="line2d_39">
      <g>
       <use xlink:href="#m65f3213ce3" x="716.4" y="80.864091" style="stroke: #000000; stroke-width: 0.8"/>
      </g>
     </g>
     <g id="text_32">
      <!-- 1 -->
      <g transform="translate(703.0375 84.66331) scale(0.1 -0.1)">
       <use xlink:href="#DejaVuSans-31"/>
      </g>
     </g>
    </g>
   </g>
   <g id="line2d_40">
    <path d="M 592.036364 142.980557 
L 594.54876 144.235494 
L 597.061157 142.506046 
L 599.573554 137.683024 
L 602.08595 130.501319 
L 604.598347 122.298425 
L 607.110744 114.707416 
L 609.62314 109.453059 
L 612.135537 108.155717 
L 614.647934 111.508688 
L 617.160331 118.145766 
L 619.672727 125.107221 
L 622.185124 129.791268 
L 624.697521 131.145405 
L 627.209917 129.661402 
L 629.722314 126.915463 
L 632.234711 124.739475 
L 634.747107 124.173165 
L 637.259504 125.12896 
L 639.771901 127.041458 
L 642.284298 129.550775 
L 644.796694 132.567616 
L 647.309091 135.886228 
L 649.821488 138.861165 
L 652.333884 140.531518 
L 654.846281 140.057339 
L 657.358678 137.113523 
L 659.871074 132.14461 
L 662.383471 126.403995 
L 664.895868 121.426893 
L 667.408264 118.0267 
L 669.920661 115.911584 
L 672.433058 114.372602 
L 674.945455 113.073896 
L 677.457851 112.286579 
L 679.970248 112.6929 
L 682.482645 114.96113 
L 684.995041 119.233357 
L 687.507438 124.802222 
L 690.019835 130.264719 
L 692.532231 134.09557 
L 695.044628 135.237231 
L 697.557025 133.350753 
L 700.069421 128.634466 
L 702.581818 121.454507 
L 705.094215 112.307198 
L 707.606612 102.188495 
L 710.119008 92.682466 
L 712.631405 85.389175 
L 715.143802 81.39432 
L 717.656198 81.41828 
L 720.168595 85.93024 
L 722.680992 94.38832 
L 725.193388 104.593971 
L 727.705785 113.616331 
L 730.218182 119.352396 
L 732.730579 121.191476 
L 735.242975 119.984523 
L 737.755372 117.796985 
L 740.267769 117.000343 
L 742.780165 118.701341 
L 745.292562 122.197884 
L 747.804959 126.080907 
L 750.317355 129.311891 
L 752.829752 131.387362 
L 755.342149 132.07882 
L 757.854545 131.299302 
L 760.366942 129.242958 
L 762.879339 126.586753 
L 765.391736 124.340029 
L 767.904132 123.158786 
L 770.416529 122.817904 
L 772.928926 122.665275 
L 775.441322 122.441617 
L 777.953719 122.38465 
L 780.466116 122.745951 
L 782.978512 123.532801 
L 785.490909 124.684888 
L 788.003306 126.307311 
L 790.515702 128.734673 
L 793.028099 132.418929 
L 795.540496 137.623925 
L 798.052893 143.984642 
L 800.565289 150.284037 
L 803.077686 154.810077 
L 805.590083 156.015818 
L 808.102479 152.920944 
L 810.614876 145.281842 
L 813.127273 133.929436 
L 815.639669 121.15022 
L 818.152066 110.097662 
L 820.664463 102.983359 
L 823.17686 100.122002 
L 825.689256 100.831159 
L 828.201653 104.410287 
L 830.71405 110.134578 
L 833.226446 116.878171 
L 835.738843 123.185495 
L 838.25124 127.796436 
L 840.763636 130.061277 
" clip-path="url(#p490cb3b2aa)" style="fill: none; stroke: #1f77b4; stroke-width: 2; stroke-linecap: square"/>
   </g>
   <g id="line2d_41">
    <path d="M 592.036364 143.428762 
L 594.54876 139.167668 
L 597.061157 132.985545 
L 599.573554 125.225893 
L 602.08595 116.856398 
L 604.598347 109.515566 
L 607.110744 104.926151 
L 609.62314 104.138792 
L 612.135537 107.307816 
L 614.647934 113.813904 
L 617.160331 122.279806 
L 619.672727 130.780246 
L 622.185124 137.463851 
L 624.697521 141.134985 
L 627.209917 141.528125 
L 629.722314 139.425121 
L 632.234711 136.467626 
L 634.747107 134.230996 
L 637.259504 133.192186 
L 639.771901 132.925028 
L 642.284298 133.066924 
L 644.796694 133.727142 
L 647.309091 135.11548 
L 649.821488 136.938707 
L 652.333884 138.25495 
L 654.846281 138.023036 
L 657.358678 135.871109 
L 659.871074 132.474268 
L 662.383471 129.138276 
L 664.895868 126.780353 
L 667.408264 125.443242 
L 669.920661 124.822153 
L 672.433058 124.84073 
L 674.945455 125.632211 
L 677.457851 127.190095 
L 679.970248 129.175258 
L 682.482645 131.109714 
L 684.995041 132.752173 
L 687.507438 134.236639 
L 690.019835 135.759955 
L 692.532231 137.084159 
L 695.044628 137.417628 
L 697.557025 135.800688 
L 700.069421 131.551654 
L 702.581818 124.495402 
L 705.094215 115.068865 
L 707.606612 104.38081 
L 710.119008 94.088423 
L 712.631405 85.970965 
L 715.143802 81.459509 
L 717.656198 81.475303 
L 720.168595 86.341637 
L 722.680992 95.381028 
L 725.193388 106.682895 
L 727.705785 117.741868 
L 730.218182 126.502683 
L 732.730579 131.945323 
L 735.242975 134.142627 
L 737.755372 134.005093 
L 740.267769 132.658481 
L 742.780165 130.758331 
L 745.292562 128.466873 
L 747.804959 125.963091 
L 750.317355 123.724032 
L 752.829752 122.342121 
L 755.342149 122.140157 
L 757.854545 122.966045 
L 760.366942 124.379839 
L 762.879339 126.039193 
L 765.391736 127.868869 
L 767.904132 129.840104 
L 770.416529 131.671854 
L 772.928926 132.889199 
L 775.441322 133.170269 
L 777.953719 132.610064 
L 780.466116 131.771023 
L 782.978512 131.509378 
L 785.490909 132.503226 
L 788.003306 134.722498 
L 790.515702 137.455716 
L 793.028099 139.935742 
L 795.540496 141.869497 
L 798.052893 143.444452 
L 800.565289 144.906262 
L 803.077686 146.052614 
L 805.590083 146.095334 
L 808.102479 144.038794 
L 810.614876 139.252793 
L 813.127273 131.911924 
L 815.639669 123.125044 
L 818.152066 114.602046 
L 820.664463 108.069463 
L 823.17686 104.965607 
L 825.689256 106.27661 
L 828.201653 111.978775 
L 830.71405 120.607365 
L 833.226446 129.825297 
L 835.738843 137.490136 
L 838.25124 142.266011 
L 840.763636 143.726506 
" clip-path="url(#p490cb3b2aa)" style="fill: none; stroke: #ff7f0e; stroke-width: 2; stroke-linecap: square"/>
   </g>
   <g id="line2d_42">
    <path d="M 592.036364 135.259864 
L 594.54876 133.013713 
L 597.061157 128.822568 
L 599.573554 123.322901 
L 602.08595 117.545911 
L 604.598347 112.605665 
L 607.110744 109.457465 
L 609.62314 108.871529 
L 612.135537 111.370725 
L 614.647934 116.857754 
L 617.160331 124.238189 
L 619.672727 131.674393 
L 622.185124 137.407529 
L 624.697521 140.418748 
L 627.209917 140.589461 
L 629.722314 138.531871 
L 632.234711 135.254304 
L 634.747107 131.782357 
L 637.259504 128.924026 
L 639.771901 127.217274 
L 642.284298 126.895413 
L 644.796694 127.79442 
L 647.309091 129.33559 
L 649.821488 130.731991 
L 652.333884 131.35366 
L 654.846281 130.996391 
L 657.358678 129.844769 
L 659.871074 128.18838 
L 662.383471 126.227885 
L 664.895868 124.183254 
L 667.408264 122.475706 
L 669.920661 121.651783 
L 672.433058 122.0543 
L 674.945455 123.578401 
L 677.457851 125.769738 
L 679.970248 128.11365 
L 682.482645 130.225033 
L 684.995041 131.886879 
L 687.507438 133.053252 
L 690.019835 133.842237 
L 692.532231 134.388581 
L 695.044628 134.511083 
L 697.557025 133.507196 
L 700.069421 130.408664 
L 702.581818 124.513367 
L 705.094215 115.825361 
L 707.606612 105.2875 
L 710.119008 94.702609 
L 712.631405 86.194613 
L 715.143802 81.477973 
L 717.656198 81.482238 
L 720.168595 86.286459 
L 722.680992 94.969629 
L 725.193388 105.637769 
L 727.705785 116.068495 
L 730.218182 124.563101 
L 732.730579 130.32844 
L 735.242975 133.331354 
L 737.755372 133.948345 
L 740.267769 132.697467 
L 742.780165 130.180512 
L 745.292562 127.127937 
L 747.804959 124.318575 
L 750.317355 122.310411 
L 752.829752 121.207899 
L 755.342149 120.752889 
L 757.854545 120.698314 
L 760.366942 121.079809 
L 762.879339 122.07479 
L 765.391736 123.627759 
L 767.904132 125.389998 
L 770.416529 127.075238 
L 772.928926 128.680374 
L 775.441322 130.264174 
L 777.953719 131.635974 
L 780.466116 132.388082 
L 782.978512 132.214379 
L 785.490909 131.164606 
L 788.003306 129.6511 
L 790.515702 128.269542 
L 793.028099 127.608664 
L 795.540496 128.150865 
L 798.052893 130.132609 
L 800.565289 133.227936 
L 803.077686 136.364913 
L 805.590083 138.102772 
L 808.102479 137.325642 
L 810.614876 133.710223 
L 813.127273 127.833532 
L 815.639669 120.978721 
L 818.152066 114.69204 
L 820.664463 110.330417 
L 823.17686 108.817561 
L 825.689256 110.492392 
L 828.201653 114.940853 
L 830.71405 121.019505 
L 833.226446 127.249076 
L 835.738843 132.363051 
L 838.25124 135.648484 
L 840.763636 136.950077 
" clip-path="url(#p490cb3b2aa)" style="fill: none; stroke: #2ca02c; stroke-width: 2; stroke-linecap: square"/>
   </g>
   <g id="patch_15">
    <path d="M 716.4 260.12 
L 716.4 62.9385 
" style="fill: none; stroke: #000000; stroke-width: 0.8; stroke-linejoin: miter; stroke-linecap: square"/>
   </g>
   <g id="patch_16">
    <path d="M 853.2 260.12 
L 853.2 62.9385 
" style="fill: none"/>
   </g>
   <g id="patch_17">
    <path d="M 579.6 260.12 
L 853.2 260.12 
" style="fill: none; stroke: #000000; stroke-width: 0.8; stroke-linejoin: miter; stroke-linecap: square"/>
   </g>
   <g id="patch_18">
    <path d="M 579.6 62.9385 
L 853.2 62.9385 
" style="fill: none"/>
   </g>
   <g id="text_33">
    <!-- 3 modules: $\Delta \theta$ = 0$^{\circ}$, $\Delta \lambda$ = 0 -->
    <g transform="translate(633.72 56.9385) scale(0.12 -0.12)">
     <use xlink:href="#DejaVuSans-33" transform="translate(0 0.234375)"/>
     <use xlink:href="#DejaVuSans-20" transform="translate(63.623047 0.234375)"/>
     <use xlink:href="#DejaVuSans-6d" transform="translate(95.410156 0.234375)"/>
     <use xlink:href="#DejaVuSans-6f" transform="translate(192.822266 0.234375)"/>
     <use xlink:href="#DejaVuSans-64" transform="translate(254.003906 0.234375)"/>
     <use xlink:href="#DejaVuSans-75" transform="translate(317.480469 0.234375)"/>
     <use xlink:href="#DejaVuSans-6c" transform="translate(380.859375 0.234375)"/>
     <use xlink:href="#DejaVuSans-65" transform="translate(408.642578 0.234375)"/>
     <use xlink:href="#DejaVuSans-73" transform="translate(470.166016 0.234375)"/>
     <use xlink:href="#DejaVuSans-3a" transform="translate(522.265625 0.234375)"/>
     <use xlink:href="#DejaVuSans-20" transform="translate(555.957031 0.234375)"/>
     <use xlink:href="#DejaVuSans-394" transform="translate(587.744141 0.234375)"/>
     <use xlink:href="#DejaVuSans-Oblique-3b8" transform="translate(656.152344 0.234375)"/>
     <use xlink:href="#DejaVuSans-20" transform="translate(717.333984 0.234375)"/>
     <use xlink:href="#DejaVuSans-3d" transform="translate(749.121094 0.234375)"/>
     <use xlink:href="#DejaVuSans-20" transform="translate(832.910156 0.234375)"/>
     <use xlink:href="#DejaVuSans-30" transform="translate(864.697266 0.234375)"/>
     <use xlink:href="#DejaVuSans-2218" transform="translate(929.277344 38.515625) scale(0.7)"/>
     <use xlink:href="#DejaVuSans-2c" transform="translate(975.830078 0.234375)"/>
     <use xlink:href="#DejaVuSans-20" transform="translate(1007.617188 0.234375)"/>
     <use xlink:href="#DejaVuSans-394" transform="translate(1039.404297 0.234375)"/>
     <use xlink:href="#DejaVuSans-Oblique-3bb" transform="translate(1107.8125 0.234375)"/>
     <use xlink:href="#DejaVuSans-20" transform="translate(1166.992188 0.234375)"/>
     <use xlink:href="#DejaVuSans-3d" transform="translate(1198.779297 0.234375)"/>
     <use xlink:href="#DejaVuSans-20" transform="translate(1282.568359 0.234375)"/>
     <use xlink:href="#DejaVuSans-30" transform="translate(1314.355469 0.234375)"/>
    </g>
   </g>
   <g id="legend_3">
    <g id="patch_19">
     <path d="M 586.6 255.12 
L 658.760938 255.12 
Q 660.760938 255.12 660.760938 253.12 
L 660.760938 210.085625 
Q 660.760938 208.085625 658.760938 208.085625 
L 586.6 208.085625 
Q 584.6 208.085625 584.6 210.085625 
L 584.6 253.12 
Q 584.6 255.12 586.6 255.12 
z
" style="fill: #ffffff; opacity: 0.8; stroke: #cccccc; stroke-linejoin: miter"/>
    </g>
    <g id="line2d_43">
     <path d="M 588.6 216.184062 
L 598.6 216.184062 
L 608.6 216.184062 
" style="fill: none; stroke: #1f77b4; stroke-width: 2; stroke-linecap: square"/>
    </g>
    <g id="text_34">
     <!-- n = 32 -->
     <g transform="translate(616.6 219.684062) scale(0.1 -0.1)">
      <use xlink:href="#DejaVuSans-6e"/>
      <use xlink:href="#DejaVuSans-20" x="63.378906"/>
      <use xlink:href="#DejaVuSans-3d" x="95.166016"/>
      <use xlink:href="#DejaVuSans-20" x="178.955078"/>
      <use xlink:href="#DejaVuSans-33" x="210.742188"/>
      <use xlink:href="#DejaVuSans-32" x="274.365234"/>
     </g>
    </g>
    <g id="line2d_44">
     <path d="M 588.6 230.862187 
L 598.6 230.862187 
L 608.6 230.862187 
" style="fill: none; stroke: #ff7f0e; stroke-width: 2; stroke-linecap: square"/>
    </g>
    <g id="text_35">
     <!-- n = 64 -->
     <g transform="translate(616.6 234.362187) scale(0.1 -0.1)">
      <use xlink:href="#DejaVuSans-6e"/>
      <use xlink:href="#DejaVuSans-20" x="63.378906"/>
      <use xlink:href="#DejaVuSans-3d" x="95.166016"/>
      <use xlink:href="#DejaVuSans-20" x="178.955078"/>
      <use xlink:href="#DejaVuSans-36" x="210.742188"/>
      <use xlink:href="#DejaVuSans-34" x="274.365234"/>
     </g>
    </g>
    <g id="line2d_45">
     <path d="M 588.6 245.540312 
L 598.6 245.540312 
L 608.6 245.540312 
" style="fill: none; stroke: #2ca02c; stroke-width: 2; stroke-linecap: square"/>
    </g>
    <g id="text_36">
     <!-- n = 256 -->
     <g transform="translate(616.6 249.040312) scale(0.1 -0.1)">
      <use xlink:href="#DejaVuSans-6e"/>
      <use xlink:href="#DejaVuSans-20" x="63.378906"/>
      <use xlink:href="#DejaVuSans-3d" x="95.166016"/>
      <use xlink:href="#DejaVuSans-20" x="178.955078"/>
      <use xlink:href="#DejaVuSans-32" x="210.742188"/>
      <use xlink:href="#DejaVuSans-35" x="274.365234"/>
      <use xlink:href="#DejaVuSans-36" x="337.988281"/>
     </g>
    </g>
   </g>
  </g>
  <g id="text_37">
   <!-- Orientation = 15 -->
   <g transform="translate(381.650625 23.518125) scale(0.12 -0.12)">
    <defs>
     <path id="DejaVuSans-4f" d="M 2522 4238 
Q 1834 4238 1429 3725 
Q 1025 3213 1025 2328 
Q 1025 1447 1429 934 
Q 1834 422 2522 422 
Q 3209 422 3611 934 
Q 4013 1447 4013 2328 
Q 4013 3213 3611 3725 
Q 3209 4238 2522 4238 
z
M 2522 4750 
Q 3503 4750 4090 4092 
Q 4678 3434 4678 2328 
Q 4678 1225 4090 567 
Q 3503 -91 2522 -91 
Q 1538 -91 948 565 
Q 359 1222 359 2328 
Q 359 3434 948 4092 
Q 1538 4750 2522 4750 
z
" transform="scale(0.015625)"/>
     <path id="DejaVuSans-72" d="M 2631 2963 
Q 2534 3019 2420 3045 
Q 2306 3072 2169 3072 
Q 1681 3072 1420 2755 
Q 1159 2438 1159 1844 
L 1159 0 
L 581 0 
L 581 3500 
L 1159 3500 
L 1159 2956 
Q 1341 3275 1631 3429 
Q 1922 3584 2338 3584 
Q 2397 3584 2469 3576 
Q 2541 3569 2628 3553 
L 2631 2963 
z
" transform="scale(0.015625)"/>
     <path id="DejaVuSans-69" d="M 603 3500 
L 1178 3500 
L 1178 0 
L 603 0 
L 603 3500 
z
M 603 4863 
L 1178 4863 
L 1178 4134 
L 603 4134 
L 603 4863 
z
" transform="scale(0.015625)"/>
     <path id="DejaVuSans-74" d="M 1172 4494 
L 1172 3500 
L 2356 3500 
L 2356 3053 
L 1172 3053 
L 1172 1153 
Q 1172 725 1289 603 
Q 1406 481 1766 481 
L 2356 481 
L 2356 0 
L 1766 0 
Q 1100 0 847 248 
Q 594 497 594 1153 
L 594 3053 
L 172 3053 
L 172 3500 
L 594 3500 
L 594 4494 
L 1172 4494 
z
" transform="scale(0.015625)"/>
     <path id="DejaVuSans-61" d="M 2194 1759 
Q 1497 1759 1228 1600 
Q 959 1441 959 1056 
Q 959 750 1161 570 
Q 1363 391 1709 391 
Q 2188 391 2477 730 
Q 2766 1069 2766 1631 
L 2766 1759 
L 2194 1759 
z
M 3341 1997 
L 3341 0 
L 2766 0 
L 2766 531 
Q 2569 213 2275 61 
Q 1981 -91 1556 -91 
Q 1019 -91 701 211 
Q 384 513 384 1019 
Q 384 1609 779 1909 
Q 1175 2209 1959 2209 
L 2766 2209 
L 2766 2266 
Q 2766 2663 2505 2880 
Q 2244 3097 1772 3097 
Q 1472 3097 1187 3025 
Q 903 2953 641 2809 
L 641 3341 
Q 956 3463 1253 3523 
Q 1550 3584 1831 3584 
Q 2591 3584 2966 3190 
Q 3341 2797 3341 1997 
z
" transform="scale(0.015625)"/>
    </defs>
    <use xlink:href="#DejaVuSans-4f"/>
    <use xlink:href="#DejaVuSans-72" x="78.710938"/>
    <use xlink:href="#DejaVuSans-69" x="119.824219"/>
    <use xlink:href="#DejaVuSans-65" x="147.607422"/>
    <use xlink:href="#DejaVuSans-6e" x="209.130859"/>
    <use xlink:href="#DejaVuSans-74" x="272.509766"/>
    <use xlink:href="#DejaVuSans-61" x="311.71875"/>
    <use xlink:href="#DejaVuSans-74" x="372.998047"/>
    <use xlink:href="#DejaVuSans-69" x="412.207031"/>
    <use xlink:href="#DejaVuSans-6f" x="439.990234"/>
    <use xlink:href="#DejaVuSans-6e" x="501.171875"/>
    <use xlink:href="#DejaVuSans-20" x="564.550781"/>
    <use xlink:href="#DejaVuSans-3d" x="596.337891"/>
    <use xlink:href="#DejaVuSans-20" x="680.126953"/>
    <use xlink:href="#DejaVuSans-31" x="711.914062"/>
    <use xlink:href="#DejaVuSans-35" x="775.537109"/>
   </g>
  </g>
 </g>
 <defs>
  <clipPath id="p326f80ddc9">
   <rect x="10.8" y="62.9385" width="273.6" height="197.1815"/>
  </clipPath>
  <clipPath id="p0a8e05094d">
   <rect x="295.2" y="62.9385" width="273.6" height="197.1815"/>
  </clipPath>
  <clipPath id="p490cb3b2aa">
   <rect x="579.6" y="62.9385" width="273.6" height="197.1815"/>
  </clipPath>
 </defs>
</svg>
